<svg xmlns="http://www.w3.org/2000/svg">
<defs>
<font id="PFDaVinciScriptPro-Inked" horiz-adv-x="276" >
  <font-face 
    font-family="PF DaVinci Script Pro Inked"
    font-weight="400"
    font-stretch="normal"
    units-per-em="1000"
    panose-1="2 0 5 6 6 0 0 2 0 2"
    ascent="750"
    descent="-250"
    x-height="198.004"
    cap-height="606.999"
    bbox="-420.56 -526 1684 823.321"
    underline-thickness="20"
    underline-position="-113"
    unicode-range="U+0020-U+2122"
  />
<missing-glyph horiz-adv-x="466" 
d="M88 584c20.667 1.33301 41.3359 5.33105 62.0029 11.998s41.667 10 63 10c18 0 34.5 -1.66699 49.5 -5s31.167 -5 48.5 -5c20 -3.33301 33.333 -6.66602 40 -9.99902s10 -7.66602 10 -12.999s-1.33301 -12.166 -4 -20.499s-4 -18.833 -4 -31.5v-6
c-0.666992 -12 -1 -24 -1 -36v-35c0 -20 1.5 -47.167 4.5 -81.5s6.5 -69.333 10.5 -105s8.33301 -68.167 13 -97.5s8.66699 -49 12 -59h-1c3.33301 -6.66699 7.16602 -15.5 11.499 -26.5s6.5 -22.167 6.5 -33.5c0 -7.33301 -2.16699 -14.5 -6.5 -21.5
s-11.833 -11.833 -22.5 -14.5c-12 -3.33301 -26.5 -5.83301 -43.5 -7.5s-33.5 -3 -49.5 -4s-29.833 -1.83301 -41.5 -2.5s-18.167 -1 -19.5 -1c-5.33301 0 -13.5 -0.333008 -24.5 -1s-22.167 -1 -33.5 -1c-37.333 0 -66 3.16699 -86 9.5s-30 18.166 -30 35.499
c0 1.33301 1 3.83301 3 7.5s3.66699 7.16699 5 10.5h-1c0 0.666992 2.16699 5.5 6.5 14.5s7.16602 16.833 8.49902 23.5c1.33301 10.667 2.66602 22.334 3.99902 35.001s2 25.334 2 38.001v74c0 2 -0.166992 7.83301 -0.5 17.5s-0.5 20.167 -0.5 31.5
s-0.166992 21.666 -0.5 30.999s-0.5 14.666 -0.5 15.999v87c0 2 -0.5 9 -1.5 21s-2 25 -3 39s-2 26.833 -3 38.5s-1.5 18.167 -1.5 19.5v9c-3.33301 5.33301 -5 10 -5 14c0 12.667 7.66699 20.667 23 24h1zM287.002 79.998c-13.333 26.667 -25.333 52.833 -36 78.5
s-19.667 48.167 -27 67.5c-11.333 -23.333 -21.333 -47.5 -30 -72.5s-17 -50.5 -25 -76.5c-1.33301 -3.33301 -2.33301 -6.83301 -3 -10.5s-1 -7.16699 -1 -10.5c0 -7.33301 2.66699 -13.666 8 -18.999s15.666 -8 30.999 -8l47 2

<glyph glyph-name=".notdef" horiz-adv-x="466" 
d="M88 584c20.667 1.33301 41.3359 5.33105 62.0029 11.998s41.667 10 63 10c18 0 34.5 -1.66699 49.5 -5s31.167 -5 48.5 -5c20 -3.33301 33.333 -6.66602 40 -9.99902s10 -7.66602 10 -12.999s-1.33301 -12.166 -4 -20.499s-4 -18.833 -4 -31.5v-6
c-0.666992 -12 -1 -24 -1 -36v-35c0 -20 1.5 -47.167 4.5 -81.5s6.5 -69.333 10.5 -105s8.33301 -68.167 13 -97.5s8.66699 -49 12 -59h-1c3.33301 -6.66699 7.16602 -15.5 11.499 -26.5s6.5 -22.167 6.5 -33.5c0 -7.33301 -2.16699 -14.5 -6.5 -21.5
s-11.833 -11.833 -22.5 -14.5c-12 -3.33301 -26.5 -5.83301 -43.5 -7.5s-33.5 -3 -49.5 -4s-29.833 -1.83301 -41.5 -2.5s-18.167 -1 -19.5 -1c-5.33301 0 -13.5 -0.333008 -24.5 -1s-22.167 -1 -33.5 -1c-37.333 0 -66 3.16699 -86 9.5s-30 18.166 -30 35.499
c0 1.33301 1 3.83301 3 7.5s3.66699 7.16699 5 10.5h-1c0 0.666992 2.16699 5.5 6.5 14.5s7.16602 16.833 8.49902 23.5c1.33301 10.667 2.66602 22.334 3.99902 35.001s2 25.334 2 38.001v74c0 2 -0.166992 7.83301 -0.5 17.5s-0.5 20.167 -0.5 31.5
s-0.166992 21.666 -0.5 30.999s-0.5 14.666 -0.5 15.999v87c0 2 -0.5 9 -1.5 21s-2 25 -3 39s-2 26.833 -3 38.5s-1.5 18.167 -1.5 19.5v9c-3.33301 5.33301 -5 10 -5 14c0 12.667 7.66699 20.667 23 24h1zM287.002 79.998c-13.333 26.667 -25.333 52.833 -36 78.5
s-19.667 48.167 -27 67.5c-11.333 -23.333 -21.333 -47.5 -30 -72.5s-17 -50.5 -25 -76.5c-1.33301 -3.33301 -2.33301 -6.83301 -3 -10.5s-1 -7.16699 -1 -10.5c0 -7.33301 2.66699 -13.666 8 -18.999s15.666 -8 30.999 -8l47 2
c16.667 1.33301 27.834 4.66602 33.501 9.99902s8.5 11 8.5 17c0 4 -0.666992 7.83301 -2 11.5zM158.002 536.997c0 -4.66699 2.33203 -11.334 6.99902 -20.001s8 -20 10 -34l1 -1c0 -0.666992 0.166992 -1.33398 0.5 -2.00098s0.5 -1.66699 0.5 -3l1 -1
c8.66699 -20 16.334 -39.167 23.001 -57.5l23 -62.5c6 15.333 12 31.833 18 49.5s11.5 34.834 16.5 51.501s9.16699 31.834 12.5 45.501s5 24.167 5 31.5c0 17.333 -11 26 -33 26c-30.667 0 -52.5 -2.5 -65.5 -7.5s-19.5 -10.167 -19.5 -15.5zM147.001 433.997
c-0.666992 1.33301 -1.33105 2.83301 -1.99805 4.5s-1 3.16699 -1 4.5h1l-3 5c-1.33301 0 -2.33301 -1.5 -3 -4.5s-1.33398 -8.83301 -2.00098 -17.5v-55c0 -40.667 -0.166992 -81.5 -0.5 -122.5s-0.5 -82.167 -0.5 -123.5c8.66699 27.333 18.5 56.5 29.5 87.5
s21.5 58.167 31.5 81.5c-4 10 -7.83301 21.167 -11.5 33.5s-7.83398 23.833 -12.501 34.5l-9 23c-4 10 -7.16699 19.333 -9.5 28s-4.83301 15.667 -7.5 21zM253.004 285.997l19.499 -49l25.5 -64l22.5 -57c6.33301 -16.667 9.83301 -26 10.5 -28
c0 5.33301 -1.16699 15.666 -3.5 30.999l-8 54.5l-9.5 67c-3.33301 23.667 -6.16602 47 -8.49902 70s-4 44.333 -5 64s-0.833008 35.834 0.5 48.501l-11 -34l-16 -52.5l-9.5 -30s-4 -11.833 -5 -14.5s-1.83301 -4.66699 -2.5 -6z" />
    <glyph glyph-name="space" unicode=" " horiz-adv-x="212" 
 />
    <glyph glyph-name="exclam" unicode="!" horiz-adv-x="233" 
d="M80 114c-1.33301 28.667 -3.5 56.8291 -6.5 84.4961s-4.5 56.167 -4.5 85.5c0 21.333 1.66699 42.333 5 63s6.83301 41 10.5 61l10.5 59.5c3.33301 19.667 5 39.5 5 59.5c0 8.66699 -1.5 16.334 -4.5 23.001s-4.5 14 -4.5 22c0 13.333 3.83301 23 11.5 29s17.5 9 29.5 9
c10.667 0 20 -2.33301 28 -7s14.5 -10.667 19.5 -18s8.83301 -15.666 11.5 -24.999s4 -18.666 4 -27.999c0 -20.667 -1.83301 -39.334 -5.5 -56.001s-8.33398 -32.667 -14.001 -48l-17.5 -46.5c-6 -15.667 -11.333 -32.5 -16 -50.5l-27 -107l-4 -8
c0 -3.33301 -0.166992 -9.16602 -0.5 -17.499l-1 -26c-0.333008 -9 -0.833008 -17.667 -1.5 -26s-1 -14.166 -1 -17.499c0 -4 -1.16699 -9 -3.5 -15s-6.16602 -9 -11.499 -9c-4.66699 0 -8.66699 3 -12 9zM27 20.9951c0 8 2.00098 14.999 6.00098 20.999
s9.16699 11.333 15.5 16s13.166 8.16699 20.499 10.5s14.333 3.5 21 3.5c8.66699 0 15.667 -1.5 21 -4.5s8 -9.16699 8 -18.5c0 -12.667 -6 -24.167 -18 -34.5s-24 -15.5 -36 -15.5c-2.66699 0 -6.16699 0.5 -10.5 1.5s-8.5 2.33301 -12.5 4s-7.5 3.83398 -10.5 6.50098
s-4.5 6 -4.5 10z" />
    <glyph glyph-name="quotedbl" unicode="&#x22;" horiz-adv-x="209" 
d="M24 505c0 0.666992 -0.167969 2.33203 -0.500977 4.99902s-0.5 4.66699 -0.5 6c0 5.33301 3 11.833 9 19.5s13 11.5 21 11.5c1.33301 0 3.66602 -1.16699 6.99902 -3.5s5.33301 -4.16602 6 -5.49902c13.333 -21.333 21.833 -44.166 25.5 -68.499s5.5 -48.5 5.5 -72.5
c0 -2.66699 -0.166992 -6 -0.5 -10s-1.16602 -8 -2.49902 -12s-3.16602 -7.33301 -5.49902 -10s-5.83301 -4 -10.5 -4c-8 0 -13.5 4.16699 -16.5 12.5s-4.5 15.166 -4.5 20.499v2zM145.999 384.998c-1.33301 23.333 -5.33203 48.334 -11.999 75.001
s-17.334 49.667 -32.001 69c1.33301 5.33301 4.66602 11.166 9.99902 17.499s11 9.5 17 9.5c4.66699 0 9.66699 -1.5 15 -4.5s10.5 -6.66699 15.5 -11s9.16699 -8.83301 12.5 -13.5s5 -8.66699 5 -12l6 -110c0 -4 -3 -9.33301 -9 -16s-12 -10 -18 -10
c-5.33301 0 -8.66602 2 -9.99902 6z" />
    <glyph glyph-name="numbersign" unicode="#" horiz-adv-x="606" 
d="M324 -38c-0.666992 4 -1.50195 9.82812 -2.50195 17.4951s-2.5 15.334 -4.5 23.001s-4.5 14.334 -7.5 20.001s-6.83301 8.5 -11.5 8.5c-6 0 -11.333 -1.66699 -16 -5s-10.667 -5 -18 -5c-14 0 -26 4.66699 -36 14s-18.5 19.5 -25.5 30.5s-12.667 21.167 -17 30.5
s-7.83301 14 -10.5 14h-109c-2 0 -4.66699 0.333008 -8 1s-6.66602 1.66699 -9.99902 3s-6.16602 3 -8.49902 5s-3.5 4.33301 -3.5 7c0 4 4.33301 7 13 9s19.167 3.83301 31.5 5.5s25.5 3 39.5 4s26.333 2.16699 37 3.5c6 0.666992 10.667 3 14 7s5.83301 8.66699 7.5 14
s2.66699 10.833 3 16.5s0.5 10.5 0.5 14.5c0 16.667 -11 25 -33 25c-16 0 -31.5 -2 -46.5 -6s-30.167 -6 -45.5 -6c-8 0 -16.5 1.33301 -25.5 4s-13.5 9.33398 -13.5 20.001c0 3.33301 0.333008 5.83301 1 7.5s3 3.5 7 5.5c13.333 2.66699 29.333 6.16699 48 10.5l53 12
l42.5 9.5c11.667 2.66699 17.167 4 16.5 4c4 1.33301 7.33301 7.83301 10 19.5s5.83398 24.167 9.50098 37.5s8 25.333 13 36s11.5 16 19.5 16c5.33301 0 9 -2 11 -6s3 -8.66699 3 -14c0 -7.33301 -1.5 -14.333 -4.5 -21s-4.5 -13.667 -4.5 -21
c0 -10.667 1.66699 -18.334 5 -23.001s7.5 -7.83398 12.5 -9.50098s10.333 -2.16699 16 -1.5s10.834 1 15.501 1c5.33301 0 10.666 0.5 15.999 1.5s9.33301 4.16699 12 9.5c5.33301 13.333 10.5 27.166 15.5 41.499s13.167 26.166 24.5 35.499h2c4.66699 0 8 -1.66699 10 -5
s3 -7.33301 3 -12l-1 -4c-0.666992 -2.66699 -1.66699 -6 -3 -10l-4 -12.5c-1.33301 -4.33301 -2.33301 -8.16602 -3 -11.499c-1.33301 -7.33301 2.66699 -12.666 12 -15.999s21 -5.66602 35 -6.99902s29.5 -2.33301 46.5 -3s32.833 -1.66699 47.5 -3
s26.834 -3.83301 36.501 -7.5s14.5 -9.16699 14.5 -16.5c0 -8.66699 -2.33301 -15.334 -7 -20.001s-10.334 -8.16699 -17.001 -10.5s-13.834 -3.66602 -21.501 -3.99902s-14.834 -0.5 -21.501 -0.5c-8.66699 0 -17 0.833008 -25 2.5s-16.667 2.5 -26 2.5
c-6.66699 0 -14.667 -0.5 -24 -1.5s-18.333 -3 -27 -6s-16 -7.33301 -22 -13s-9 -13.167 -9 -22.5c0 -13.333 3.66699 -23.166 11 -29.499s17 -10.166 29 -11.499c24.667 0 47.167 -1.33301 67.5 -4s43.5 -4 69.5 -4c11.333 0 22 0.166992 32 0.5s17 0.5 21 0.5
c0 -0.666992 1 -1.83398 3 -3.50098s3.33301 -3.16699 4 -4.5c0 -12 -4 -20.667 -12 -26s-18.833 -9.16602 -32.5 -11.499s-29.167 -3.66602 -46.5 -3.99902s-34.833 -1.16602 -52.5 -2.49902s-34.667 -4 -51 -8s-30.166 -10.667 -41.499 -20c0 -14.667 1.16699 -29 3.5 -43
s3.5 -28.333 3.5 -43c0 -3.33301 -0.166992 -7.33301 -0.5 -12s-1.33301 -9.33398 -3 -14.001s-4 -8.5 -7 -11.5s-6.83301 -4.5 -11.5 -4.5c-8.66699 0 -14.667 3.66699 -18 11z" />
    <glyph glyph-name="dollar" unicode="$" horiz-adv-x="495" 
d="M230 -110c0 -12 3.33301 -24.332 10 -36.999s10 -25.667 10 -39c0 -6 -0.833008 -11.333 -2.5 -16s-6.16699 -7 -13.5 -7c-8.66699 0 -15.334 4.16699 -20.001 12.5s-8 18.833 -10 31.5s-3.5 26.334 -4.5 41.001s-1.83301 28.334 -2.5 41.001
s-1.83398 23.167 -3.50098 31.5s-4.5 12.833 -8.5 13.5c-25.333 -1.33301 -48.5 -0.333008 -69.5 3s-46.167 9 -75.5 17c-2 0.666992 -4.33301 4.16699 -7 10.5s-4 10.166 -4 11.499c0 6.66699 2.83301 11.667 8.5 15s11.167 5 16.5 5c4.66699 0 7.66699 -0.833008 9 -2.5
s2.33301 -3.66699 3 -6s1.33398 -4.83301 2.00098 -7.5s2.66699 -5 6 -7c6 -3.33301 12.667 -5.5 20 -6.5s14.666 -1.5 21.999 -1.5h32c12 0 22.667 1.66699 32 5s14.666 12 15.999 26c2 19.333 3.83301 40.666 5.5 63.999s2.5 44.666 2.5 63.999c0 6.66699 -1 11.667 -3 15
s-6 5 -12 5c-12 2 -27.5 3.33301 -46.5 4s-37.5 2.66699 -55.5 6s-33.5 9.16602 -46.5 17.499s-19.5 21.166 -19.5 38.499c0 12 4.66699 24.333 14 37s20.666 24.834 33.999 36.501s27.166 22 41.499 31s26.5 15.833 36.5 20.5c9.33301 4.66699 19 8.66699 29 12
s19.167 6.66602 27.5 9.99902s15.333 7.16602 21 11.499s8.83398 9.5 9.50098 15.5l8 99c0 3.33301 1.66699 6.83301 5 10.5s6.66602 5.5 9.99902 5.5c4.66699 0 8 -1 10 -3s2.66699 -6.33301 2 -13c0 -1.33301 -0.333008 -4.16602 -1 -8.49902s-1.16699 -9 -1.5 -14
l-1 -14.5c-0.333008 -4.66699 -0.5 -7.66699 -0.5 -9c0 -8.66699 0.666992 -19 2 -31s4.33301 -19.333 9 -22l1.5 1c1 0.666992 4.5 1.83398 10.5 3.50098s15.667 3.33398 29 5.00098s32.666 3.5 57.999 5.5c10.667 0 22 -0.833008 34 -2.5s23.167 -4.83398 33.5 -9.50098
s18.833 -11.334 25.5 -20.001s10 -19.667 10 -33c0 -18.667 -5 -36 -15 -52s-25.333 -24 -46 -24c-7.33301 0 -14.666 1.33301 -21.999 4s-14.666 4 -21.999 4c-3.33301 0 -8.16602 -1 -14.499 -3s-13.166 -4.33301 -20.499 -7l-23 -8
c-8 -2.66699 -15.667 -4.33398 -23 -5.00098c-7.33301 -5.33301 -13.666 -13.666 -18.999 -24.999s-8 -21.666 -8 -30.999v-1c0 -0.666992 1 -1.83398 3 -3.50098s3.33301 -2.83398 4 -3.50098c14.667 -1.33301 31.334 -3.16602 50.001 -5.49902s36.5 -6.66602 53.5 -12.999
s31.333 -15.166 43 -26.499s17.5 -27 17.5 -47c0 -16 -5 -30.333 -15 -43s-22 -23.834 -36 -33.501s-28.833 -18 -44.5 -25s-29.5 -12.5 -41.5 -16.5c-8 -3.33301 -15.667 -5.66602 -23 -6.99902s-14 -3.33301 -20 -6s-11.167 -6.5 -15.5 -11.5s-7.5 -12.167 -9.5 -21.5
c0 -13.333 -0.166992 -25.5 -0.5 -36.5s-0.5 -19.167 -0.5 -24.5zM277 165.001c-9.33301 0 -16.999 -6.66797 -22.999 -20.001s-10.667 -28.5 -14 -45.5s-5.66602 -33.667 -6.99902 -50s-2 -27.833 -2 -34.5c10 0 24 3 42 9s35.667 13.833 53 23.5s32.333 20.667 45 33
s19 24.5 19 36.5c0 8.66699 -4.83301 16.167 -14.5 22.5s-20.834 11.333 -33.501 15s-25.334 6.33398 -38.001 8.00098s-21.667 2.5 -27 2.5zM94.001 241c0 -4.66699 4.33594 -8.50098 13.0029 -11.501s18.5 -5.5 29.5 -7.5s21.667 -3.33301 32 -4s17.166 -1 20.499 -1
c5.33301 0 11.166 0.5 17.499 1.5s9.5 4.5 9.5 10.5v46c0 5.33301 -3.5 9.83301 -10.5 13.5s-12.5 5.5 -16.5 5.5c-6 0 -14.167 -1.33301 -24.5 -4s-20.833 -6.5 -31.5 -11.5s-19.834 -10.667 -27.501 -17s-11.5 -13.166 -11.5 -20.499z" />
    <glyph glyph-name="percent" unicode="%" horiz-adv-x="483" 
d="M160 -46c0.666992 28.667 3.5 56.6689 8.5 84.002s11 53.666 18 78.999s14.667 49.333 23 72l23.5 63c10.667 29.333 25.334 59 44.001 89s37.667 57.667 57 83c5.33301 7.33301 12.166 11.666 20.499 12.999s15.833 2.66602 22.5 3.99902
c23.333 -5.33301 38 -19.333 44 -42c2 -9.33301 2.66699 -18.166 2 -26.499s-4.66699 -16.166 -12 -23.499c-13.333 -11.333 -27.5 -21.666 -42.5 -30.999s-28.167 -20.666 -39.5 -33.999c-24 -27.333 -41.833 -53 -53.5 -77s-21.167 -48.167 -28.5 -72.5
s-14.333 -49.833 -21 -76.5s-16.667 -56.334 -30 -89.001c-2.66699 -6.66699 -6.66699 -12.334 -12 -17.001s-11.666 -5.33398 -18.999 -2.00098c-0.666992 0 -1.83398 0.166992 -3.50098 0.5s-2.16699 1.5 -1.5 3.5zM283 36.002c0 11.333 3.33594 22.834 10.0029 34.501
s15 22 25 31s21.167 16.333 33.5 22s24.166 8.5 35.499 8.5c0 -8 -1.83301 -13.833 -5.5 -17.5s-7.83398 -6.33398 -12.501 -8.00098s-8.83398 -3.5 -12.501 -5.5s-5.5 -5.66699 -5.5 -11c4.66699 0 8.83398 0.333008 12.501 1s7.5 1 11.5 1c10.667 0 18.5 -3.5 23.5 -10.5
s7.5 -15.167 7.5 -24.5s-2.83301 -17.333 -8.5 -24s-12.834 -12.167 -21.501 -16.5s-17.667 -7.5 -27 -9.5s-18 -3 -26 -3c-10 0 -19.167 2.33301 -27.5 7s-12.5 13 -12.5 25zM61.0029 301.003c0 10.667 4.00098 22.334 12.001 35.001s17.833 24.5 29.5 35.5
s24 20.333 37 28s24.833 11.5 35.5 11.5c4 0 6 -2.33301 6 -7c0 -2 -3.83301 -5.33301 -11.5 -10s-16 -10.834 -25 -18.501s-17.333 -16.334 -25 -26.001s-11.5 -20.5 -11.5 -32.5c12.667 0 20.834 1.83301 24.501 5.5s6 8.33398 7 14.001l3.5 19
c1.33301 7 6.66602 13.833 15.999 20.5c3.33301 2 8.83301 4.83301 16.5 8.5s14.167 5.5 19.5 5.5c8.66699 0 16.167 -3.5 22.5 -10.5s9.5 -14.833 9.5 -23.5c0 -10.667 -5 -21.167 -15 -31.5s-21.833 -19.5 -35.5 -27.5s-27.834 -14.5 -42.501 -19.5s-26.667 -7.5 -36 -7.5
s-17.833 2.83301 -25.5 8.5s-11.5 13.167 -11.5 22.5z" />
    <glyph glyph-name="ampersand" unicode="&#x26;" horiz-adv-x="647" 
d="M38 63c0 20 3.17285 39.1689 9.50586 57.502s14.5 35.833 24.5 52.5s21.167 32.667 33.5 48s24.833 30 37.5 44l6 6l10.5 11c3.66699 4 7.16699 7.5 10.5 10.5s5.33301 5.16699 6 6.5c3.33301 4 5 8.33301 5 13v4c-3.33301 15.333 -6.33301 30.166 -9 44.499
s-4 29.5 -4 45.5c0 46.667 11.333 84.834 34 114.501s57.667 44.5 105 44.5c21.333 0 38 -5.5 50 -16.5s18 -27.167 18 -48.5c0 -15.333 -3.16699 -30.5 -9.5 -45.5s-14 -29.5 -23 -43.5s-18.667 -27.333 -29 -40l-27.5 -34c-4 -5.33301 -8.5 -10.833 -13.5 -16.5
s-7.5 -12.167 -7.5 -19.5c0 -8.66699 3.16699 -17.334 9.5 -26.001s13.666 -16.667 21.999 -24s17 -14.166 26 -20.499l22.5 -15.5c0.666992 0 1.66699 -0.166992 3 -0.5s2.33301 -0.5 3 -0.5c5.33301 0 9.16602 0.666992 11.499 2s6.16602 3.66602 11.499 6.99902
c13.333 8 26.833 16.667 40.5 26s27.834 18.166 42.501 26.499s29.5 15.166 44.5 20.499s30.5 8 46.5 8c6 0 14.167 -0.5 24.5 -1.5s20.5 -3 30.5 -6s18.667 -7 26 -12s11 -11.5 11 -19.5s-3.33301 -13.667 -10 -17s-13.334 -6 -20.001 -8
c-2.66699 0 -7.83398 -0.166992 -15.501 -0.5l-24 -1l-24.5 -1c-8 -0.333008 -13.333 -0.833008 -16 -1.5c-3.33301 0 -11 -2.66699 -23 -8l-38.5 -18c-13.667 -6.66699 -25.834 -13.5 -36.501 -20.5s-16 -12.5 -16 -16.5c0 -5.33301 5.33301 -13.833 16 -25.5l35 -39
c12.667 -14.333 24.334 -29 35.001 -44s16 -28.167 16 -39.5c0 -5.33301 -2.33301 -11.666 -7 -18.999s-10 -11 -16 -11c-0.666992 0 -1.33398 0.333008 -2.00098 1c-5.33301 3.33301 -8.83301 6.83301 -10.5 10.5s-2.83398 7.33398 -3.50098 11.001s-1.5 7.66699 -2.5 12
s-2.83301 8.83301 -5.5 13.5c-5.33301 8 -11.833 16.667 -19.5 26s-16.5 18 -26.5 26s-20.5 14.667 -31.5 20s-22.167 8 -33.5 8s-21.166 -4.16699 -29.499 -12.5s-16.166 -15.5 -23.499 -21.5l-37.5 -31.5c-16.333 -13.667 -33.833 -27.167 -52.5 -40.5
s-37.167 -25 -55.5 -35s-33.5 -15 -45.5 -15c-12.667 0 -23.834 3 -33.501 9s-17.834 13.667 -24.501 23s-11.667 19.666 -15 30.999s-5 22.333 -5 33zM168.006 190.002c0 -10.667 4.83301 -18.333 14.5 -23s18.5 -7 26.5 -7c6 0 12.167 0.833008 18.5 2.5
s12.333 4.16699 18 7.5s10.334 7.5 14.001 12.5s5.5 10.833 5.5 17.5v7c-2 2.66699 -5.16699 6.16699 -9.5 10.5s-8.83301 8.5 -13.5 12.5s-9.33398 7.5 -14.001 10.5s-9 4.5 -13 4.5s-8.66699 -2.33301 -14 -7s-10.5 -10 -15.5 -16s-9.16699 -12 -12.5 -18
s-5 -10.667 -5 -14z" />
    <glyph glyph-name="quotesingle" unicode="'" horiz-adv-x="155" 
d="M78 381c-1.33301 22 -4.99902 45.667 -10.999 71s-15.667 47.666 -29 66.999c-0.666992 0.666992 -1 1.33398 -1 2.00098s-0.333008 1.33398 -1 2.00098l-2 2c1.33301 5.33301 4.66602 11.166 9.99902 17.499s11 9.5 17 9.5c4.66699 0 9.66699 -1.5 15 -4.5
s10.5 -6.66699 15.5 -11s9.16699 -8.83301 12.5 -13.5s5 -9 5 -13l7 -109c0 -4 -3.16699 -9.33301 -9.5 -16s-12.5 -10 -18.5 -10c-4 0 -7.33301 2 -10 6z" />
    <glyph glyph-name="parenleft" unicode="(" horiz-adv-x="287" 
d="M67 342c8.66699 33.333 18.334 65.3359 29.001 96.0029s22.167 57.5 34.5 80.5s25.166 41.5 38.499 55.5s27 21 41 21c6 0 13 -0.166992 21 -0.5s15.5 -1.5 22.5 -3.5s12.667 -5.16699 17 -9.5s6.16602 -10.5 5.49902 -18.5
c-0.666992 -5.33301 -1.83398 -10.333 -3.50098 -15s-4.5 -7.33398 -8.5 -8.00098c-6 0 -9.66699 -0.333008 -11 -1s-2 -1.33398 -2 -2.00098s-0.666992 -1.5 -2 -2.5s-5 -1.5 -11 -1.5c-6.66699 0 -13.667 -3.83301 -21 -11.5s-14.166 -16.167 -20.499 -25.5
s-11.666 -18.166 -15.999 -26.499s-6.83301 -13.833 -7.5 -16.5l-11 -28c-6 -15.333 -12.667 -33.666 -20 -54.999c-15.333 -43.333 -27.833 -83.833 -37.5 -121.5s-14.5 -77.5 -14.5 -119.5c0 -25.333 1.16699 -51.5 3.5 -78.5s7 -53.167 14 -78.5s17 -49 30 -71
s29.833 -40 50.5 -54c9.33301 -6 19.166 -11.833 29.499 -17.5s21.5 -10.167 33.5 -13.5c12 -4 24.667 -7 38 -9c7.33301 -1.33301 12.5 -3 15.5 -5s5 -3.83301 6 -5.5s1.83301 -3.33398 2.5 -5.00098s2 -3.16699 4 -4.5s1.66699 -2.33301 -1 -3
s-6.16699 -1.33398 -10.5 -2.00098s-8.83301 -0.833984 -13.5 -0.500977s-8 1.5 -10 3.5c-32.667 4 -61.334 11.5 -86.001 22.5s-46.667 26.5 -66 46.5c-27.333 29.333 -47.666 64.833 -60.999 106.5s-21.5 85 -24.5 130s-2.16699 89.5 2.5 133.5s11.334 83.333 20.001 118z
" />
    <glyph glyph-name="parenright" unicode=")" horiz-adv-x="333" 
d="M275 54c-7.33301 -33.333 -16.502 -65.8379 -27.502 -97.5049s-23 -59.667 -36 -84s-26.5 -43.833 -40.5 -58.5s-28 -22 -42 -22c-3.33301 0 -7 -0.166992 -11 -0.5s-8 -0.5 -12 -0.5c-8.66699 0 -16.167 1.33301 -22.5 4s-9.5 8.66699 -9.5 18c0 8 2.33301 14.667 7 20
s9.83398 9.33301 15.501 12s11.167 4.5 16.5 5.5s8.66602 1.5 9.99902 1.5c6.66699 0 13.5 3.66699 20.5 11s13.5 15.666 19.5 24.999s11.167 18.166 15.5 26.499s6.83301 13.833 7.5 16.5c1.33301 3.33301 4.66602 12.5 9.99902 27.5s11.333 33.167 18 54.5
c7.33301 22.667 13.166 44.334 17.499 65.001s7.83301 41 10.5 61s4.33398 40.333 5.00098 61s1 42.667 1 66c0 34.667 -2.83301 68.334 -8.5 101.001s-16 62.834 -31 90.501s-35.5 51.5 -61.5 71.5s-59.667 34.667 -101 44c-7.33301 2 -12.666 3.83301 -15.999 5.5
s-5.5 3.33398 -6.5 5.00098s-1.83301 3.33398 -2.5 5.00098s-2 3.16699 -4 4.5c-0.666992 0.666992 -1 1.33398 -1 2.00098c0 1.33301 1.83301 2.33301 5.5 3s7.83398 1 12.501 1c3.33301 0 6.83301 -0.333008 10.5 -1s6.16699 -1.66699 7.5 -3
c48 -7.33301 87.833 -22.666 119.5 -45.999s56.834 -51.333 75.501 -84s31.667 -68.667 39 -108s11 -78.333 11 -117c0 -33.333 -2.16699 -65.833 -6.5 -97.5s-9.5 -61.167 -15.5 -88.5z" />
    <glyph glyph-name="asterisk" unicode="*" horiz-adv-x="368" 
d="M87 324c0 8 1.16211 15.832 3.49512 23.499s5 15 8 22s5.83301 14.167 8.5 21.5s4 15 4 23c-11.333 0 -21.333 -2.16699 -30 -6.5s-18.334 -6.5 -29.001 -6.5c-2 0 -4.16699 0.166992 -6.5 0.5s-3.5 2.16602 -3.5 5.49902s2.83301 7 8.5 11s9.83398 6.66699 12.501 8
c2 0.666992 5.5 2.33398 10.5 5.00098s10.333 5.16699 16 7.5s11 4.66602 16 6.99902s8.5 3.83301 10.5 4.5c2 0 3 1.33301 3 4c0 4.66699 -1.66699 8.66699 -5 12s-7 6.5 -11 9.5s-7.66699 6.33301 -11 10s-5 8.16699 -5 13.5c0 6.66699 2.83301 13 8.5 19
s11.834 9 18.501 9c3.33301 0 6.83301 -1.33301 10.5 -4s6.5 -4.66699 8.5 -6l4 -2c0.666992 -0.666992 1.66699 -1 3 -1c3.33301 0.666992 6.16602 4 8.49902 10s4.5 12.833 6.5 20.5s4.5 15.167 7.5 22.5s7.16699 12.666 12.5 15.999
c4.66699 -1.33301 8.33398 -3.66602 11.001 -6.99902c-3.33301 -10.667 -5.5 -20 -6.5 -28s-1.5 -16.667 -1.5 -26v-12l4 -3l60 59c4.66699 4.66699 9 7 13 7c6.66699 0 10.334 -2.33301 11.001 -7c0.666992 0 0.5 -0.833008 -0.5 -2.5s-1.83301 -3.16699 -2.5 -4.5l-60 -81
c-0.666992 0 -1 -0.333008 -1 -1v-2c0 -0.666992 0.333008 -2 1 -4s1.66699 -3 3 -3h116c2 0 3.16699 -0.833008 3.5 -2.5s0.5 -3.16699 0.5 -4.5c0 -7.33301 -5.16699 -12 -15.5 -14s-21.666 -3.66699 -33.999 -5s-23.666 -3 -33.999 -5s-15.5 -6.33301 -15.5 -13v-2
l17.5 -17c7.66699 -7.33301 11.5 -15 11.5 -23c0 -6 -2.33301 -9 -7 -9c-6 0 -11.333 1.83301 -16 5.5s-9.16699 7.83398 -13.5 12.501s-9 8.83398 -14 12.501s-10.5 5.5 -16.5 5.5c-5.33301 0 -9 -3.16699 -11 -9.5s-3 -11.5 -3 -15.5v-14.5v-22.5v-22v-14
c-3.33301 -2.66699 -6.66602 -4 -9.99902 -4c-5.33301 0 -8.83301 2.83301 -10.5 8.5s-3 11.667 -4 18s-2.5 12.333 -4.5 18s-5.66699 8.5 -11 8.5s-8.83301 -3.83301 -10.5 -11.5s-3.16699 -16.167 -4.5 -25.5s-3 -17.833 -5 -25.5s-5.66699 -11.5 -11 -11.5
c-4 0 -7.16699 1.5 -9.5 4.5s-4 6.5 -5 10.5s-1.66699 8.16699 -2 12.5s-0.5 7.83301 -0.5 10.5z" />
    <glyph glyph-name="plus" unicode="+" horiz-adv-x="400" 
d="M171 68c-1.33301 2 -2.66992 5.99707 -4.00293 11.9971s-3 12.167 -5 18.5l-5.5 18c-1.66699 5.66699 -2.83398 9.5 -3.50098 11.5c-2 4 -3.16699 9.33301 -3.5 16s-1.16602 13.334 -2.49902 20.001s-3.33301 12.667 -6 18s-7 9 -13 11c-2 0 -6 0.166992 -12 0.5l-18.5 1
c-6.33301 0.333008 -12.5 0.833008 -18.5 1.5s-10 1 -12 1c-5.33301 0.666992 -11.5 3 -18.5 7s-10.5 9 -10.5 15c0 5.33301 3 12 9 20s13.333 12.667 22 14l38 5h5c1.33301 0 4.66602 0.666992 9.99902 2s9 2 11 2c8.66699 2.66699 14.5 10.334 17.5 23.001
s5.33301 26.167 7 40.5s4.33398 27.333 8.00098 39s10.5 17.5 20.5 17.5c4 0 7 -1.83301 9 -5.5s3 -7.83398 3 -12.501c0 -15.333 2.5 -28.333 7.5 -39s9.16699 -21.667 12.5 -33c0.666992 -5.33301 2 -8.83301 4 -10.5s4.66699 -3.5 8 -5.5
c23.333 -2.66699 42.833 -7.66699 58.5 -15s26.167 -12 31.5 -14c4 -1.33301 8.33301 -3.66602 13 -6.99902s9.16699 -7.5 13.5 -12.5s8 -10.333 11 -16s4.5 -11.5 4.5 -17.5c0 -5.33301 -0.5 -8.83301 -1.5 -10.5s-4.16699 -2.5 -9.5 -2.5
c-15.333 0 -30.166 2.16699 -44.499 6.5s-29.166 6.5 -44.499 6.5c-11.333 0 -22.333 -1.83301 -33 -5.5s-17.334 -13.167 -20.001 -28.5c-2 -14 -4 -27.167 -6 -39.5s-3 -25.166 -3 -38.499v-14c-1.33301 -4 -3.16602 -6.5 -5.49902 -7.5s-5.16602 -1.5 -8.49902 -1.5
s-6.33301 0.5 -9 1.5s-4.66699 3.5 -6 7.5z" />
    <glyph glyph-name="comma" unicode="," horiz-adv-x="170" 
d="M72 -17c-8 2 -14.1689 5.50195 -18.502 10.502s-7.5 10.667 -9.5 17s-3 12.833 -3 19.5s0.333008 12.667 1 18c0.666992 4 2.66699 8 6 12s7.33301 7.83301 12 11.5s9.66699 6.5 15 8.5s10.333 3 15 3c6 0 14 -2.66699 24 -8s16.667 -16.333 20 -33
c2 -13.333 0.666992 -29.333 -4 -48s-11.167 -35.834 -19.5 -51.501s-17.666 -27.5 -27.999 -35.5s-19.833 -8 -28.5 0c-2 3.33301 -1.16699 6.66602 2.5 9.99902s7.33398 7.5 11.001 12.5s6.5 11.667 8.5 20s0.666992 19.5 -4 33.5z" />
    <glyph glyph-name="hyphen" unicode="-" horiz-adv-x="300" 
d="M47 187c0 4 2.83105 8.66504 8.49805 13.998s10.167 9.33301 13.5 12h10c4.66699 0 9.66699 0.166992 15 0.5s10.333 0.5 15 0.5h10h13.5c5.66699 0 11.334 -0.166992 17.001 -0.5s10.5 -0.5 14.5 -0.5h6c5.33301 0 13 -0.166992 23 -0.5s20 -1.33301 30 -3
s18.667 -4.16699 26 -7.5s11 -7.66602 11 -12.999s-1.16699 -9.33301 -3.5 -12s-7.16602 -5 -14.499 -7c-12.667 -1.33301 -24.167 -2.16602 -34.5 -2.49902s-20.333 -0.833008 -30 -1.5s-19.167 -1 -28.5 -1h-31h-18c-8 0 -16 0.5 -24 1.5s-14.833 3 -20.5 6
s-8.5 7.83301 -8.5 14.5z" />
    <glyph glyph-name="period" unicode="." horiz-adv-x="186" 
d="M50 20c-2 6.66699 -2.66406 14.501 -1.99707 23.501s3 17.333 7 25s10 14 18 19s18.667 6.83301 32 5.5c9.33301 -0.666992 17.166 -4.33398 23.499 -11.001s10.166 -13 11.499 -19c4 -16 1.5 -30 -7.5 -42s-23.5 -18.667 -43.5 -20c-10 0 -18.333 0.833008 -25 2.5
s-11.334 7.16699 -14.001 16.5z" />
    <glyph glyph-name="slash" unicode="/" horiz-adv-x="288" 
d="M288 456c-18.667 -28 -38.167 -59.168 -58.5 -93.501s-40.5 -70.833 -60.5 -109.5s-39 -78.5 -57 -119.5s-34.333 -81.833 -49 -122.5l-31 -94.5c-10.667 -33 -19.334 -60.833 -26.001 -83.5c-1.33301 -5.33301 -4.33301 -5.83301 -9 -1.5s-7 8.5 -7 12.5
c1.33301 18 4 37.333 8 58s8.66699 39.334 14 56.001l12 38.5l20 61l20.5 62c6.33301 19.667 11.166 33.5 14.499 41.5c8 24 19.667 55.5 35 94.5s32 79.333 50 121s35.833 81 53.5 118s32.834 65.5 45.501 85.5c3.33301 4.66699 5.83301 8 7.5 10s4.16699 2.66699 7.5 2
c6.66699 0 12.334 -2.83301 17.001 -8.5s8.5 -12.5 11.5 -20.5s5 -16.5 6 -25.5s1.5 -17.167 1.5 -24.5c-0.666992 -8.66699 -4.16699 -18.667 -10.5 -30z" />
    <glyph glyph-name="zero" unicode="0" horiz-adv-x="432" 
d="M47 57c0 2 -0.166992 6.99707 -0.5 14.9971s-0.5 13 -0.5 15c0 26 3.66699 50.5 11 73.5s17 45 29 66s25.833 41.333 41.5 61s32.167 38.5 49.5 56.5c7.33301 8 14.333 17.5 21 28.5s14 21.5 22 31.5s17.5 18.5 28.5 25.5s24.5 10.5 40.5 10.5
c18.667 0 33.5 -4.66699 44.5 -14s19.333 -21 25 -35s9.16699 -29 10.5 -45s2 -30.667 2 -44c0 -11.333 -1.66699 -22.666 -5 -33.999s-4 -22.666 -2 -33.999c-5.33301 -12 -12.333 -26.667 -21 -44s-19 -35.166 -31 -53.499s-25.167 -36.5 -39.5 -54.5
s-29.333 -34.167 -45 -48.5s-32 -25.833 -49 -34.5s-33.833 -13 -50.5 -13c-22.667 0 -40.5 7.33301 -53.5 22s-22.167 31 -27.5 49zM108 87.9971c3.33301 -4.66699 7.16797 -7.5 11.501 -8.5s9.16602 -1.5 14.499 -1.5c18 0 37 6.33301 57 19s38.167 28.334 54.5 47.001
s29.833 38.167 40.5 58.5s16 38.166 16 53.499c0 7.33301 -3.16699 12.833 -9.5 16.5s-12.833 5.5 -19.5 5.5c-8 0 -15.167 -1.66699 -21.5 -5s-12.333 -6.83301 -18 -10.5s-11.5 -7.16699 -17.5 -10.5s-13 -5 -21 -5s-14.5 2.16699 -19.5 6.5s-11.167 6.5 -18.5 6.5
c-8.66699 0 -16.167 -6.66699 -22.5 -20s-11.5 -28.5 -15.5 -45.5s-7 -33.667 -9 -50s-3 -27.5 -3 -33.5c0 -2 0.166992 -6 0.5 -12s0.5 -9.66699 0.5 -11z" />
    <glyph glyph-name="one" unicode="1" horiz-adv-x="273" 
d="M66 19c0 19.333 0.833008 38.8369 2.5 58.5039s3.83398 38.834 6.50098 57.501c2 12 4.16699 24.167 6.5 36.5s4.5 24.666 6.5 36.999s3.66699 24 5 35s1.66602 20.833 0.999023 29.5c-0.666992 10.667 -3.16699 15.5 -7.5 14.5s-9 -3 -14 -6s-9.5 -4.83301 -13.5 -5.5
s-6 4.33301 -6 15c0 4.66699 3.83301 13.167 11.5 25.5s16.167 25.166 25.5 38.499l26 37c8 11.333 12 18.333 12 21c0.666992 4 3.33398 7.66699 8.00098 11s10.167 6.33301 16.5 9s12.666 4.66699 18.999 6s11.5 2 15.5 2c12 0 20.833 -3.83301 26.5 -11.5
s8.5 -16.167 8.5 -25.5c0 -6 -1.16699 -12 -3.5 -18s-5 -11.833 -8 -17.5s-5.66699 -11.334 -8 -17.001s-3.5 -11.5 -3.5 -17.5c0 -8 0.666992 -16 2 -24s2 -16 2 -24c0 -14.667 -2.5 -29 -7.5 -43s-11.167 -27.5 -18.5 -40.5s-15.166 -26 -23.499 -39
s-15.833 -25.833 -22.5 -38.5c-2 -4 -4.5 -12.5 -7.5 -25.5s-6.5 -26.333 -10.5 -40s-8.83301 -25.834 -14.5 -36.501s-12.834 -16 -21.501 -16c-4 0 -6.83301 1.16699 -8.5 3.5s-2.5 5.16602 -2.5 8.49902z" />
    <glyph glyph-name="two" unicode="2" horiz-adv-x="586" 
d="M335 40c-28 0 -53.6709 -2.16895 -77.0039 -6.50195s-46.166 -9 -68.499 -14s-45.166 -9.5 -68.499 -13.5s-49 -6 -77 -6c-11.333 0 -21 6.33301 -29 19s-12 25.334 -12 38.001c0 26.667 9 50.5 27 71.5s39.833 40 65.5 57s52.834 32.833 81.501 47.5s54 29 76 43
c20 12.667 32.167 25 36.5 37s3 22.667 -4 32s-18.667 16.833 -35 22.5s-34.833 8.5 -55.5 8.5h-19.5c-5 0 -9.83301 -0.166992 -14.5 -0.5s-9.66699 -0.833008 -15 -1.5s-12 -1.66699 -20 -3c-1.33301 0 -5 -0.5 -11 -1.5s-12.667 -2 -20 -3s-14 -1.83301 -20 -2.5
s-9.33301 -1 -10 -1h-4c-6.66699 0 -10 3.33301 -10 10c0 7.33301 6.16699 13.833 18.5 19.5s27.333 10.167 45 13.5s35.834 6 54.501 8s34.667 3 48 3c11.333 0 25.833 -1.16699 43.5 -3.5s34.667 -6.5 51 -12.5s30.5 -13.833 42.5 -23.5s18 -21.834 18 -36.501
c0 -18.667 -5.16699 -35.167 -15.5 -49.5s-23 -27.333 -38 -39s-31.5 -22.667 -49.5 -33s-34.5 -20.833 -49.5 -31.5s-27.667 -22.167 -38 -34.5s-15.5 -26.166 -15.5 -41.499c0 -5.33301 2.16699 -9.83301 6.5 -13.5s9.33301 -6.5 15 -8.5s11.667 -3.5 18 -4.5
s11.5 -1.5 15.5 -1.5h33c8.66699 0 16.667 -0.166992 24 -0.5s15 -0.833008 23 -1.5s18 -1.33398 30 -2.00098c42 -2.66699 81.5 -10 118.5 -22s74.167 -30 111.5 -54c3.33301 -1.33301 5.33301 -3.16602 6 -5.49902s1 -5.16602 1 -8.49902c0 -6 -1 -9.16699 -3 -9.5
s-5.66699 -0.5 -11 -0.5c-0.666992 0 -2.5 0.333008 -5.5 1s-5.16699 1.66699 -6.5 3c-34 14 -68 26.833 -102 38.5s-69 17.5 -105 17.5z" />
    <glyph glyph-name="three" unicode="3" horiz-adv-x="318" 
d="M-81 30c0 9.33301 2.83105 17.835 8.49805 25.502s13.5 11.5 23.5 11.5c7.33301 0 12.5 -1.16699 15.5 -3.5s4.5 -7.16602 4.5 -14.499c0 -0.666992 -0.166992 -1.33398 -0.5 -2.00098s-0.5 -1.66699 -0.5 -3v-4c-0.666992 -1.33301 -2.5 -3.5 -5.5 -6.5
s-4.83301 -4.5 -5.5 -4.5c-1.33301 -4 0.5 -7 5.5 -9s7.83301 -3 8.5 -3c1.33301 -0.666992 5.5 -1 12.5 -1h15.5c8.66699 0 20.667 1.5 36 4.5s32 7.16699 50 12.5s36.333 12 55 20s35.5 17.333 50.5 28s27.333 22.334 37 35.001s14.5 26.667 14.5 42
c0 8.66699 -2.5 15 -7.5 19s-11.167 6.83301 -18.5 8.5s-15 2.5 -23 2.5s-15 0.666992 -21 2c-15.333 2 -31.5 4.66699 -48.5 8s-33.167 4.66602 -48.5 3.99902c-4 0.666992 -9.16699 2 -15.5 4s-12.333 4.33301 -18 7s-10.5 5.83398 -14.5 9.50098s-6 8.16699 -6 13.5
c0 31.333 14.667 54.333 44 69l105 43c4.66699 2 10.167 5.66699 16.5 11s9.5 10.666 9.5 15.999c0 4 -2.16699 7.66699 -6.5 11s-9.5 6.16602 -15.5 8.49902s-11.833 4 -17.5 5s-9.83398 1.5 -12.501 1.5c-2 0 -6 0.166992 -12 0.5s-12.333 0.5 -19 0.5
s-13 -0.166992 -19 -0.5s-10 -0.5 -12 -0.5c-5.33301 -1.33301 -8.66602 -0.833008 -9.99902 1.5s-2 5.16602 -2 8.49902c0 6 3 10.5 9 13.5s13 5.16699 21 6.5s16 2 24 2h17c8 0 18.167 -0.666992 30.5 -2s24 -4 35 -8s20.5 -9.83301 28.5 -17.5s12 -17.834 12 -30.501
c0 -9.33301 -2.66699 -18.166 -8 -26.499s-11 -14.833 -17 -19.5l-69 -48c-2 -1.33301 -3.16699 -3.33301 -3.5 -6s-0.5 -5 -0.5 -7c0 -6 3.33301 -10.333 10 -13s15.167 -4.66699 25.5 -6s21.5 -3.16602 33.5 -5.49902s23.333 -6.33301 34 -12s19.834 -14.167 27.501 -25.5
s12.167 -26.666 13.5 -45.999c0.666992 -6 -0.333008 -12.667 -3 -20s-6.16699 -14.5 -10.5 -21.5s-9 -13.667 -14 -20s-9.5 -11.166 -13.5 -14.499c-15.333 -13.333 -33.166 -25.833 -53.499 -37.5s-41.666 -21.834 -63.999 -30.501s-44.833 -15.334 -67.5 -20.001
s-43.334 -7 -62.001 -7h-26c-10 0 -19.5 1.33301 -28.5 4s-16.833 6.66699 -23.5 12s-10 13.666 -10 24.999z" />
    <glyph glyph-name="four" unicode="4" horiz-adv-x="494" 
d="M49 -71c0 12 0.165039 21.8369 0.498047 29.5039s2.83301 17.5 7.5 29.5c2 5.33301 5.66699 14.333 11 27l16.5 40.5l16.5 40c5.33301 12.333 9 21.166 11 26.499c0 0.666992 0.833008 5.16699 2.5 13.5s3.16699 14.833 4.5 19.5v4
c-6.66699 0.666992 -15.334 1.66699 -26.001 3s-21 3.66602 -31 6.99902s-18.833 8.16602 -26.5 14.499s-11.5 14.833 -11.5 25.5c-0.666992 17.333 3.33301 35.5 12 54.5s19.5 37.167 32.5 54.5s26.833 33.5 41.5 48.5s27.667 27.5 39 37.5c3.33301 2.66699 10 8.5 20 17.5
s20.833 18.167 32.5 27.5s23 17.666 34 24.999s18.833 11 23.5 11s8.33398 -1.5 11.001 -4.5s4.66699 -6.66699 6 -11s2 -8.83301 2 -13.5v-11c0 -10.667 -1.33301 -22.667 -4 -36l-8.5 -41c-3 -14 -5.66699 -27.5 -8 -40.5s-3.5 -24.833 -3.5 -35.5
c0 -8 3.66699 -12 11 -12s13.166 0.5 17.499 1.5s8.5 2.33301 12.5 4s8 3.5 12 5.5s9.33301 4.33301 16 7l34 13.5c9.33301 3.66699 18.333 6.5 27 8.5s17.834 3.5 27.501 4.5s21.834 1.5 36.501 1.5c5.33301 0 11.833 -0.333008 19.5 -1s15.167 -2.16699 22.5 -4.5
s13.5 -5.66602 18.5 -9.99902s7.5 -10.166 7.5 -17.499c0 -17.333 -8.33301 -26 -25 -26h-8c-1.33301 0 -4 0.5 -8 1.5s-8.33301 2 -13 3s-9 2 -13 3s-6.66699 1.5 -8 1.5c-16.667 0 -38 -3.66699 -64 -11s-52 -16.833 -78 -28.5s-49.667 -25 -71 -40
s-35.333 -30.5 -42 -46.5l-67 -153c-2 -12.667 -5.16699 -25.334 -9.5 -38.001s-6.5 -25.334 -6.5 -38.001c0 -8.66699 0.666992 -17 2 -25s2 -16 2 -24c0 -4.66699 -1.33301 -10 -4 -16s-6.66699 -9 -12 -9c-9.33301 0 -16.666 3.16699 -21.999 9.5s-9.5 14 -12.5 23
s-5 18 -6 27s-1.5 16.5 -1.5 22.5zM134.998 295.004c0 -7.33301 2.33203 -11.168 6.99902 -11.501s9.66699 -0.5 15 -0.5c8 0 15.5 2.16699 22.5 6.5s12.833 9.83301 17.5 16.5s8.33398 14 11.001 22s4 16 4 24c0 2.66699 -0.166992 5.83398 -0.5 9.50098s-2.5 5.5 -6.5 5.5
c-6 0 -13 -2.5 -21 -7.5s-15.667 -11.333 -23 -19s-13.5 -15.667 -18.5 -24s-7.5 -15.5 -7.5 -21.5z" />
    <glyph glyph-name="five" unicode="5" horiz-adv-x="445" 
d="M-153 -16c0 9.33301 3.33398 17.333 10.001 24s14.834 12.334 24.501 17.001s19.5 8 29.5 10s18 3 24 3c4.66699 0 8.83398 -0.666992 12.501 -2s5.5 -4.33301 5.5 -9c0 -6 -2.16699 -10.333 -6.5 -13s-9.16602 -5.16699 -14.499 -7.5s-10.5 -4.83301 -15.5 -7.5
s-8.16699 -6.33398 -9.5 -11.001c-2 -6 -1.33301 -10.667 2 -14s8.33301 -5 15 -5c14 0 32.5 2.66699 55.5 8s47.333 13 73 23s51.667 21.833 78 35.5s50.166 28.5 71.499 44.5s38.666 33.333 51.999 52s20 37.667 20 57c0 15.333 -4.83301 25.666 -14.5 30.999
s-21.667 8.5 -36 9.5s-30 1.5 -47 1.5s-32.667 2 -47 6s-26.333 11.667 -36 23s-14.5 29 -14.5 53c0 5.33301 1.33301 12.5 4 21.5s6.16699 18 10.5 27s9.16602 17.333 14.499 25s10.666 12.834 15.999 15.501c19.333 -0.666992 37 -1.33398 53 -2.00098s31 0.333008 45 3
s27.333 7.5 40 14.5s25.667 17.833 39 32.5c7.33301 5.33301 12.833 5.66602 16.5 0.999023s5.5 -11 5.5 -19c0 -16.667 -4.66699 -28.667 -14 -36s-19.5 -12.833 -30.5 -16.5l-30.5 -10.5c-9.33301 -3.33301 -14 -9.33301 -14 -18v-7
c0 -1.33301 0.333008 -2.66602 1 -3.99902c3.33301 -11.333 8.33301 -20.666 15 -27.999s13.834 -13.666 21.501 -18.999s15.667 -10.333 24 -15s15.833 -10 22.5 -16s12.167 -13 16.5 -21s6.5 -18.333 6.5 -31c0 -22.667 -8.16699 -45.167 -24.5 -67.5
s-37.5 -43.5 -63.5 -63.5s-55.333 -38.5 -88 -55.5s-65 -31.833 -97 -44.5s-62.333 -22.5 -91 -29.5s-52.334 -10.5 -71.001 -10.5c-15.333 0 -29 3.16699 -41 9.5s-18 18.166 -18 35.499z" />
    <glyph glyph-name="six" unicode="6" horiz-adv-x="296" 
d="M10 73c0 16.667 2.50195 33.3311 7.50195 49.998s11.167 33 18.5 49s15.666 31.667 24.999 47l27 43c13.333 20.667 26.166 39.334 38.499 56.001s25.166 32.5 38.499 47.5s28 29.5 44 43.5s34.333 29 55 45c2.66699 2 5 3.16699 7 3.5s4.66699 0.5 8 0.5
c7.33301 0 11.166 -2.66699 11.499 -8s-1.5 -10 -5.5 -14l-57.5 -59c-17 -18 -32.833 -36.333 -47.5 -55s-28.667 -38.5 -42 -59.5s-26.333 -45.167 -39 -72.5l-5 -14c0 -4.66699 1.5 -7.66699 4.5 -9s6.16699 -2 9.5 -2c6 0 10 1.83301 12 5.5s3.33301 8 4 13
s1.5 10.333 2.5 16s3.5 10.834 7.5 15.501c1.33301 1.33301 4.83301 3 10.5 5s11.834 4 18.501 6s13 3.66699 19 5s10 2 12 2c20.667 0 36.5 -8 47.5 -24s16.5 -33.667 16.5 -53c0 -12 -2.16699 -22.833 -6.5 -32.5s-9.83301 -18.5 -16.5 -26.5s-14 -15.5 -22 -22.5
s-15.667 -14.167 -23 -21.5c-15.333 -19.333 -31.5 -34.833 -48.5 -46.5s-38.167 -17.5 -63.5 -17.5c-11.333 0 -21.166 2.33301 -29.499 7s-15.333 11 -21 19s-10 17 -13 27s-4.5 20.333 -4.5 31z" />
    <glyph glyph-name="seven" unicode="7" horiz-adv-x="316" 
d="M22 -84c0 17.333 2.99902 34.3311 8.99902 50.998l18 49c4.66699 14.667 9.66699 27.834 15 39.501s10.833 23 16.5 34l17 34c5.66699 11.667 11.5 24.5 17.5 38.5l32 74.5c10.667 25.667 16 52.167 16 79.5c0 6.66699 -0.666992 11.667 -2 15s-4.66602 8 -9.99902 14
c-0.666992 0 -2.83398 0.166992 -6.50098 0.5s-6.16699 0.5 -7.5 0.5c0.666992 0 -1.5 -0.5 -6.5 -1.5s-11.5 -2.5 -19.5 -4.5s-16.333 -4.33301 -25 -7s-16 -5.66699 -22 -9c-8 -4 -14.5 -8.5 -19.5 -13.5s-10 -9.66699 -15 -14s-10.167 -8 -15.5 -11
s-12.333 -4.5 -21 -4.5s-14 3.5 -16 10.5s-3 12.5 -3 16.5c0 6.66699 0.5 13.834 1.5 21.501s3 15 6 22s6.83301 12.833 11.5 17.5s11 7.33398 19 8.00098c1.33301 0 6.16602 -0.166992 14.499 -0.5s13.5 -0.166016 15.5 0.500977c17.333 5.33301 34 11.166 50 17.499
s32 12.166 48 17.499s32.5 9.83301 49.5 13.5s35.167 5.5 54.5 5.5c13.333 0 22 -2.83301 26 -8.5s6 -15.834 6 -30.501c0 -15.333 -12 -43.333 -36 -84l-47.5 -83c-14.333 -25.333 -27.666 -50.666 -39.999 -75.999s-24.166 -51.5 -35.499 -78.5s-23 -57.5 -35 -91.5
c-1.33301 -4.66699 -3.5 -11.667 -6.5 -21s-4.5 -14.666 -4.5 -15.999c0 -2 -0.166992 -5.33301 -0.5 -10s-0.5 -9.83398 -0.5 -15.501s0.166992 -11.167 0.5 -16.5s0.5 -9 0.5 -11c-3.33301 -10 -9.33301 -15 -18 -15c-10 0 -17.667 4.5 -23 13.5s-8 18.5 -8 28.5z" />
    <glyph glyph-name="eight" unicode="8" horiz-adv-x="384" 
d="M-31 42c0 1.33301 -0.166992 4.49902 -0.5 9.49902s-0.5 8.16699 -0.5 9.5c0 16 4.16699 29.667 12.5 41s18.833 21.666 31.5 30.999s26 18 40 26s26.667 16 38 24c3.33301 2.66699 7.83301 6.5 13.5 11.5s8.5 8.16699 8.5 9.5v21c-13.333 14.667 -24.333 27.667 -33 39
s-13 26.666 -13 45.999c0 14 5 28 15 42s22.333 26.667 37 38s30.5 20.5 47.5 27.5s32.5 10.5 46.5 10.5h2c2.66699 0 4 -1 4 -3v-2c0 -3.33301 -3.5 -6.5 -10.5 -9.5l-22.5 -9.5c-8 -3.33301 -15.5 -7 -22.5 -11s-10.5 -8.33301 -10.5 -13s2.66699 -7.16699 8 -7.5
s9.33301 -0.5 12 -0.5s6.33398 -0.166992 11.001 -0.5l13.5 -1c4.33301 -0.333008 8.16602 -0.666016 11.499 -0.999023s5.33301 -0.5 6 -0.5l72 -18c9.33301 -4 17.333 -9.83301 24 -17.5s10 -17.167 10 -28.5c0 -12.667 -4.33301 -23.5 -13 -32.5l-26 -26.5
c2 -7.33301 6.5 -14.833 13.5 -22.5l22 -23.5c7.66699 -8 14.5 -15.833 20.5 -23.5s9 -15.167 9 -22.5c0 -17.333 -7 -33.166 -21 -47.499s-30.833 -27.166 -50.5 -38.499s-39.5 -21 -59.5 -29l-47 -19c-20 -8 -40.5 -12.667 -61.5 -14s-42.5 -2 -64.5 -2
c-13.333 0 -28 2.83301 -44 8.5s-25.667 15.5 -29 29.5zM115 313.999c0 -8 2.99805 -15.333 8.99805 -22s13.333 -12.5 22 -17.5s17.667 -8.83301 27 -11.5s17.666 -4 24.999 -4c6 0 13.167 1 21.5 3s16.333 4.83301 24 8.5s14.167 8.16699 19.5 13.5s8 11.666 8 18.999
c0 8 -6.33301 14.667 -19 20s-27.167 9.5 -43.5 12.5s-32.166 5.16699 -47.499 6.5s-25.666 2 -30.999 2c-7.33301 0 -11.666 -3.66699 -12.999 -11s-2 -13.666 -2 -18.999zM28.998 72.999c0 -3.33301 1.99805 -6.33008 5.99805 -8.99707s8.66699 -4.83398 14 -6.50098
s10.666 -3 15.999 -4s9.66602 -1.5 12.999 -1.5h14.5c6.33301 0 12.666 0.5 18.999 1.5s12.166 2.66699 17.499 5s8.33301 6.16602 9 11.499c0.666992 6 0.333984 11.5 -0.999023 16.5s0.333984 10.167 5.00098 15.5c2.66699 3.33301 6.16699 6 10.5 8l12.5 6
c4 2 7.5 4.33301 10.5 7s4.5 6.33398 4.5 11.001c0 3.33301 -1.66699 5.83301 -5 7.5s-7.16602 3 -11.499 4s-8.66602 1.5 -12.999 1.5h-9.5c-6.66699 0 -16.167 -2.5 -28.5 -7.5s-24.666 -11.333 -36.999 -19s-23.166 -15.834 -32.499 -24.501s-14 -16.334 -14 -23.001z
" />
    <glyph glyph-name="nine" unicode="9" horiz-adv-x="297" 
d="M7 -23l0.000976562 5.99805c0 2.66699 0.666992 4.66699 2 6c1.33301 0 2.66602 0.333008 3.99902 1c1.33301 0 2.33301 0.166992 3 0.5s1.33398 0.5 2.00098 0.5c8 4 14.667 9.5 20 16.5s10.666 13.5 15.999 19.5c11.333 14.667 21.666 29.167 30.999 43.5
s17.333 29.166 24 44.499s12 31.833 16 49.5s6.33301 37.167 7 58.5c-10 0 -19.833 0.166992 -29.5 0.5s-18.334 2.33301 -26.001 6s-14 9.16699 -19 16.5s-7.83301 18 -8.5 32c-0.666992 18.667 3.83301 37.167 13.5 55.5s22.334 34.833 38.001 49.5s32.667 26.5 51 35.5
s36.166 13.5 53.499 13.5c18 0 33 -5.33301 45 -16s17.667 -25.667 17 -45c-0.666992 -15.333 -3.66699 -30.666 -9 -45.999s-13.666 -34.666 -24.999 -57.999c-18 -37.333 -36.167 -71.666 -54.5 -102.999s-39.166 -63.666 -62.499 -96.999l-13.5 -17.5l-22.5 -28.5
l-22.5 -28.5c-7 -9 -11.5 -14.5 -13.5 -16.5c-6 -7.33301 -13 -11 -21 -11c-3.33301 0 -6.83301 0.666992 -10.5 2s-5.5 4.66602 -5.5 9.99902zM124.001 327.998c-0.666992 -4 0.325195 -7.16211 2.99219 -9.49512s5.66699 -3.5 9 -3.5c2 0 4.16699 2 6.5 6
s5.33301 8.5 9 13.5s7.83398 9.5 12.501 13.5s10.334 6 17.001 6c5.33301 0 9.5 -1.83301 12.5 -5.5s7.16699 -5.5 12.5 -5.5c6.66699 0 10.834 2.5 12.501 7.5s2.5 10.167 2.5 15.5c-0.666992 9.33301 -4.66699 16.666 -12 21.999s-14.666 8 -21.999 8
c-4 0 -6.83301 -1.16699 -8.5 -3.5s-3 -5 -4 -8s-2.16699 -5.83301 -3.5 -8.5s-3 -4.33398 -5 -5.00098c-1.33301 -0.666992 -4.66602 -1.33398 -9.99902 -2.00098s-8.33301 -1.66699 -9 -3c-2 -0.666992 -5.16699 -3.33398 -9.5 -8.00098
s-7.16602 -8.33398 -8.49902 -11.001c-1.33301 -1.33301 -2.66602 -4.5 -3.99902 -9.5s-1.66602 -8.16699 -0.999023 -9.5z" />
    <glyph glyph-name="colon" unicode=":" horiz-adv-x="178" 
d="M44 172c-2 6.66699 -2.66504 14.332 -1.99805 22.999s3 17 7 25s10 14.5 18 19.5s18.667 6.83301 32 5.5c9.33301 -1.33301 17.166 -5.16602 23.499 -11.499s10.166 -12.5 11.499 -18.5c4.66699 -16 2.33398 -30.167 -6.99902 -42.5s-24 -18.833 -44 -19.5
c-10 -0.666992 -18.333 0 -25 2s-11.334 7.66699 -14.001 17zM46.002 9.99805c-2 6.66699 -2.66699 14.499 -2 23.499s3.16699 17.333 7.5 25s10.5 14 18.5 19s18.667 6.83301 32 5.5c9.33301 -0.666992 16.333 -4.66699 21 -12s7.66699 -14 9 -20
c4 -16 2.33301 -29.667 -5 -41s-21.333 -17.666 -42 -18.999c-9.33301 0 -17.5 0.833008 -24.5 2.5s-11.833 7.16699 -14.5 16.5z" />
    <glyph glyph-name="semicolon" unicode=";" horiz-adv-x="172" 
d="M44 172c-2 6.66699 -2.66504 14.332 -1.99805 22.999s3 17 7 25s10 14.5 18 19.5s18.667 6.83301 32 5.5c9.33301 -1.33301 17.166 -5.16602 23.499 -11.499s10.166 -12.5 11.499 -18.5c4.66699 -16 2.33398 -30.167 -6.99902 -42.5s-24 -18.833 -44 -19.5
c-10 -0.666992 -18.333 0 -25 2s-11.334 7.66699 -14.001 17zM72.002 -17.002c-8 2 -14.1689 5.50195 -18.502 10.502s-7.5 10.667 -9.5 17s-3 12.833 -3 19.5s0.333008 12.667 1 18c0.666992 4 2.66699 8 6 12s7.33301 7.83301 12 11.5s9.66699 6.5 15 8.5s10.333 3 15 3
c6 0 14 -2.66699 24 -8s16.667 -16.333 20 -33c2 -13.333 0.666992 -29.333 -4 -48s-11.167 -35.834 -19.5 -51.501s-17.666 -27.5 -27.999 -35.5s-19.833 -8 -28.5 0c-2 3.33301 -1.16699 6.66602 2.5 9.99902s7.33398 7.5 11.001 12.5s6.5 11.667 8.5 20
s0.666992 19.5 -4 33.5z" />
    <glyph glyph-name="less" unicode="&#x3c;" horiz-adv-x="400" 
d="M307 35c0 -5.33301 -2.49805 -11.332 -7.49805 -17.999s-10.5 -10 -16.5 -10c-7.33301 0 -13 1.5 -17 4.5s-7.33301 6.66699 -10 11l-8 13.5c-2.66699 4.66699 -6.33398 9 -11.001 13c-15.333 11.333 -34.333 20.166 -57 26.499s-44.5 13.5 -65.5 21.5
s-39 18.833 -54 32.5s-22.5 33.834 -22.5 60.501c0 15.333 5.5 30.5 16.5 45.5s25.167 29 42.5 42s36.833 25 58.5 36s43.167 20.667 64.5 29s41.5 14.666 60.5 18.999s34.833 6.5 47.5 6.5h7.5c3.66699 0 7.33398 -0.333008 11.001 -1s7 -1.83398 10 -3.50098
s4.5 -4.16699 4.5 -7.5c0 -6 -6.33301 -12.667 -19 -20s-28.667 -15 -48 -23l-62 -26c-22 -9.33301 -42.667 -19.333 -62 -30s-35.333 -22 -48 -34s-19 -24.667 -19 -38c0 -12 5 -21.667 15 -29s22.667 -13.666 38 -18.999s31.666 -10.333 48.999 -15
s33.666 -10.5 48.999 -17.5s28 -16 38 -27s15 -25.167 15 -42.5z" />
    <glyph glyph-name="equal" unicode="=" horiz-adv-x="400" 
d="M285 108l-78.501 -4c-26.333 -1.33301 -52.166 -2 -77.499 -2c-6.66699 0 -14.167 1 -22.5 3s-16.333 5.33301 -24 10s-14 10.167 -19 16.5s-7.5 14.166 -7.5 23.499c0 12 5.66699 18 17 18c8 0 15.833 -2.83301 23.5 -8.5s16.5 -8.16699 26.5 -7.5l178 5
c8 0 17.167 -1.66699 27.5 -5s15.5 -10.666 15.5 -21.999c0 -5.33301 -6 -11 -18 -17s-25.667 -9.33301 -41 -10zM114.999 282c25.333 -0.666992 51.1699 -2.1709 77.5029 -4.50391s52.166 -3.5 77.499 -3.5c6.66699 0 14.167 -0.166992 22.5 -0.5
s16.166 -1.66602 23.499 -3.99902s13.666 -6 18.999 -11s8 -11.833 8 -20.5c0 -12 -5.66699 -18 -17 -18c-8 0 -15.833 1.33301 -23.5 4s-16.5 4 -26.5 4c-29.333 -1.33301 -50.666 -2.16602 -63.999 -2.49902s-24.5 -0.666016 -33.5 -0.999023s-18.833 -0.5 -29.5 -0.5
s-27.667 -0.333008 -51 -1c-8.66699 -0.666992 -18 0.833008 -28 4.5s-15 11.167 -15 22.5c0 2 0.666992 4.83301 2 8.5s4.16602 7.33398 8.49902 11.001s10.5 6.66699 18.5 9s18.333 3.5 31 3.5z" />
    <glyph glyph-name="greater" unicode="&#x3e;" horiz-adv-x="400" 
d="M95 34c0 17.333 5.00195 31.3301 15.002 41.9971s22.333 19.334 37 26.001s30.667 12.334 48 17.001s33.333 9.66699 48 15s27 11.5 37 18.5s15 16.5 15 28.5c0 13.333 -6.33301 25.833 -19 37.5s-28.334 22.834 -47.001 33.501s-39 20.5 -61 29.5l-61 25.5
c-18.667 8 -34.334 15.5 -47.001 22.5s-19 13.5 -19 19.5c0 3.33301 1.5 5.83301 4.5 7.5s6.33301 2.66699 10 3s7.33398 0.5 11.001 0.5h7.5c12 0 27.5 -2.16699 46.5 -6.5s39 -10.5 60 -18.5s42 -17.333 63 -28s40 -22.5 57 -35.5s30.833 -26.667 41.5 -41
s16 -29.166 16 -44.499c0 -26 -7.33301 -45.833 -22 -59.5s-32.334 -24.5 -53.001 -32.5s-42.167 -15 -64.5 -21s-40.833 -14.667 -55.5 -26c-4.66699 -3.33301 -8.16699 -7.33301 -10.5 -12s-5 -9 -8 -13s-6.5 -7.5 -10.5 -10.5s-9.66699 -4.5 -17 -4.5
c-5.33301 0 -10.333 3.16699 -15 9.5s-7 12.166 -7 17.499z" />
    <glyph glyph-name="question" unicode="?" horiz-adv-x="352" 
d="M69 109c0 20 4.83691 40.166 14.5039 60.499s21 40.5 34 60.5s26.5 39.5 40.5 58.5s25.667 36.833 35 53.5l18.5 32.5c6.33301 11 9.5 22.833 9.5 35.5c0 3.33301 -1 6.5 -3 9.5s-5 4.5 -9 4.5h-4c-2.66699 -2 -8.33398 -6 -17.001 -12s-14.667 -9.66699 -18 -11
c-7.33301 -5.33301 -12.666 -12 -15.999 -20s-6.83301 -15.833 -10.5 -23.5s-8.66699 -14.167 -15 -19.5s-15.5 -8 -27.5 -8c-18 0 -32.833 6.16699 -44.5 18.5s-17.5 27.166 -17.5 44.499c0 20.667 7.66699 42.667 23 66s34.166 44.833 56.499 64.5
s46.166 35.834 71.499 48.501s48 19 68 19c11.333 0 21.166 -2.66699 29.499 -8s15.333 -12.333 21 -21s10 -18.167 13 -28.5s4.5 -20.5 4.5 -30.5c0 -13.333 -2.66699 -25.666 -8 -36.999l-16 -34c-8.66699 -17.333 -17 -33 -25 -47s-17.667 -29.667 -29 -47
c-0.666992 -1.33301 -2.83398 -4.16602 -6.50098 -8.49902l-11.5 -14c-4 -5 -7.66699 -9.83301 -11 -14.5s-5.33301 -7.66699 -6 -9l-25 -35c-10 -14 -19.833 -28.667 -29.5 -44s-17.834 -30.166 -24.501 -44.499s-10 -26.5 -10 -36.5c0 -4.66699 1.83301 -8 5.5 -10
s7.66699 -3.83301 12 -5.5s8.33301 -3.83398 12 -6.50098s5.5 -7.33398 5.5 -14.001c0 -6 -2 -10.667 -6 -14s-8.83301 -5.83301 -14.5 -7.5s-11.667 -2.66699 -18 -3s-11.5 -0.5 -15.5 -0.5c-11.333 0 -20.166 3.83301 -26.499 11.5s-9.5 16.5 -9.5 26.5zM131.004 28.999
c0 5.33301 2.66602 10.502 7.99902 15.502s10.666 7.5 15.999 7.5c2.66699 0 5.5 -1.16699 8.5 -3.5s5.83301 -5.33301 8.5 -9s4.83398 -7.33398 6.50098 -11.001s2.5 -6.83398 2.5 -9.50098c0 -8.66699 -3.5 -14 -10.5 -16s-15.167 -3 -24.5 -3
c-5.33301 0 -9.16602 3.5 -11.499 10.5s-3.5 13.167 -3.5 18.5z" />
    <glyph glyph-name="at" unicode="@" horiz-adv-x="713" 
d="M25 99c0 31.333 10.832 62 32.499 92s50 58.167 85 84.5s74 50.5 117 72.5s85.667 40.833 128 56.5s82.333 27.834 120 36.501s68.167 13 91.5 13c17.333 0 32.5 -3.5 45.5 -10.5s23.667 -16.167 32 -27.5s14.666 -24.333 18.999 -39s6.5 -30 6.5 -46
c0 -34 -8 -62.333 -24 -85s-38.667 -41.667 -68 -57l-55.5 -29c-18.333 -9.33301 -38.166 -14 -59.499 -14c-8 0 -15.667 0.166992 -23 0.5s-14.666 1.83301 -21.999 4.5c-1.33301 0 -4 1.16699 -8 3.5s-6.66699 3.5 -8 3.5c-14 6 -27.5 9.5 -40.5 10.5
s-24.833 2.66699 -35.5 5s-19.167 7.16602 -25.5 14.499s-9.5 20.666 -9.5 39.999c0 15.333 4 28 12 38s18 18 30 24s25 10.167 39 12.5s27.333 3.5 40 3.5c12 0 24.333 -0.333008 37 -1s25 -3 37 -7c6.66699 -2 15.5 -5.16699 26.5 -9.5s20.5 -6.5 28.5 -6.5
c20.667 0 37 6.16699 49 18.5s18 28.5 18 48.5c0 9.33301 -2.5 17.333 -7.5 24s-11.167 12.167 -18.5 16.5s-15.5 7.5 -24.5 9.5s-17.5 3 -25.5 3c-20 0 -46 -3.16699 -78 -9.5s-66.167 -15.333 -102.5 -27s-72.833 -25.834 -109.5 -42.501s-69.834 -35 -99.501 -55
s-53.834 -41.5 -72.501 -64.5s-28 -47.167 -28 -72.5s6.16699 -47.166 18.5 -65.499s28 -33.333 47 -45s39.833 -20.167 62.5 -25.5s44.334 -8 65.001 -8c32 0 63.667 2 95 6s63 8.66699 95 14c8 1.33301 16.333 4.33301 25 9s17 7 25 7c3.33301 0 5.33301 -1 6 -3
s1 -4.66699 1 -8c0 -6.66699 -3.66699 -12.667 -11 -18s-13.666 -8.66602 -18.999 -9.99902c-40 -8.66699 -79.5 -16 -118.5 -22s-78.5 -9 -118.5 -9c-24 0 -49 2 -75 6s-50 11.333 -72 22s-40 25.5 -54 44.5s-21 43.5 -21 73.5z" />
    <glyph glyph-name="A" unicode="A" horiz-adv-x="546" 
d="M-95 -187c0 6 3.16113 10.6719 9.49414 14.0049s11.166 6.66602 14.499 9.99902c28.667 32 55.667 65.833 81 101.5l77 105.5l65 88.5c22 31 41.667 63.5 59 97.5c12 22.667 21.167 42 27.5 58s11.666 31.333 15.999 46s8.33301 30.167 12 46.5l13.5 60.5
c2.66699 11.333 4.33398 22.5 5.00098 33.5s2 21.167 4 30.5s5.33301 18.166 10 26.499s12 15.5 22 21.5c0.666992 0 2.33398 0.5 5.00098 1.5s4.66699 1.5 6 1.5h2c11.333 0 22.666 -4.83301 33.999 -14.5s18.666 -21.167 21.999 -34.5v-87
c0 -0.666992 -0.166992 -3.66699 -0.5 -9s-0.666016 -11.333 -0.999023 -18s-0.666016 -12.667 -0.999023 -18s-0.5 -8.33301 -0.5 -9c0 -1.33301 0.5 -4.33301 1.5 -9s1.5 -7.33398 1.5 -8.00098s-0.166992 -2.66699 -0.5 -6l-1 -10l-1 -10
c-0.333008 -3.33301 -0.5 -5.33301 -0.5 -6c-0.666992 -1.33301 -1 -3.33301 -1 -6v-6c0 -5.33301 0.333008 -9 1 -11s3.33398 -3 8.00098 -3c3.33301 0 5.83301 0.166992 7.5 0.5s4.5 1.5 8.5 3.5l120 67c16 8 33.833 15.667 53.5 23s38.5 11 56.5 11
c13.333 0 23.666 -2.5 30.999 -7.5s11 -16.167 11 -33.5c0 -14 -2.66699 -26.667 -8 -38s-12 -21.666 -20 -30.999s-16.667 -18.333 -26 -27s-17.666 -17.334 -24.999 -26.001c-2 -2 -5.5 -6 -10.5 -12l-16 -18.5c-5.66699 -6.33301 -10.834 -12.5 -15.501 -18.5l-10 -13
c-2 -2.66699 -4 -6.66699 -6 -12s-4.16699 -10.833 -6.5 -16.5s-5 -10.5 -8 -14.5s-6.83301 -6 -11.5 -6c-6.66699 0 -11.667 2.66699 -15 8s-5 11.666 -5 18.999c0 14.667 5.33301 30.167 16 46.5s23.334 32.333 38.001 48s29.334 30.5 44.001 44.5s25.667 26 33 36
c2.66699 4.66699 4 9.66699 4 15v6c0 2.66699 -1.33301 4 -4 4h-34c-1.33301 0 -4.66602 -1 -9.99902 -3s-11.5 -4.16699 -18.5 -6.5s-14 -5 -21 -8s-12.5 -5.5 -16.5 -7.5c-2 -1.33301 -6.83301 -3.83301 -14.5 -7.5l-25 -12.5c-9 -4.66699 -17.5 -9.33398 -25.5 -14.001
s-14 -8.33398 -18 -11.001c-13.333 -8 -26.333 -17.667 -39 -29s-19 -27 -19 -47c0 -8 0.5 -18.5 1.5 -31.5s2.83301 -26.333 5.5 -40s6 -26.334 10 -38.001s8.66699 -19.834 14 -24.501c4 -3.33301 8.83301 -6.16602 14.5 -8.49902s11.334 -4.83301 17.001 -7.5
s10.5 -6.16699 14.5 -10.5s6 -9.83301 6 -16.5c0 -18.667 -7.66699 -28 -23 -28c-13.333 0 -25.5 3.83301 -36.5 11.5s-21 17.5 -30 29.5s-17 25 -24 39s-12.833 27.333 -17.5 40c-1.33301 3.33301 -2.5 8.83301 -3.5 16.5s-2.33301 15.5 -4 23.5s-3.66699 15 -6 21
s-5.5 9 -9.5 9c-5.33301 0 -8.5 -0.833008 -9.5 -2.5s-5.16699 -4.83398 -12.5 -9.50098c-24.667 -16.667 -49 -35.667 -73 -57s-46.667 -43.666 -68 -66.999l-24 -29l-10 -10c-5.33301 -5.33301 -8.66602 -9 -9.99902 -11l-135 -169c-8 -10 -16.833 -18 -26.5 -24
s-20.167 -9 -31.5 -9h-11c-1.33301 2.66699 -2.16602 4.83398 -2.49902 6.50098s-0.5 3.83398 -0.5 6.50098z" />
    <glyph glyph-name="B" unicode="B" horiz-adv-x="627" 
d="M-207 -259c0 10 2.33008 19.666 6.99707 28.999s10.5 18.166 17.5 26.499s14.333 16 22 23l20.5 18.5c2.66699 2.66699 6.83398 6.33398 12.501 11.001l17.5 14l16.5 12.5c5 3.66699 8.16699 6.16699 9.5 7.5c4 2.66699 11.5 7.33398 22.5 14.001l35 20.5l35 20
c11 6.33301 18.833 10.5 23.5 12.5c6 1.33301 16.333 5.16602 31 11.499s30.167 13.5 46.5 21.5s31.166 15.833 44.499 23.5s21.666 13.167 24.999 16.5c6.66699 8.66699 10.667 18.834 12 30.501s2.66602 22.167 3.99902 31.5l21.5 114.5c7 38.333 10.5 76.833 10.5 115.5
c0 16 -3 28 -9 36s-12.5 14.833 -19.5 20.5s-13.333 11.667 -19 18s-8.5 15.833 -8.5 28.5c0 4 2.66699 8 8 12s11.333 7.83301 18 11.5s13 7.5 19 11.5s9.66699 8.33301 11 13c2.66699 8 4.5 17.167 5.5 27.5s2.83301 19.833 5.5 28.5s7 16 13 22s15.333 9 28 9
c8 0 14.667 -1.66699 20 -5s10 -7.33301 14 -12s7.83301 -9.5 11.5 -14.5s8.16699 -9.5 13.5 -13.5c8.66699 0 20.334 -0.5 35.001 -1.5s28.834 -3.66699 42.501 -8s25.5 -10.833 35.5 -19.5s15 -20.667 15 -36c0 -8.66699 -1.33301 -17 -4 -25s-5.5 -15.5 -8.5 -22.5
s-5.66699 -13.833 -8 -20.5s-3.5 -13 -3.5 -19c0 -3.33301 5 -6 15 -8l37.5 -7.5c15 -3 31.333 -7 49 -12s34 -11.667 49 -20s27.5 -19 37.5 -32s15 -29.167 15 -48.5c0 -13.333 -2.66699 -24.666 -8 -33.999s-12 -17.5 -20 -24.5s-16.667 -13.333 -26 -19
s-18 -11.834 -26 -18.501l-159 -71c-13.333 -2.66699 -23.666 -6 -30.999 -10s-16.666 -7.66699 -27.999 -11c-16.667 -4.66699 -32.334 -8 -47.001 -10s-29.667 -8.33301 -45 -19c-4 -3.33301 -8.16699 -9.33301 -12.5 -18s-8.16602 -18 -11.499 -28s-6.5 -20 -9.5 -30
l-6.5 -22l-24 -87c-1.33301 -5.33301 -4.16602 -10.333 -8.49902 -15s-9.5 -7 -15.5 -7c-4.66699 0 -8.5 0.666992 -11.5 2s-5.83301 5 -8.5 11c0 1.33301 -0.166992 4.5 -0.5 9.5s-0.5 8.16699 -0.5 9.5c0 19.333 3 38.666 9 57.999s9 38.666 9 57.999
c0 6 -0.666992 9.83301 -2 11.5s-4.66602 2.5 -9.99902 2.5c-9.33301 0 -22.666 -3.33301 -39.999 -10s-36 -15.5 -56 -26.5s-40.5 -23.5 -61.5 -37.5s-40 -28.167 -57 -42.5s-30.833 -28.333 -41.5 -42s-16 -25.5 -16 -35.5c0 -7.33301 3.16699 -14.666 9.5 -21.999
s13.166 -11 20.499 -11h2c6 0 13.667 0.166992 23 0.5l27.5 1c9 0.333008 16.833 0.833008 23.5 1.5l10 1c0.666992 0 3 0.333008 7 1s8.16699 1.5 12.5 2.5l12.5 3c4 1 6.33301 1.5 7 1.5h9c6.66699 0 12.834 -1.33301 18.501 -4s8.5 -8 8.5 -16
c0 -12 -8.33301 -22.333 -25 -31s-35.834 -15.667 -57.501 -21s-43.334 -9.16602 -65.001 -11.499s-37.5 -3.5 -47.5 -3.5c-22 0 -41.333 6.83301 -58 20.5s-25 32.5 -25 56.5zM262.997 47.999c10 0 19.333 1.66797 28 5.00098l25 11l38.5 17l38.5 17.5
c12 5.66699 20.333 9.5 25 11.5l92 54c4.66699 2.66699 10 6 16 10s11.667 8.5 17 13.5s9.83301 10.5 13.5 16.5s5.5 12.667 5.5 20c0 8.66699 -3.33301 15.334 -10 20.001s-14.5 8.16699 -23.5 10.5s-18.167 3.66602 -27.5 3.99902s-16.666 0.5 -21.999 0.5
c-18 0 -35 -2.33301 -51 -7s-32.667 -9 -50 -13c-1.33301 0 -3.83301 -0.5 -7.5 -1.5s-7.83398 -2 -12.501 -3s-9 -1.83301 -13 -2.5s-6.33301 -1.33398 -7 -2.00098c-6 -2.66699 -12.833 -9.16699 -20.5 -19.5s-12.5 -18.833 -14.5 -25.5l-40 -124v-13zM353.997 423
c0 -6 3.33301 -12 10 -18s13 -9 19 -9c6.66699 0 13 2.33301 19 7s9 10.667 9 18c0 5.33301 -2 9.83301 -6 13.5s-9 5.83398 -15 6.50098c-1.33301 0 -4 -0.333008 -8 -1s-8 -1.66699 -12 -3s-7.66699 -3.33301 -11 -6s-5 -5.33398 -5 -8.00098z" />
    <glyph glyph-name="C" unicode="C" horiz-adv-x="591" 
d="M31 191c0 34.667 8.50586 68.4971 25.5059 101.497s38.667 63.333 65 91s55.166 52.334 86.499 74.001s61 38.5 89 50.5c2 0.666992 4.33301 2 7 4s5.5 4 8.5 6s6.16699 3.5 9.5 4.5s6 1.16699 8 0.5l101 40c6.66699 2.66699 12.334 6.66699 17.001 12
s8.83398 10.666 12.501 15.999s7.33398 10 11.001 14s8.5 6 14.5 6c8 0 13 -1.83301 15 -5.5s5.66699 -8.16699 11 -13.5l54 -55c14.667 -23.333 22 -48.333 22 -75c0 -11.333 -2.66699 -22.166 -8 -32.499s-12.333 -19.666 -21 -27.999s-18.5 -15 -29.5 -20
s-21.833 -7.5 -32.5 -7.5c-10 0 -20.333 1.16699 -31 3.5s-21 3.5 -31 3.5c-9.33301 0 -19.166 -1.83301 -29.499 -5.5s-20.166 -5.5 -29.499 -5.5c-10.667 0 -21.334 0.833008 -32.001 2.5s-21.334 4.5 -32.001 8.5l-19 7c-0.666992 0.666992 -1.83398 1.5 -3.50098 2.5
s-2.83398 1.5 -3.50098 1.5c-8.66699 0 -15.834 -2 -21.501 -6s-11.834 -8 -18.501 -12c-5.33301 -3.33301 -11.5 -6.16602 -18.5 -8.49902s-13.167 -5.5 -18.5 -9.5l-39.5 -34c-14.333 -12.667 -27.5 -26.334 -39.5 -41.001s-21.667 -30.167 -29 -46.5
s-10.333 -33.166 -9 -50.499c1.33301 -12 3.83301 -21.667 7.5 -29s8.5 -16 14.5 -26c16.667 -27.333 40.167 -49.166 70.5 -65.499s63.166 -29 98.499 -38s70.666 -15.667 105.999 -20s66.333 -7.83301 93 -10.5c2 0 4.66699 -0.166992 8 -0.5
s6.66602 -0.833008 9.99902 -1.5s6.16602 -1.83398 8.49902 -3.50098s3.5 -4.16699 3.5 -7.5c0 -4 -1 -6.83301 -3 -8.5s-4.66699 -3.16699 -8 -4.5h-52c-4 0 -11.5 0.5 -22.5 1.5s-22.667 2.16699 -35 3.5s-24 2.5 -35 3.5s-18.833 1.83301 -23.5 2.5
c-27.333 3.33301 -58.333 9.5 -93 18.5s-67.5 22 -98.5 39s-57.167 38 -78.5 63s-32 55.167 -32 90.5z" />
    <glyph glyph-name="D" unicode="D" horiz-adv-x="739" 
d="M-282 -288c0 1.33301 0.49707 6.16211 1.49707 14.4951s2.16699 14.166 3.5 17.499c2 11.333 9.16699 22.5 21.5 33.5s27.5 21.667 45.5 32s37.833 20.333 59.5 30s43 18.5 64 26.5l59.5 22c18.667 6.66699 34 12.334 46 17.001c2 0.666992 7.16699 3 15.5 7
s17.333 8 27 12l27.5 11.5c8.66699 3.66699 14 5.83398 16 6.50098c8.66699 3.33301 20.5 7.33301 35.5 12l46 15c15.667 5.33301 30 11.333 43 18s22.167 13.667 27.5 21c0.666992 5.33301 2 14.5 4 27.5l6 41l5.5 40.5l3.5 27v59c0 23.333 -1.16699 43.833 -3.5 61.5
s-4.5 37.5 -6.5 59.5c-3.33301 26 -7.66602 48.167 -12.999 66.5s-13.666 33.333 -24.999 45s-26.166 20.334 -44.499 26.001s-41.833 9.16699 -70.5 10.5c-2 0 -6.5 -0.166992 -13.5 -0.5s-14.5 -0.666016 -22.5 -0.999023s-15.5 -0.833008 -22.5 -1.5s-11.5 -1 -13.5 -1
h-3c-12.667 0 -19 5 -19 15v7c0 2 1.66699 3.66699 5 5c26 5.33301 51.833 9.16602 77.5 11.499s52.167 2.83301 79.5 1.5c10.667 6 20 14.333 28 25l24 31.5c8 10.333 16.833 19.333 26.5 27s21.5 11.5 35.5 11.5c24 0 44.167 -6.66699 60.5 -20s28.5 -30.666 36.5 -51.999
c2.66699 -8 4.5 -14.167 5.5 -18.5s2 -8 3 -11s2.83301 -6 5.5 -9s7 -6.83301 13 -11.5c5.33301 -4 11.833 -7.5 19.5 -10.5s15.667 -5.83301 24 -8.5s16.166 -5 23.499 -7s13.333 -4 18 -6c18.667 -6 41.334 -15.333 68.001 -28s52.334 -27.5 77.001 -44.5
s45.834 -35.667 63.501 -56s27.5 -41.5 29.5 -63.5c1.33301 -18 -2 -34.833 -10 -50.5s-18.5 -30 -31.5 -43s-27 -24.5 -42 -34.5s-28.833 -18.667 -41.5 -26c-46 -21.333 -92.667 -41.5 -140 -60.5s-95.333 -36.167 -144 -51.5
c-9.33301 -7.33301 -15.833 -18.666 -19.5 -33.999l-11 -46.5c-3.66699 -15.667 -9.16699 -29.5 -16.5 -41.5s-19.333 -18 -36 -18c-4 0 -7.5 1.16699 -10.5 3.5s-4.5 5.83301 -4.5 10.5v5c0 0.666992 0.833008 3.66699 2.5 9l5.5 17c2 6 4 11.667 6 17s3 9 3 11l1 1v2
c0 4.66699 -1.16699 9 -3.5 13s-5.83301 6 -10.5 6c-11.333 0 -22 -2 -32 -6s-20.333 -7.66699 -31 -11c-0.666992 -1.33301 -3.5 -2.5 -8.5 -3.5s-7.83301 -1.5 -8.5 -1.5c-3.33301 -1.33301 -9 -3.16602 -17 -5.49902s-16.167 -5 -24.5 -8l-24 -8.5
c-7.66699 -2.66699 -12.834 -4.33398 -15.501 -5.00098c-14.667 -5.33301 -28.5 -11.333 -41.5 -18s-26.167 -12.667 -39.5 -18l-31.5 -11.5l-45.5 -17.5c-16.667 -6.66699 -33.834 -14.167 -51.501 -22.5s-33.667 -17.166 -48 -26.499s-26 -19.166 -35 -29.499
s-13.5 -21.166 -13.5 -32.499c0 -14.667 5.16699 -24.834 15.5 -30.501s21.5 -9.5 33.5 -11.5s23.167 -3.33301 33.5 -4s15.5 -3.33398 15.5 -8.00098s-2 -8.5 -6 -11.5s-8.83301 -5.16699 -14.5 -6.5s-11.5 -2.33301 -17.5 -3s-10.667 -1 -14 -1
c-6.66699 0 -15.667 1.83301 -27 5.5s-22.333 8.66699 -33 15s-20 13.5 -28 21.5s-12 16.333 -12 25zM386.997 313.996c-0.666992 -6 -2.16895 -16.335 -4.50195 -31.002s-5 -30.5 -8 -47.5l-8.5 -47.5c-2.66699 -14.667 -4.66699 -25 -6 -31
c-4 -20 -9.66699 -41.333 -17 -64s-11 -44.667 -11 -66h6l9 3l12.5 4c4.33301 1.33301 8.33301 2.66602 12 3.99902s6.16699 2 7.5 2c2.66699 0.666992 9.33398 3.33398 20.001 8.00098l34 14.5l34 14.5c10.667 4.66699 17.334 7.66699 20.001 9
c11.333 4.66699 28.333 12.334 51 23.001s45.5 23 68.5 37s43.167 29 60.5 45s26 31.667 26 47c0 18 -7.5 34 -22.5 48s-33 25.833 -54 35.5s-42.5 17 -64.5 22s-39.667 7.5 -53 7.5c-10 0 -20.5 -0.166992 -31.5 -0.5s-21.5 -1.66602 -31.5 -3.99902s-19.333 -6 -28 -11
s-15.667 -12.167 -21 -21.5z" />
    <glyph glyph-name="E" unicode="E" horiz-adv-x="728" 
d="M40 234c0 20.667 3.6709 39.6621 11.0039 56.9951s12.333 36 15 56l28 78c8.66699 25.333 19.5 48.166 32.5 68.499s29.167 37.333 48.5 51s44.666 22.167 75.999 25.5h145l71 -9c0.666992 0 3 -0.333008 7 -1s8.5 -1.5 13.5 -2.5s9.83301 -1.83301 14.5 -2.5
s8 -1.33398 10 -2.00098l15 -2.5c6 -1 12 -2.5 18 -4.5s11 -4.66699 15 -8s6 -7.66602 6 -12.999s-1 -9.66602 -3 -12.999s-5.66699 -5 -11 -5s-11.5 1 -18.5 3s-14 4.16699 -21 6.5l-20.5 7c-6.66699 2.33301 -12.334 3.83301 -17.001 4.5
c-3.33301 0.666992 -8.5 1.5 -15.5 2.5s-14 1.83301 -21 2.5s-13.333 1.33398 -19 2.00098s-9.5 1 -11.5 1h-7c-4.66699 0 -10.167 0.166992 -16.5 0.5s-12.666 0.5 -18.999 0.5h-15.5c-24 0 -46 -0.666992 -66 -2s-41.667 -5 -65 -11
c-4.66699 -9.33301 -11.334 -17.5 -20.001 -24.5s-15.667 -15.167 -21 -24.5s-10 -20.333 -14 -33s-7.5 -25.834 -10.5 -39.501s-5.33301 -27.167 -7 -40.5s-2.5 -25.333 -2.5 -36c0 -6 0.166992 -11.5 0.5 -16.5s3.16602 -10.167 8.49902 -15.5
c2.66699 -1.33301 8.16699 -2.5 16.5 -3.5s13.833 -1.5 16.5 -1.5h8c8 1.33301 21.833 3 41.5 5l63.5 6.5c22.667 2.33301 44 4.33301 64 6s34 2.5 42 2.5c1.33301 0.666992 5.83301 1.16699 13.5 1.5s16.5 0.5 26.5 0.5h30.5h24.5h18.5h28.5c10 0 19.5 -0.166992 28.5 -0.5
s15.5 -0.833008 19.5 -1.5c2.66699 0 8 -0.666992 16 -2l25 -4c8.66699 -1.33301 16.834 -2.5 24.501 -3.5s13.167 -1.83301 16.5 -2.5c9.33301 -1.33301 18.833 -3.66602 28.5 -6.99902s15.167 -10.333 16.5 -21c0.666992 -2.66699 -0.833008 -6 -4.5 -10
s-6.16699 -6.33301 -7.5 -7h-14c-10 0 -19.333 1 -28 3s-18 3.66699 -28 5c-10.667 0.666992 -19.667 1.33398 -27 2.00098s-14.333 1.16699 -21 1.5s-13.5 0.5 -20.5 0.5h-24.5c-8.66699 0 -22.667 -0.666992 -42 -2s-40.833 -3.5 -64.5 -6.5s-48 -7.16699 -73 -12.5
s-47.833 -11.666 -68.5 -18.999s-37.667 -16.166 -51 -26.499s-20 -22.166 -20 -35.499c0 -6 1.16699 -12.333 3.5 -19s5.5 -13 9.5 -19s8.83301 -11 14.5 -15s11.5 -6 17.5 -6h47c44 0 87.833 2.16699 131.5 6.5s87.5 6.5 131.5 6.5h25.5
c7.66699 0 15.167 -0.166992 22.5 -0.5s15 -0.833008 23 -1.5s17.333 -1.33398 28 -2.00098c7.33301 -2.66699 12.5 -5.83398 15.5 -9.50098s4.5 -9.16699 4.5 -16.5s-3.33301 -13.666 -10 -18.999s-13 -9.66602 -19 -12.999c-40 0.666992 -80.5 0.5 -121.5 -0.5
s-81.5 -4.83301 -121.5 -11.5c-42.667 -7.33301 -85.334 -16.166 -128.001 -26.499s-86 -15.5 -130 -15.5c-31.333 0 -55.833 7.5 -73.5 22.5s-30.834 34 -39.501 57s-14 48.167 -16 75.5s-3 53.666 -3 78.999z" />
    <glyph glyph-name="F" unicode="F" horiz-adv-x="581" 
d="M164 -34c0 29.333 1.33594 58.3311 4.00293 86.998s4 57.667 4 87v20c-7.33301 6.66699 -14.333 10.167 -21 10.5s-14 0.5 -22 0.5c-17.333 0 -34.5 -1.33301 -51.5 -4s-34.167 -4 -51.5 -4h-25c-5.33301 5.33301 -8 10.666 -8 15.999c0 8.66699 9 14.834 27 18.501
s38.333 7.5 61 11.5s44.167 9.5 64.5 16.5s33.166 18.167 38.499 33.5c2 6.66699 3.33301 14.334 4 23.001s1.16699 17.667 1.5 27s0.5 18.166 0.5 26.499s0.333008 15.5 1 21.5l3.5 24.5c1.66699 11.667 3.5 23.834 5.5 36.501l6 36.5c2 11.667 3.66699 19.834 5 24.501
c10 40 27.167 67.167 51.5 81.5s55.5 21.5 93.5 21.5h41c18.667 -4.66699 38.167 -12.834 58.5 -24.501s38.833 -25.667 55.5 -42s30.334 -34.333 41.001 -54s16 -39.834 16 -60.501c0 -28 -8.16699 -50.667 -24.5 -68s-38.5 -26 -66.5 -26c-9.33301 0 -18.5 2 -27.5 6
s-17.833 8.83301 -26.5 14.5s-17 11.834 -25 18.501s-15 13 -21 19c-2 2 -5.5 5.16699 -10.5 9.5l-16 14.5l-16 15.5l-10.5 10.5c-2 2 -4 3.16699 -6 3.5s-4.66699 0.5 -8 0.5c-14.667 0 -27.334 -6.5 -38.001 -19.5s-19.5 -28.167 -26.5 -45.5
s-12.167 -34.666 -15.5 -51.999s-5 -30.666 -5 -39.999v-15c2.66699 -6 5.33398 -9.33301 8.00098 -10s6 -1 10 -1c24 0 47.667 2.5 71 7.5s46.666 7.5 69.999 7.5c11.333 0 24.5 -0.333008 39.5 -1s29.167 -3 42.5 -7s24.666 -10.333 33.999 -19s14 -21.334 14 -38.001
c0 -5.33301 -1.83301 -9.33301 -5.5 -12s-7.83398 -4 -12.501 -4c-9.33301 0 -18 3.16699 -26 9.5s-16 11.166 -24 14.499s-16.5 4.83301 -25.5 4.5s-17.5 -0.5 -25.5 -0.5c-3.33301 0 -9.66602 -0.166992 -18.999 -0.5s-15.333 -0.5 -18 -0.5
c-14 -5.33301 -29.333 -10 -46 -14s-31.667 -10.667 -45 -20c-28 -20 -45.833 -44.833 -53.5 -74.5s-11.5 -60.5 -11.5 -92.5c0 -58.667 7.66699 -115.167 23 -169.5s34.333 -108.166 57 -161.499l16 -30c3.33301 -5.33301 7.5 -10.166 12.5 -14.499s7.5 -9.5 7.5 -15.5
c0 -3.33301 -0.5 -6.5 -1.5 -9.5s-3.5 -5.16699 -7.5 -6.5c-4.66699 -1.33301 -10 0.666992 -16 6s-12 11.666 -18 18.999s-11.5 14.833 -16.5 22.5s-8.5 13.5 -10.5 17.5c-24.667 49.333 -44.834 99.5 -60.501 150.5s-23.5 104.833 -23.5 161.5z" />
    <glyph glyph-name="G" unicode="G" horiz-adv-x="662" 
d="M24 206c0 26.667 4.6582 54.9951 13.9912 84.9951s22.333 59.833 39 89.5s36.167 58.167 58.5 85.5s46.5 51.5 72.5 72.5s53.333 37.667 82 50s57.334 18.5 86.001 18.5c16.667 0 29.334 -4 38.001 -12s19 -18.333 31 -31c2 -2.66699 3.16699 -4.83398 3.5 -6.50098
s0.5 -4.16699 0.5 -7.5c0 -10 -2.16699 -19.5 -6.5 -28.5s-9.66602 -17.5 -15.999 -25.5s-13.166 -15.5 -20.499 -22.5l-20 -19.5c-2.66699 -2.66699 -5.16699 -4.16699 -7.5 -4.5s-4.83301 -0.5 -7.5 -0.5c-5.33301 0 -8.5 1 -9.5 3s-1.5 5.33301 -1.5 10
c0 8 2.5 14.833 7.5 20.5s10.333 11.167 16 16.5s11 10.833 16 16.5s7.5 12.834 7.5 21.501c0 9.33301 -3.5 16.333 -10.5 21s-14.833 7 -23.5 7c-16 0 -31 -3.16699 -45 -9.5s-27.5 -14.333 -40.5 -24s-25 -20.334 -36 -32.001l-31.5 -33.5
c-35.333 -38 -63.166 -81.5 -83.499 -130.5s-30.5 -99.167 -30.5 -150.5c0 -17.333 3.66699 -32.666 11 -45.999s17 -24.666 29 -33.999s25.667 -16.5 41 -21.5s31 -7.5 47 -7.5c13.333 0 28.5 2.16699 45.5 6.5s33.167 10.833 48.5 19.5s28.833 19 40.5 31
s18.834 26 21.501 42c-8 4 -16.167 8.5 -24.5 13.5s-16.166 10.5 -23.499 16.5s-13.333 13 -18 21s-7 17 -7 27c0 18 8.16699 33 24.5 45s35.5 21.833 57.5 29.5s44.333 13 67 16s40.334 4.5 53.001 4.5c7.33301 0 15.833 -0.666992 25.5 -2s16.167 -6.33301 19.5 -15v-2
c0 -6 -2.83301 -11.5 -8.5 -16.5s-11.167 -7.5 -16.5 -7.5s-9.66602 1.33301 -12.999 4s-6.33301 5.66699 -9 9c-1.33301 0 -4.16602 0.166992 -8.49902 0.5s-7.16602 0.5 -8.49902 0.5c-6.66699 0 -16 -1.5 -28 -4.5s-23.667 -7 -35 -12s-21.333 -11 -30 -18
s-13 -14.833 -13 -23.5c0 -9.33301 6.33301 -16.333 19 -21s28.667 -8.33398 48 -11.001s40.166 -5 62.499 -7s43.166 -4.83301 62.499 -8.5s35.333 -8.66699 48 -15s19 -15.5 19 -27.5c0 -5.33301 -0.333008 -11.166 -1 -17.499s-1.66699 -12.166 -3 -17.499
c-2 -5.33301 -5.66699 -10 -11 -14s-11.5 -8 -18.5 -12s-14 -7.66699 -21 -11l-18.5 -9c-13.333 -8 -25.833 -16.167 -37.5 -24.5s-23.167 -18.5 -34.5 -30.5c-13.333 -15.333 -27.833 -27.166 -43.5 -35.499s-32.167 -14.333 -49.5 -18s-35.5 -5.66699 -54.5 -6
s-38.5 -0.5 -58.5 -0.5c-39.333 0 -76 3.66699 -110 11s-63.5 19.833 -88.5 37.5s-44.5 41.334 -58.5 71.001s-21 66.834 -21 111.501z" />
    <glyph glyph-name="H" unicode="H" horiz-adv-x="468" 
d="M280 32c-5.33301 -6.66699 -10.665 -10.5049 -15.998 -11.5049s-11.666 -1.5 -18.999 -1.5h-9c-2 0 -4 0.333008 -6 1c-20 8 -36 21.333 -48 40s-21.167 39.334 -27.5 62.001s-10.333 45.667 -12 69s-2.16699 43.666 -1.5 60.999c-1.33301 5.33301 -3.33301 10 -6 14
s-7 6 -13 6c-14.667 0 -29.5 -2.83301 -44.5 -8.5s-29.833 -9.5 -44.5 -11.5h-4c-4.66699 3.33301 -7.83398 5.83301 -9.50098 7.5s-2.5 4.5 -2.5 8.5c0 3.33301 1.33301 6 4 8c24.667 15.333 45.5 25.333 62.5 30s31 10.167 42 16.5s19 16.666 24 30.999
s7.5 39.166 7.5 74.499v30c-1.33301 2.66699 -2.83301 6.5 -4.5 11.5s-3.83398 9.83301 -6.50098 14.5s-5.83398 8.66699 -9.50098 12s-7.83398 5 -12.501 5c-6.66699 0 -12.667 -2 -18 -6s-10.5 -8.5 -15.5 -13.5l-14 -13.5c-4.33301 -4 -8.5 -6 -12.5 -6
c-6.66699 0 -10.5 0.666992 -11.5 2s-1.5 4 -1.5 8c0 5.33301 0.666992 9.5 2 12.5s3.66602 6.83301 6.99902 11.5l27 30.5c10 11.667 20.833 22.667 32.5 33s23.834 19.166 36.501 26.499s26 11 40 11c7.33301 0 12.333 -0.5 15 -1.5s7.66699 -4.5 15 -10.5
c11.333 -9.33301 20.5 -18.666 27.5 -27.999s13.167 -20.666 18.5 -33.999c4 -10 7.16699 -20.833 9.5 -32.5s5.5 -22.5 9.5 -32.5s9.83301 -18.333 17.5 -25s18.834 -10 33.501 -10c4.66699 0 7.5 1.66699 8.5 5s2.16699 7 3.5 11l16 77
c1.33301 6.66699 3.66602 14.5 6.99902 23.5s7.83301 17.833 13.5 26.5s12 16 19 22s14.833 9 23.5 9c4.66699 0 11.834 -3.16699 21.501 -9.5s19 -13.666 28 -21.999s17 -16.833 24 -25.5s10.5 -15 10.5 -19c0 -6 -3.66699 -9 -11 -9h-5c-17.333 21.333 -38 38 -62 50h-3
c-4 0 -8.16699 -3.66699 -12.5 -11s-7.16602 -12.666 -8.49902 -15.999l-7 -35l-12 -89c-1.33301 -8.66699 1.66699 -15.667 9 -21s15.5 -10.666 24.5 -15.999s17.333 -11.5 25 -18.5s11.5 -16.833 11.5 -29.5c0 -15.333 -2.83301 -25.333 -8.5 -30s-12.667 -7.5 -21 -8.5
l-25.5 -3c-8.66699 -1 -16 -5.5 -22 -13.5c-9.33301 -11.333 -16.166 -24.5 -20.499 -39.5s-7.83301 -29.833 -10.5 -44.5c-1.33301 -6.66699 -2.83301 -16.167 -4.5 -28.5l-5 -37.5l-4.5 -34.5c-1.33301 -10.333 -2 -16.833 -2 -19.5v-34c0 -50 4.66699 -99.5 14 -148.5
s22.666 -96.5 39.999 -142.5c0.666992 -1.33301 1.66699 -4.16602 3 -8.49902s3 -9.16602 5 -14.499s3.66699 -10.333 5 -15s2.33301 -7.66699 3 -9c4 -10.667 8 -18 12 -22s8 -6.66699 12 -8s7.83301 -2.83301 11.5 -4.5s7.5 -5.5 11.5 -11.5v-14
c0 -9.33301 -2 -16.333 -6 -21s-11 -7 -21 -7c-13.333 0 -25.833 7.33301 -37.5 22s-22 31.667 -31 51s-16.667 39 -23 59l-14.5 45c-8.66699 26.667 -15.834 53.5 -21.501 80.5s-10.167 54.5 -13.5 82.5c0 2 -0.166992 5.33301 -0.5 10s-0.666016 9.83398 -0.999023 15.501
l-1 16.5c-0.333008 5.33301 -0.5 9.33301 -0.5 12c-0.666992 4.66699 -0.833984 10.5 -0.500977 17.5s-2.16699 11.5 -7.5 13.5zM226.001 176.995c0 -12.667 1.83398 -23.334 5.50098 -32.001s8.5 -16.667 14.5 -24s12.667 -14.166 20 -20.499s14.666 -13.5 21.999 -21.5
l3 11l28 166v3c0 6 -2 9.66699 -6 11s-8.33301 2 -13 2c-28.667 0 -48.167 -9.16699 -58.5 -27.5s-15.5 -40.833 -15.5 -67.5z" />
    <glyph glyph-name="I" unicode="I" horiz-adv-x="315" 
d="M84 33c0 6 2.1748 10.5049 6.50781 13.5049s9.33301 6.83301 15 11.5s10.667 11 15 19s6.5 20 6.5 36c0 3.33301 -0.166992 7.33301 -0.5 12s-0.5 7.66699 -0.5 9c-4 32 -9.5 63.333 -16.5 94s-10.5 62.667 -10.5 96c0 13.333 0.5 26.833 1.5 40.5
s3.16699 27.167 6.5 40.5c0.666992 2 2 6.33301 4 13s4 14 6 22s4 15.333 6 22s3 10.667 3 12c0 0.666992 0.166992 2.83398 0.5 6.50098s0.5 6.5 0.5 8.5c0 16.667 -4.16699 28.167 -12.5 34.5s-17.333 11.166 -27 14.499s-18.667 6.66602 -27 9.99902
s-12.5 10.666 -12.5 21.999c0 7.33301 3.16699 12.166 9.5 14.499s12.166 3.5 17.499 3.5c9.33301 0 18.166 -0.833008 26.499 -2.5s17.166 -2.5 26.499 -2.5c13.333 0 26.166 2 38.499 6s25.166 6 38.499 6c15.333 0 28.166 -4.5 38.499 -13.5s15.5 -21.833 15.5 -38.5
c0 -13.333 -2.83301 -25.5 -8.5 -36.5s-12.334 -21.5 -20.001 -31.5s-15.667 -19.667 -24 -29s-15.5 -19 -21.5 -29c-9.33301 -16 -15.666 -32.5 -18.999 -49.5s-5 -34.167 -5 -51.5c0 -10.667 1 -21 3 -31s2.66699 -20.333 2 -31c2.66699 -16 6 -32.167 10 -48.5l12 -49.5
c4 -16.667 7.5 -33.334 10.5 -50.001s4.83301 -33.334 5.5 -50.001c9.33301 -7.33301 18.666 -12.5 27.999 -15.5s19.666 -4.5 30.999 -4.5c6.66699 0 12.167 1.33301 16.5 4s9.5 4 15.5 4c7.33301 0 11 -3.33301 11 -10c0 -7.33301 -5 -14 -15 -20s-18.333 -9 -25 -9h-136
c-4 0 -8.5 0.333008 -13.5 1s-10 2 -15 4s-9.16699 4.83301 -12.5 8.5s-5 8.5 -5 14.5z" />
    <glyph glyph-name="J" unicode="J" horiz-adv-x="392" 
d="M-70 -403c0 3.33301 2.00488 6.6709 6.00488 10.0039s7.66699 5 11 5h3c11.333 -2.66699 21.833 -6.33398 31.5 -11.001l28.5 -14c9.33301 -4.66699 19.166 -8.66699 29.499 -12s21.5 -5.33301 33.5 -6c22.667 -1.33301 42 5.5 58 20.5s29.333 33.5 40 55.5s19 45 25 69
l15 60c0.666992 10 2 27.333 4 52s3.83301 50.834 5.5 78.501s3.16699 53.834 4.5 78.501s2 42 2 52v12.5c0 7.66699 0.166992 16.5 0.5 26.5s0.5 20.333 0.5 31v25v93.5c0 30.333 -1.66699 61.166 -5 92.499c-2 24 -4.5 43.167 -7.5 57.5s-7.66699 26.333 -14 36
s-15.333 18 -27 25s-27.167 15.167 -46.5 24.5c-1.33301 0 -3.83301 1 -7.5 3l-12.5 7c-4.66699 2.66699 -9 5 -13 7s-6.33301 3 -7 3h-6c-3.33301 0 -8.33301 -0.666992 -15 -2s-13.5 -3.33301 -20.5 -6s-13 -5.83398 -18 -9.50098s-7.5 -7.83398 -7.5 -12.501v-2l19 -20
l2 -1c0 -0.666992 -0.166992 -1 -0.5 -1s-0.5 -0.333008 -0.5 -1l-1 -1c-0.666992 -1.33301 -2.33398 -3.33301 -5.00098 -6s-4.66699 -4.33398 -6 -5.00098h-1c-4 0 -9 2.5 -15 7.5s-12 11 -18 18s-11.167 13.833 -15.5 20.5s-6.5 12 -6.5 16
c0 3.33301 1.33301 6.66602 4 9.99902s6 6.33301 10 9s8 5.16699 12 7.5s7.33301 4.5 10 6.5l10 5l16.5 8.5l16 8.5l9.5 5.00098c10 7.33301 19.167 15.333 27.5 24s17 16.834 26 24.501s18.667 14.167 29 19.5s22.166 8 35.499 8c18 0 35.833 -2 53.5 -6
s33.667 -10.333 48 -19s26 -20 35 -34s13.5 -31 13.5 -51c0 -18.667 -4 -37 -12 -55s-14.333 -35.667 -19 -53c-5.33301 -19.333 -8.66602 -37.333 -9.99902 -54s-3.33301 -34.334 -6 -53.001v-4c0 -4 -0.166992 -13.833 -0.5 -29.5s-0.666016 -32.334 -0.999023 -50.001
s-0.666016 -34.167 -0.999023 -49.5s-0.5 -25 -0.5 -29v-96c0 -3.33301 -0.166992 -9.5 -0.5 -18.5s-0.833008 -18.5 -1.5 -28.5s-1.33398 -19.5 -2.00098 -28.5s-1 -15.5 -1 -19.5l-5 -68c-2 -26.667 -5.66699 -54.834 -11 -84.501s-12.333 -59.167 -21 -88.5
s-19.834 -55.666 -33.501 -78.999s-30.334 -42.333 -50.001 -57s-42.834 -22 -69.501 -22c-6 0 -17.333 1.5 -34 4.5s-33.834 7.33301 -51.501 13s-33.5 12.5 -47.5 20.5s-21 16.667 -21 26z" />
    <glyph glyph-name="K" unicode="K" horiz-adv-x="449" 
d="M482 -71c-30.667 0 -60.8281 -2.83398 -90.4951 -8.50098s-59.834 -8.5 -90.501 -8.5c-16 0 -31 1.66699 -45 5s-26 8.83301 -36 16.5s-18 17.667 -24 30s-9 27.833 -9 46.5c0 22 4.5 42.833 13.5 62.5s18.667 39 29 58s20 38.333 29 58s13.5 40.167 13.5 61.5
c0 9.33301 -4 15.833 -12 19.5s-16.333 5.5 -25 5.5c-10 0 -19.167 -2.33301 -27.5 -7s-16.166 -10.334 -23.499 -17.001c-9.33301 -8.66699 -19.5 -20.167 -30.5 -34.5s-17.167 -28.166 -18.5 -41.499c-3.33301 -26 -6.5 -52.833 -9.5 -80.5s-5.16699 -54.834 -6.5 -81.501
v-12v-20v-20v-12c0 -7.33301 -1.33301 -14.666 -4 -21.999s-8 -11 -16 -11c-9.33301 0 -16.5 2.83301 -21.5 8.5s-8.66699 12.5 -11 20.5s-3.66602 16.333 -3.99902 25s-0.5 16 -0.5 22c0 18.667 0.833008 37.5 2.5 56.5s2.5 37.833 2.5 56.5v29
c0 3.33301 -0.166992 7.66602 -0.5 12.999s-0.833008 10.833 -1.5 16.5s-1.16699 10.667 -1.5 15s-0.833008 6.83301 -1.5 7.5c0 0.666992 -1 2.66699 -3 6l-6.5 10.5l-6.5 10c-2 3 -3 5.16699 -3 6.5c-3.33301 4.66699 -5 9.5 -5 14.5v14.5c0 7.33301 1.33301 14 4 20
s5.83398 12 9.50098 18s7 11.833 10 17.5s4.83301 12.167 5.5 19.5c0 2 0.166992 5.83301 0.5 11.5s0.666016 11.667 0.999023 18l1 18.5c0.333008 6 0.5 10.333 0.5 13v59l9 57c0.666992 5.33301 2 12 4 20s4.83301 15.667 8.5 23s8.16699 13.5 13.5 18.5
s11.666 7.5 18.999 7.5c9.33301 0 14 -5 14 -15c0 -13.333 -0.666992 -27 -2 -41s-2 -28 -2 -42v-28.5c0 -11.667 0.833008 -23.167 2.5 -34.5s4.83398 -21.166 9.50098 -29.499s11.667 -12.5 21 -12.5c5.33301 0 13.166 2.16699 23.499 6.5s21.833 10 34.5 17
s25.667 14.833 39 23.5s25.333 17.167 36 25.5s19.5 16.333 26.5 24s10.5 13.834 10.5 18.501c0 2.66699 -1.16699 4.5 -3.5 5.5s-5 1.66699 -8 2s-6.16699 0.333008 -9.5 0s-5.66602 -0.5 -6.99902 -0.5c-9.33301 0 -17.666 -2.16699 -24.999 -6.5s-15.333 -6.5 -24 -6.5
c-3.33301 0 -6.33301 1 -9 3s-4 4.66699 -4 8c0 8.66699 4.33301 16 13 22s18.667 11 30 15s22.666 6.83301 33.999 8.5s19.666 2.5 24.999 2.5c1.33301 0 5 -0.333008 11 -1s10 -1 12 -1c10.667 -2.66699 17.5 -8.5 20.5 -17.5s4.5 -18.167 4.5 -27.5
c0 -12.667 -5.33301 -24.834 -16 -36.501s-22.167 -22.5 -34.5 -32.5s-23.833 -18.833 -34.5 -26.5s-16 -13.5 -16 -17.5c0 -4.66699 1.5 -8.83398 4.5 -12.501s6.5 -7 10.5 -10s8 -5.83301 12 -8.5s7 -5.33398 9 -8.00098c5.33301 -6.66699 8.66602 -15 9.99902 -25
s2 -19 2 -27c0 -24 -4.66699 -46.667 -14 -68s-19.5 -42.333 -30.5 -63s-21.167 -41.5 -30.5 -62.5s-14 -43.167 -14 -66.5c0 -10 3.83301 -18.667 11.5 -26s16.5 -13.166 26.5 -17.499s20 -7.66602 30 -9.99902s17.667 -3.5 23 -3.5h42
c21.333 5.33301 41.666 8.16602 60.999 8.49902s36.666 0.5 51.999 0.5c27.333 0 52.333 -2.33301 75 -7s44.5 -11.167 65.5 -19.5s41.833 -18.166 62.5 -29.499l66 -38c6 -4 12.167 -6.83301 18.5 -8.5s9.5 -7.16699 9.5 -16.5c0 -3.33301 -1.83301 -5.66602 -5.5 -6.99902
s-8.16699 -1.66602 -13.5 -0.999023c-1.33301 0 -5.16602 1 -11.499 3s-10.5 3.66699 -12.5 5l-69 30.5c-20.667 9 -41.334 16.667 -62.001 23s-42.334 11.166 -65.001 14.499s-48.334 5 -77.001 5z" />
    <glyph glyph-name="L" unicode="L" horiz-adv-x="330" 
d="M241 -63c-6 23.333 -14.3389 40.6738 -25.0059 52.0068s-22.334 17 -35.001 17c-13.333 0 -26.5 -6.66699 -39.5 -20s-22.833 -31.666 -29.5 -54.999c-4.66699 -16.667 -9.16699 -30.334 -13.5 -41.001s-8.66602 -19 -12.999 -25s-8.66602 -10.167 -12.999 -12.5
s-8.5 -3.5 -12.5 -3.5c-12.667 0 -22 7.5 -28 22.5s-9 31.167 -9 48.5c3.33301 19.333 9.33301 37.166 18 53.499s18.667 32.833 30 49.5c9.33301 13.333 17.5 26 24.5 38s13.5 24.167 19.5 36.5s11.5 25.333 16.5 39s10.5 29.5 16.5 47.5
c9.33301 27.333 17.5 59.666 24.5 96.999s10.5 76.666 10.5 117.999c0 31.333 -2.16699 62.166 -6.5 92.499s-10.166 59.5 -17.499 87.5c-0.666992 1.33301 -1 3.66602 -1 6.99902c0 4 1 7.66699 3 11s4.66699 5 8 5c4 0 7.66699 -3 11 -9
c18.667 -35.333 31.667 -71.5 39 -108.5s11 -74.833 11 -113.5c0 -34 -2.5 -66.333 -7.5 -97s-12.5 -62 -22.5 -94c-5.33301 -18 -8 -31.667 -8 -41c0 -14 3.33301 -25 10 -33s15 -15.667 25 -23c12.667 -9.33301 24.334 -21 35.001 -35s20 -28.167 28 -42.5
s14.5 -28.333 19.5 -42s8.5 -25.167 10.5 -34.5c7.33301 -44 17.166 -75.333 29.499 -94s30.833 -28 55.5 -28c8.66699 0 16 1.33301 22 4c42 15.333 82.333 32.166 121 50.499s76.334 37.666 113.001 57.999l109 62.5l109 65c4.66699 2.66699 9.33398 4 14.001 4
c6.66699 0 10 -2.66699 10 -8c0 -6.66699 -5 -12.667 -15 -18l-120.5 -74.5l-88.5 -54l-66.5 -38.5l-55 -30l-53.5 -27l-62 -30c-17.333 -8 -32.666 -14.667 -45.999 -20s-26 -8 -38 -8c-26 0 -46.167 7.5 -60.5 22.5s-25.166 32.833 -32.499 53.5s-12.333 42 -15 64
s-5.66699 40 -9 54z" />
    <glyph glyph-name="M" unicode="M" horiz-adv-x="518" 
d="M158 196c0 25.333 0.996094 50.1699 2.99609 74.5029s2.33301 49.166 1 74.499c0.666992 20.667 2.33398 40.834 5.00098 60.501s4 37.167 4 52.5v61c-0.666992 3.33301 -1.83398 8.5 -3.50098 15.5s-5.16699 10.5 -10.5 10.5c-3.33301 0 -5.66602 -1.66699 -6.99902 -5
s-2.66602 -6 -3.99902 -8c-10.667 -32.667 -20.167 -65.5 -28.5 -98.5s-14.166 -66.5 -17.499 -100.5c-2 -17.333 -2.83301 -34.833 -2.5 -52.5s-1.5 -34.834 -5.5 -51.501l4 -142c0 -8 2 -16.167 6 -24.5s8.33301 -16.666 13 -24.999s9 -17 13 -26s6 -17.833 6 -26.5
c0 -11.333 -3.5 -20.666 -10.5 -27.999s-16.167 -11 -27.5 -11c-15.333 0 -27.166 6.33301 -35.499 19s-14.5 27.5 -18.5 44.5s-6.33301 34.167 -7 51.5s-1 30.666 -1 39.999c0 10 1.66699 29.5 5 58.5s7.83301 62 13.5 99s12.667 75.833 21 116.5s17.5 77.834 27.5 111.501
s20.833 61.5 32.5 83.5s23.834 33 36.501 33c13.333 0 24.166 -5.16699 32.499 -15.5s14.833 -22.666 19.5 -36.999s8 -29 10 -44l5 -36.5c0.666992 -3.33301 1.33398 -7.5 2.00098 -12.5s1.5 -10 2.5 -15s1.83301 -9.33301 2.5 -13l1 -5.5l5 -4c4 2 7.83301 8.5 11.5 19.5
s7.33398 24 11.001 39s7.83398 31 12.501 48s9.83398 32.833 15.501 47.5s12.334 26.667 20.001 36s16.834 14 27.501 14c8 0 15 -3.16699 21 -9.5s11 -13.833 15 -22.5s7.16699 -17.5 9.5 -26.5s4.5 -16.167 6.5 -21.5v-62c0 -30 -0.833008 -59.667 -2.5 -89
s-2.5 -59.333 -2.5 -90v-35c0 -17.333 1 -35.333 3 -54s5.16699 -35.667 9.5 -51s11.166 -24 20.499 -26c8.66699 -2 16.167 -1.16699 22.5 2.5s12.166 8.16699 17.499 13.5s10.666 10.333 15.999 15s11.666 7 18.999 7c5.33301 0 10.333 -1 15 -3s7 -5.66699 7 -11
c0 -10.667 -2.83301 -20.834 -8.5 -30.501s-13 -18.334 -22 -26.001s-18.833 -13.834 -29.5 -18.501s-21 -7 -31 -7c-21.333 0 -38.5 5.5 -51.5 16.5s-26.5 24.833 -40.5 41.5l-5 -8l-25 -162c-1.33301 -11.333 -6 -21.833 -14 -31.5s-18.333 -14.5 -31 -14.5
c-16.667 0 -30.834 5.5 -42.501 16.5s-21.5 25.167 -29.5 42.5s-14.5 36.5 -19.5 57.5s-8.83301 41.667 -11.5 62s-4.33398 39.166 -5.00098 56.499s-1 30.666 -1 39.999z" />
    <glyph glyph-name="N" unicode="N" horiz-adv-x="290" 
d="M43 -102c-5.33301 20 -9.17773 38.0029 -11.5107 54.0029s-3.5 34.333 -3.5 55v33c0 2.66699 0.5 7.5 1.5 14.5l3 22c1 7.66699 2.16699 15 3.5 22s2.33301 11.833 3 14.5c13.333 61.333 28.833 119.166 46.5 173.499s38.5 110.833 62.5 169.5l7.5 15.5l12 24.5l12 24
c3.66699 7.33301 6.5 12.666 8.5 15.999c2.66699 3.33301 6.83398 7.33301 12.501 12s11.167 6.66699 16.5 6c6.66699 -1.33301 12 -4 16 -8s7 -8.83301 9 -14.5s3.16699 -11.5 3.5 -17.5s0.5 -11.333 0.5 -16c0 -24 -2.16699 -47.667 -6.5 -71
s-8.16602 -46.666 -11.499 -69.999c-3.33301 -30 -6.16602 -58.833 -8.49902 -86.5s-3.5 -56.5 -3.5 -86.5l1 -2l4.5 4.5c1.66699 1.66699 2.5 2.83398 2.5 3.50098l125 262l5.5 7c1 1.33301 1.5 2.5 1.5 3.5s0.166992 2.16699 0.5 3.5s1.5 4 3.5 8l7.5 15l11.5 23l12 23
c4 7.33301 6.66699 12.666 8 15.999c1.33301 2 5.33301 6.16699 12 12.5s11 10.166 13 11.499c1.33301 0.666992 2.83301 1.5 4.5 2.5s2.83398 1.5 3.50098 1.5c8 0 14.333 -3.16699 19 -9.5s8.33398 -14 11.001 -23s4.5 -18 5.5 -27s1.5 -15.833 1.5 -20.5v-7
c0 -3.33301 -0.333008 -5.66602 -1 -6.99902l-6.5 -6.5c-3 -3 -5.5 -4.5 -7.5 -4.5c-4.66699 0 -9 1.5 -13 4.5s-8 6.33301 -12 10s-7.83301 6.66699 -11.5 9s-7.5 2.83301 -11.5 1.5c-3.33301 -1.33301 -7.5 -6 -12.5 -14l-9.5 -15l-72 -150
c-1.33301 -8 -2.66602 -12.833 -3.99902 -14.5s-3.66602 -6.5 -6.99902 -14.5c-1.33301 -2.66699 -3.83301 -8.33398 -7.5 -17.001l-12 -29l-12 -30.5c-3.66699 -9.66699 -6.5 -16.834 -8.5 -21.501c-2.66699 -6.66699 -5.16699 -13.834 -7.5 -21.501
s-7.16602 -13.834 -14.499 -18.501v-18c0 -9.33301 0.666992 -18.5 2 -27.5s2 -18.167 2 -27.5c0 -14 -3.66699 -27.833 -11 -41.5s-19.666 -20.5 -36.999 -20.5c-8.66699 0 -17.667 3.66699 -27 11s-13.666 15.666 -12.999 24.999l5 49
c0.666992 4.66699 0 11.834 -2 21.501s-4.66699 18.834 -8 27.501s-7.16602 14.834 -11.499 18.501s-8.5 1.5 -12.5 -6.5c-14 -22.667 -25 -47.667 -33 -75s-11.333 -54.333 -10 -81c0 -0.666992 0.833008 -4.66699 2.5 -12s3.16699 -13 4.5 -17c0 -1.33301 1 -5 3 -11
s4.33301 -9 7 -9h29c4 0 6.33301 -2.16699 7 -6.5s1 -7.83301 1 -10.5c0 -18 -5.33301 -32.833 -16 -44.5s-24.667 -17.5 -42 -17.5c-9.33301 0 -16 1 -20 3s-9.33301 7 -16 15z" />
    <glyph glyph-name="O" unicode="O" horiz-adv-x="672" 
d="M40 145c-11.333 36.667 -11.8311 74.165 -1.49805 112.498s26.333 74.333 48 108s47 63.667 76 90s56.5 45.833 82.5 58.5c10.667 5.33301 22 8.5 34 9.5s23.667 3.16699 35 6.5c27.333 9.33301 53.833 17.5 79.5 24.5s54.5 10.5 86.5 10.5
c18.667 0 36.834 -3.83301 54.501 -11.5s34 -17.667 49 -30s28.167 -26.833 39.5 -43.5s19.666 -34.334 24.999 -53.001c9.33301 -31.333 12 -60.5 8 -87.5s-12.167 -52 -24.5 -75s-27.666 -44.167 -45.999 -63.5s-36.833 -37 -55.5 -53
c-9.33301 -7.33301 -19.833 -14.333 -31.5 -21s-19.834 -16 -24.501 -28l-66 -38c-1.33301 0 -3 -1.66699 -5 -5s-3.66699 -5.66602 -5 -6.99902c-4 -7.33301 -6.66699 -12.5 -8 -15.5s-2.16602 -5.66699 -2.49902 -8s-0.666016 -5.33301 -0.999023 -9
s-0.833008 -10.5 -1.5 -20.5c-3.33301 -7.33301 -9.33301 -12.666 -18 -15.999s-17.334 -5 -26.001 -5c-7.33301 0 -15 -0.833008 -23 -2.5s-16 -3 -24 -4s-15.833 -1.16699 -23.5 -0.5s-14.834 3 -21.501 7c-10 5.33301 -20.333 8.33301 -31 9s-21.334 3.66699 -32.001 9
c-33.333 17.333 -63.333 38.333 -90 63s-45.334 54.334 -56.001 89.001zM170.002 264.998c4.66699 -16 11.5029 -26.999 20.5029 -32.999s19.167 -10 30.5 -12s23.166 -3.33301 35.499 -4s24.5 -4 36.5 -10c14 -6.66699 27.5 -15.667 40.5 -27s24.833 -22.666 35.5 -33.999
h4c17.333 -0.666992 32.833 3.66602 46.5 12.999s26.5 17.666 38.5 24.999c16.667 10.667 35.334 24.334 56.001 41.001s39 35.334 55 56.001s27.833 43.167 35.5 67.5s7.5 50.166 -0.5 77.499c-4.66699 15.333 -12.167 28.333 -22.5 39s-22.166 19.167 -35.499 25.5
s-27.333 11 -42 14s-28.334 4.5 -41.001 4.5c-36 0 -70.5 -5.33301 -103.5 -16s-61.833 -25.334 -86.5 -44.001c-11.333 -11.333 -16.833 -21 -16.5 -29s2.16602 -20 5.49902 -36c1.33301 -8 -0.5 -13 -5.5 -15s-11 -3 -18 -3s-14 0.166992 -21 0.5s-11.833 -1.5 -14.5 -5.5
c-1.33301 -1.33301 -3 -3.5 -5 -6.5s-4 -6.33301 -6 -10l-6 -10.5c-2 -3.33301 -3 -5.66602 -3 -6.99902l-5 -12c-2 -4.66699 -3.83301 -9.83398 -5.5 -15.501s-2.83398 -11.5 -3.50098 -17.5s-0.333984 -11.333 0.999023 -16z" />
    <glyph glyph-name="P" unicode="P" horiz-adv-x="353" 
d="M-361 -295c-5.33301 8.66699 -7.99512 18.665 -7.99512 29.998c0 10.667 2.83301 21 8.5 31s12.167 18.667 19.5 26c22 23.333 45 44.666 69 63.999s48.5 37.833 73.5 55.5s50.667 34.667 77 51l79.5 49.5c2.66699 3.33301 5.66699 6.33301 9 9
s6.66602 4.66699 9.99902 6l120 65c10 5.33301 17.833 11 23.5 17s10 12.5 13 19.5s5.33301 15 7 24s3.16699 19.167 4.5 30.5c2 8.66699 5.83301 23.667 11.5 45l18 68.5l18 68.5c5.66699 21.333 9.83398 36.333 12.501 45c4 16 9.66699 35 17 57s16.666 43.333 27.999 64
s25 38.167 41 52.5s35 21.5 57 21.5c18 0 35 -3.16699 51 -9.5s30 -15 42 -26s21.5 -24.167 28.5 -39.5s10.5 -32 10.5 -50c0 -20.667 -2.66699 -39.5 -8 -56.5s-12 -34.833 -20 -53.5c-13.333 -30 -26.5 -56.833 -39.5 -80.5s-27 -46 -42 -67s-31.5 -41.333 -49.5 -61
s-38.333 -40.5 -61 -62.5c-3.33301 -2.66699 -4.83301 -6.33398 -4.5 -11.001s0.5 -8.66699 0.5 -12c0 -12.667 0.666992 -25.167 2 -37.5s2 -24.833 2 -37.5c0 -40.667 -2.66699 -81.167 -8 -121.5s-18.666 -78.5 -39.999 -114.5l-10.5 -7.5
c-4.33301 -3 -8.83301 -4.5 -13.5 -4.5c-16 0 -28.167 8.5 -36.5 25.5s-14.5 36.667 -18.5 59s-6.33301 45 -7 68s-1 40.5 -1 52.5v14c0 0.666992 0.166992 2.83398 0.5 6.50098l1 11.5l1 11.5c0.333008 3.66699 0.5 5.83398 0.5 6.50098c0 2 -0.333008 7.16699 -1 15.5
s-1.33398 13.5 -2.00098 15.5c-1.33301 0.666992 -4 1.66699 -8 3s-6.66699 2 -8 2c-8 0 -17.333 -2 -28 -6s-21.5 -8.83301 -32.5 -14.5s-21.667 -11.5 -32 -17.5s-19.5 -11 -27.5 -15c-2.66699 -1.33301 -6.33398 -3.5 -11.001 -6.5s-9.83398 -6 -15.501 -9
s-11.5 -5.66699 -17.5 -8s-11.333 -3.5 -16 -3.5c-3.33301 -2 -9.33301 -5.33301 -18 -10l-27.5 -15.5l-27.5 -16l-18 -10.5c-1.33301 -0.666992 -4.5 -2.66699 -9.5 -6l-16.5 -11.5l-17.5 -12.5l-12.5 -9c-1.33301 -1.33301 -4.16602 -3.66602 -8.49902 -6.99902l-13 -10.5
l-13 -11c-4.33301 -3.66699 -7.16602 -6.16699 -8.49902 -7.5l-18.5 -16.5c-7 -6.33301 -13.5 -13 -19.5 -20s-11.167 -14.5 -15.5 -22.5s-6.5 -16 -6.5 -24c0 -6.66699 2.33301 -12.167 7 -16.5s10.167 -7.66602 16.5 -9.99902s13.166 -4 20.499 -5
s13.666 -1.5 18.999 -1.5c11.333 0 21.5 2.16699 30.5 6.5s19.167 6.5 30.5 6.5c7.33301 0 15.166 -1.33301 23.499 -4s12.5 -8.66699 12.5 -18c0 -12 -4 -21.667 -12 -29s-17.667 -13 -29 -17s-23 -6.5 -35 -7.5s-22.333 -1.5 -31 -1.5h-25
c-10.667 5.33301 -22.834 13.333 -36.501 24zM169.005 160.998c0 -3.33301 0.168945 -7.16992 0.501953 -11.5029s2.83301 -6.5 7.5 -6.5c11.333 0 21.833 4.16699 31.5 12.5s18.834 18.166 27.501 29.499s16.834 22.833 24.501 34.5s15.5 20.834 23.5 27.501
c2.66699 2.66699 6.16699 4.16699 10.5 4.5s8.5 0.833008 12.5 1.5s7.83301 1.5 11.5 2.5s6.5 3.16699 8.5 6.5c13.333 20.667 24.166 42.334 32.499 65.001s12.5 46.334 12.5 71.001c0 22 -4.33301 39.833 -13 53.5s-21.667 27.5 -39 41.5c-0.666992 0 -2 0.166992 -4 0.5
s-3.33301 0.5 -4 0.5c-13.333 0 -24.833 -4.16699 -34.5 -12.5s-17.834 -18.5 -24.501 -30.5s-12.334 -24.667 -17.001 -38l-12 -35l-8.5 -26.5l-11.5 -36c-4 -12.333 -7.5 -23.666 -10.5 -33.999s-4.83301 -16.833 -5.5 -19.5c-0.666992 -3.33301 -2 -9.5 -4 -18.5
s-4 -18.5 -6 -28.5l-5.5 -28.5c-1.66699 -9 -2.83398 -15.5 -3.50098 -19.5v-6zM169.007 -131.006c1.33301 -5.33301 3.66504 -10.667 6.99805 -16s8 -8 14 -8c2.66699 0 5.16699 1.5 7.5 4.5s4.33301 6.33301 6 10s3 7.16699 4 10.5s1.5 5.33301 1.5 6l7 33v47
c0 17.333 0.166992 31.5 0.5 42.5s-1.16699 24.5 -4.5 40.5c0 2.66699 -0.833008 6.16699 -2.5 10.5s-4.16699 6.5 -7.5 6.5c-4.66699 0 -8.66699 -1.66699 -12 -5s-6.16602 -7.5 -8.49902 -12.5s-4.16602 -10 -5.49902 -15l-3 -11.5c0 -1.33301 -0.333008 -4 -1 -8
s-1.16699 -8.33301 -1.5 -13l-1 -13.5c-0.333008 -4.33301 -0.5 -7.5 -0.5 -9.5v-99z" />
    <glyph glyph-name="Q" unicode="Q" horiz-adv-x="648" 
d="M941 -166l-8.00586 0.00292969c-3.33301 0 -9.83301 -0.166992 -19.5 -0.5s-23.334 -1.16602 -41.001 -2.49902s-41.334 -3 -71.001 -5l-110 -7.5c-43.667 -3 -96.167 -6.83301 -157.5 -11.5c-5.33301 -2 -15.833 -4.33301 -31.5 -7s-32.5 -5.33398 -50.5 -8.00098
l-51.5 -7.5c-16.333 -2.33301 -27.833 -4.16602 -34.5 -5.49902c-1.33301 -0.666992 -5.16602 -1.66699 -11.499 -3l-20.5 -4.5l-20.5 -4.5c-6.33301 -1.33301 -10.166 -2 -11.499 -2h-12c-22 0 -40.833 5 -56.5 15s-28.5 22.833 -38.5 38.5s-17.333 33.334 -22 53.001
s-7 39.167 -7 58.5c0 20.667 2.5 41 7.5 61s7.5 40.667 7.5 62c0 5.33301 -3.66699 9.16602 -11 11.499s-16.666 4.5 -27.999 6.5s-23.666 4.5 -36.999 7.5s-25.833 8.16699 -37.5 15.5s-21.667 17.666 -30 30.999s-13.166 31 -14.499 53c-1.33301 21.333 3 43.333 13 66
s22.833 44.5 38.5 65.5s32.667 40.167 51 57.5s35.166 31.666 50.499 42.999l18 13l31 22l33.5 23l24.5 16c8.66699 5.33301 18.167 11.5 28.5 18.5s21.166 13.667 32.499 20s22.833 11.666 34.5 15.999s22.834 6.5 33.501 6.5c6 0 10.333 -0.333008 13 -1
s4.33398 -2 5.00098 -4s0.833984 -4.83301 0.500977 -8.5s-0.5 -8.5 -0.5 -14.5c22.667 0 45.5 2.33301 68.5 7s46.167 7 69.5 7c22 0 43 -1.83301 63 -5.5s38.167 -10.167 54.5 -19.5s30.5 -21.833 42.5 -37.5s21.333 -35.167 28 -58.5
c0 -0.666992 0.166992 -2.33398 0.5 -5.00098s0.5 -4.66699 0.5 -6c0 -29.333 -9.16699 -56.166 -27.5 -80.499s-40.5 -46.166 -66.5 -65.499s-53.333 -36.333 -82 -51l-75 -38c-18 -8.66699 -37.333 -15.834 -58 -21.501s-38.667 -14.167 -54 -25.5
c-3.33301 -2.66699 -5.66602 -4.66699 -6.99902 -6s-2.5 -2.83301 -3.5 -4.5l-3 -5c-1 -1.66699 -2.83301 -4.16699 -5.5 -7.5l-56 -60c-11.333 -14 -18.666 -30.5 -21.999 -49.5s-5 -37.167 -5 -54.5c0 -2.66699 -0.166992 -8.66699 -0.5 -18
s-0.166016 -15.333 0.500977 -18c0.666992 -11.333 6.33398 -19.666 17.001 -24.999s23 -8.83301 37 -10.5s27.833 -2.33398 41.5 -2.00098s23.834 0.5 30.501 0.5c22 0 46.167 1.66699 72.5 5s51.166 6.33301 74.499 9c65.333 5.33301 132.333 8.16602 201 8.49902
s135 0.5 199 0.5c48 0 96.667 -2.83301 146 -8.5s98.166 -14.167 146.499 -25.5s95.666 -25.333 141.999 -42s90.5 -36 132.5 -58l120 -74c6 -3.33301 11.667 -7.5 17 -12.5s10.333 -10.167 15 -15.5c-0.666992 -3.33301 -2.66699 -5 -6 -5h-8
c-10.667 0 -23.834 3.66699 -39.501 11s-32 16 -49 26l-50 30c-16.333 10 -30.166 17.333 -41.499 22c-87.333 36 -176.833 62.667 -268.5 80s-185.167 26 -280.5 26zM132.994 220.003c0 -17.333 3.83301 -30.332 11.5 -38.999s20.167 -13 37.5 -13
c12.667 0 22.834 3.16699 30.501 9.5s17.167 11.166 28.5 14.499c24.667 6.66699 46.5 14.667 65.5 24l64.5 31c1.33301 0.666992 3.66602 1 6.99902 1h6c14 0 25.5 -4.66699 34.5 -14l26.5 -28c0.666992 -0.666992 1.83398 -1 3.50098 -1h4.5
c3.33301 0 5.66602 0.166992 6.99902 0.5s4 1.83301 8 4.5c9.33301 5.33301 19.333 11.5 30 18.5l32 21l30 20.5c9.33301 6.66699 17.666 13 24.999 19s15.333 13.167 24 21.5s16.667 17.333 24 27s13.5 20 18.5 31s7.5 21.833 7.5 32.5c0 18 -5.5 32.167 -16.5 42.5
s-24.333 18.166 -40 23.499s-32.167 8.83301 -49.5 10.5s-32.666 2.5 -45.999 2.5c-15.333 0 -31.833 -1.66699 -49.5 -5s-34.834 -8.16602 -51.501 -14.499s-32.167 -14.5 -46.5 -24.5s-25.833 -22 -34.5 -36c-2 -2.66699 -3.16699 -6.33398 -3.5 -11.001
s-0.833008 -9.33398 -1.5 -14.001s-2.16699 -8.66699 -4.5 -12s-6.16602 -5 -11.499 -5c-6 0 -10.667 1.5 -14 4.5s-6 6.83301 -8 11.5s-3.16699 9.83398 -3.5 15.501s-0.5 10.834 -0.5 15.501c0 6 0.166992 10.833 0.5 14.5s1.83301 8.16699 4.5 13.5h-5l-13 -11
c-3.33301 -3.33301 -6.83301 -6.5 -10.5 -9.5s-6.5 -5.5 -8.5 -7.5l-40 -39c-13.333 -13.333 -25.5 -27.5 -36.5 -42.5s-19.833 -31 -26.5 -48s-10 -35.5 -10 -55.5z" />
    <glyph glyph-name="R" unicode="R" horiz-adv-x="490" 
d="M610 -236c-52 10 -93.498 23.6602 -124.498 40.9932s-55 39.5 -72 66.5s-28.167 59.167 -33.5 96.5s-8 80.333 -8 129v37c-1.33301 4 -3.5 8 -6.5 12s-6.83301 6 -11.5 6c-4 0 -9 -1.16699 -15 -3.5s-12 -5 -18 -8s-11.667 -6 -17 -9s-9.33301 -5.16699 -12 -6.5
c-2.66699 -2 -7 -5 -13 -9l-19 -13l-19 -13c-6 -4 -10 -7 -12 -9c-2.66699 -6.66699 -6.16699 -17.167 -10.5 -31.5s-9.5 -29 -15.5 -44s-12.833 -28.167 -20.5 -39.5s-15.834 -17 -24.501 -17c-10.667 0 -16.5 3.83301 -17.5 11.5s-1.5 15.834 -1.5 24.501
c0 12 0.166992 22 0.5 30s1.83301 18.333 4.5 31l-5 9h-4c-1.33301 0 -2.5 0.166992 -3.5 0.5s-1.83301 0.5 -2.5 0.5c-9.33301 0 -18 -1.83301 -26 -5.5s-16.667 -5.5 -26 -5.5c-15.333 0 -27.833 3.33301 -37.5 10s-14.5 19 -14.5 37c0 21.333 8.33301 38 25 50l94 66
c5.33301 4 9.33301 12.5 12 25.5s4.66699 27.333 6 43s2.16602 31 2.49902 46s0.5 26.167 0.5 33.5c0 4.66699 -0.833008 9.83398 -2.5 15.501s-5.16699 10.167 -10.5 13.5h-15c-8.66699 0 -17.5 -1.16699 -26.5 -3.5s-17.833 -4.5 -26.5 -6.5
c-28 -6.66699 -57.333 -14.5 -88 -23.5s-60.667 -15.5 -90 -19.5h-2c-5.33301 0 -11.333 2.33301 -18 7s-10 10.334 -10 17.001v2c4.66699 7.33301 11.334 14.333 20.001 21s18 12.667 28 18s20.333 9.66602 31 12.999s20.667 5 30 5c3.33301 0 6 -1.16699 8 -3.5
s3.83301 -4.83301 5.5 -7.5s3.5 -5.16699 5.5 -7.5s4.66699 -3.5 8 -3.5h5c4 0.666992 11 2.33398 21 5.00098l31.5 8.5c11 3 21.5 5.66699 31.5 8s17 3.83301 21 4.5c2.66699 0.666992 6.5 1.33398 11.5 2.00098s10.167 1.66699 15.5 3s10 3.33301 14 6
s6.33301 6.33398 7 11.001c0 3.33301 0.5 9 1.5 17s2.16699 16.333 3.5 25l4 25c1.33301 8 2.33301 13.667 3 17c0.666992 4 2.66699 11.833 6 23.5s7.5 23.834 12.5 36.501s10.5 24 16.5 34s12.667 15 20 15h51c8.66699 0 16.5 -3 23.5 -9s12.833 -13.167 17.5 -21.5
s8.16699 -17.333 10.5 -27s3.5 -18.167 3.5 -25.5c0 -8 -0.666992 -16 -2 -24s-2 -16.333 -2 -25c0 -14 5.33301 -23.833 16 -29.5s24 -9.33398 40 -11.001s33.333 -2.5 52 -2.5s36 -1.5 52 -4.5s29.333 -9 40 -18s16 -22.833 16 -41.5c0 -16 -6.5 -31.5 -19.5 -46.5
s-28.333 -29.167 -46 -42.5s-35.834 -25.666 -54.501 -36.999s-33.667 -21.333 -45 -30c-4 -2.66699 -5.83301 -5.16699 -5.5 -7.5s0.5 -6.16602 0.5 -11.499v-12c2 -3.33301 4.5 -5.66602 7.5 -6.99902s6.16699 -3.33301 9.5 -6s6.83301 -6.5 10.5 -11.5
s7.16699 -12.833 10.5 -23.5c0.666992 -4 1.16699 -11.333 1.5 -22s0.833008 -21.667 1.5 -33s1.16699 -22.333 1.5 -33s0.5 -18 0.5 -22c1.33301 -44 9.83301 -81.333 25.5 -112s36.5 -56.167 62.5 -76.5s55.833 -36 89.5 -47s69.167 -18.833 106.5 -23.5h9
c6 -0.666992 15.333 -1.83398 28 -3.50098s25.667 -3.5 39 -5.5l37.5 -5.5c11.667 -1.66699 19.167 -2.5 22.5 -2.5c2.66699 -0.666992 7.66699 -2.16699 15 -4.5s10.666 -6.83301 9.99902 -13.5c-1.33301 -8.66699 -5.66602 -13 -12.999 -13h-21
c-1.33301 0 -5.5 0.5 -12.5 1.5s-11.167 1.83301 -12.5 2.5h-5l-39 3.5l-60 5.5c-21.333 2 -41.5 3.66699 -60.5 5s-32.167 2.33301 -39.5 3zM253.002 282.993c0 -4.66699 0.166016 -8.8291 0.499023 -12.4961s3.16602 -5.5 8.49902 -5.5c7.33301 0 14.166 2.5 20.499 7.5
s12.333 10.667 18 17s11.667 12 18 17s13.166 7.5 20.499 7.5c4.66699 0 8.83398 -1.33301 12.501 -4s7.33398 -5.83398 11.001 -9.50098s7.16699 -6.83398 10.5 -9.50098s7.33301 -4 12 -4h5c2.66699 2 8 5.5 16 10.5l25 15.5c8.66699 5.33301 16.834 10.666 24.501 15.999
s12.834 9 15.501 11c8 6.66699 16.333 14.167 25 22.5s13 18.5 13 30.5c0 9.33301 -4.83301 15.333 -14.5 18s-18.167 4 -25.5 4c-22 0 -45.5 -1.5 -70.5 -4.5s-48.333 -9 -70 -18s-39.667 -22.333 -54 -40s-21.5 -40.834 -21.5 -69.501z" />
    <glyph glyph-name="S" unicode="S" horiz-adv-x="446" 
d="M-80 162c0 9.33301 4.32422 17.9951 12.9912 25.9951s17.334 12 26.001 12c6.66699 0 10 -3 10 -9c0 -7.33301 -2 -13.5 -6 -18.5s-6 -10.5 -6 -16.5c0 -9.33301 6.33301 -20 19 -32s27.5 -23.833 44.5 -35.5s34 -22 51 -31s30.167 -15.5 39.5 -19.5
c15.333 -6 30.5 -10.667 45.5 -14s30.5 -5 46.5 -5c39.333 0 69 12.5 89 37.5s30 57.167 30 96.5c0 14 -1.66699 26.333 -5 37s-11.666 20 -24.999 28l-22 7l-34 10.5l-34 10l-23 6.5c-9.33301 2.66699 -20 6.66699 -32 12s-23.167 11.666 -33.5 18.999s-19 16 -26 26
s-10.5 21 -10.5 33c0 22.667 4.83301 44.334 14.5 65.001s22.167 39.834 37.5 57.501s32.333 33.667 51 48s37.334 26.833 56.001 37.5c0.666992 0 2.5 0.5 5.5 1.5s4.83301 1.5 5.5 1.5c0.666992 0.666992 1.83398 1.5 3.50098 2.5s2.83398 1.5 3.50098 1.5l53 15h2
c9.33301 0 15.833 -3.5 19.5 -10.5s5.5 -14.5 5.5 -22.5s-0.333008 -17.667 -1 -29s-2.5 -22.166 -5.5 -32.499s-7.83301 -19.166 -14.5 -26.499s-15.667 -11 -27 -11c-6.66699 0 -13.167 1.16699 -19.5 3.5s-9.5 8.16602 -9.5 17.499c0 4 0.666992 6.83301 2 8.5l7 8.5
c2 2.66699 6.83301 7.66699 14.5 15s12.5 12.666 14.5 15.999c4 5.33301 5.66699 9 5 11s-1 6.33301 -1 13c-28 0 -49.333 -9 -64 -27s-22 -39.667 -22 -65c0 -13.333 2.83301 -24.166 8.5 -32.499s13 -15.333 22 -21s18.833 -10.667 29.5 -15s21 -9.5 31 -15.5
c32 -19.333 58.833 -42.833 80.5 -70.5s32.5 -61.167 32.5 -100.5c0 -27.333 -5 -51.666 -15 -72.999s-21.667 -43.666 -35 -66.999c-4.66699 -9.33301 -11.5 -18.5 -20.5 -27.5s-19 -17.167 -30 -24.5s-22.333 -13.333 -34 -18s-22.5 -7 -32.5 -7c-18 0 -36.167 2 -54.5 6
s-36.166 8.66699 -53.499 14c-9.33301 3.33301 -21.5 8.33301 -36.5 15s-30.667 14.667 -47 24s-32.666 19.5 -48.999 30.5s-31.166 22.333 -44.499 34s-24.166 23.334 -32.499 35.001s-12.5 23.167 -12.5 34.5z" />
    <glyph glyph-name="T" unicode="T" horiz-adv-x="511" 
d="M271 30c0 24.667 1.33203 49.8408 3.99902 75.5078s6 51.334 10 77.001s8.33301 50.834 13 75.501s9 48.667 13 72c0 0.666992 0.166992 2.33398 0.5 5.00098s0.5 4.33398 0.5 5.00098c0 3.33301 -0.5 8.66602 -1.5 15.999s-4.16699 11 -9.5 11h-2
c-0.666992 -0.666992 -3 -1.66699 -7 -3l-12.5 -4l-12.5 -4c-4 -1.33301 -6.33301 -2 -7 -2s-2 -0.166992 -4 -0.5s-3.66699 -0.5 -5 -0.5c-0.666992 0 -1.83398 0.166992 -3.50098 0.5s-2.83398 0.5 -3.50098 0.5l-51.5 16c-15 4.66699 -29.833 9 -44.5 13
s-29.667 7.66699 -45 11s-33 6.33301 -53 9c-20.667 7.33301 -37.667 19.5 -51 36.5s-20 36.5 -20 58.5c0 14 3.66699 26.167 11 36.5s16.5 19.166 27.5 26.499s22.833 13.333 35.5 18s24.667 8.66699 36 12c42 11.333 82.833 19.666 122.5 24.999s81.5 8 125.5 8
c12 0 22 -0.166992 30 -0.5s18.667 -1.5 32 -3.5c5.33301 -4 9 -9.66699 11 -17v-9.5v-14.5v-15v-10c0 -4.66699 0.166992 -10.167 0.5 -16.5s0.833008 -12.5 1.5 -18.5l2 -22l12 -12c0.666992 0 2.5 -0.166992 5.5 -0.5s5.5 -0.5 7.5 -0.5s5.33301 0.166992 10 0.5
s7.66699 0.5 9 0.5c3.33301 0 9.83301 0.666992 19.5 2s19.834 2.66602 30.501 3.99902s20.834 2.66602 30.501 3.99902s16.167 2 19.5 2c10 0.666992 23 1.16699 39 1.5s32.333 1 49 2s32.834 3 48.501 6s28.167 8.16699 37.5 15.5h26
c24.667 0 45.834 -4.83301 63.501 -14.5s26.5 -28.834 26.5 -57.501c0 -16.667 -5 -27.334 -15 -32.001s-22 -7 -36 -7c-22.667 0 -42.667 3.5 -60 10.5l-56 22.5h-11c-5.33301 0 -11 0.166992 -17 0.5s-11.833 0.5 -17.5 0.5h-11.5h-15c-6 0 -12 -0.166992 -18 -0.5
s-11.333 -0.5 -16 -0.5h-8c-5.33301 0 -12.833 -0.833008 -22.5 -2.5s-19.834 -3.33398 -30.501 -5.00098s-20.834 -3.33398 -30.501 -5.00098s-17.167 -2.83398 -22.5 -3.50098c-7.33301 -2 -13.333 -4.5 -18 -7.5s-7.66699 -8.83301 -9 -17.5
c0.666992 -34 1 -69.5 1 -106.5s-1.83301 -74 -5.5 -111s-10 -73.167 -19 -108.5s-22.5 -68.333 -40.5 -99c-4.66699 -8.66699 -11.334 -18.334 -20.001 -29.001s-18.667 -16 -30 -16s-20.166 3.66699 -26.499 11s-11.166 16.166 -14.499 26.499s-5.5 21 -6.5 32
s-1.5 20.167 -1.5 27.5zM92.999 533.007c0 -4.66699 1.16699 -9.99902 3.5 -15.999s5.33301 -11.833 9 -17.5s7.83398 -10.334 12.501 -14.001s9.66699 -5.5 15 -5.5c11.333 0 23.333 2.83301 36 8.5s25.667 8.5 39 8.5c19.333 0 37.833 -2.83301 55.5 -8.5
s35.5 -8.5 53.5 -8.5c3.33301 0 7.66602 0.333008 12.999 1s10.666 1.83398 15.999 3.50098s10 4.16699 14 7.5s6 7.66602 6 12.999v86l-3 5h-103c-6 0 -18.167 -1.5 -36.5 -4.5s-37.166 -7.16699 -56.499 -12.5s-36.5 -11.833 -51.5 -19.5s-22.5 -16.5 -22.5 -26.5z
M302.999 7.00781c3.33301 -6 7.33105 -8.99902 11.998 -8.99902s8.66699 2.5 12 7.5s5.83301 10.833 7.5 17.5s2.83398 13.167 3.50098 19.5s1 10.833 1 13.5c0.666992 4.66699 1.33398 10.834 2.00098 18.501s1.5 15.5 2.5 23.5s1.83301 15 2.5 21s1 9.66699 1 11
c0 0.666992 0.166992 6.16699 0.5 16.5s0.5 18.166 0.5 23.499c0 3.33301 -0.166992 10.166 -0.5 20.499s-0.5 17.166 -0.5 20.499c-1.33301 9.33301 -5.33301 16 -12 20c-3.33301 -1.33301 -6.5 -6.83301 -9.5 -16.5s-5.66699 -21.5 -8 -35.5s-4.33301 -29.167 -6 -45.5
s-3.16699 -31.666 -4.5 -45.999s-2.33301 -27 -3 -38s-1 -17.833 -1 -20.5v-22z" />
    <glyph glyph-name="U" unicode="U" horiz-adv-x="352" 
d="M328 457c0 8 -0.663086 15.166 -1.99609 21.499s-3 12.666 -5 18.999s-3.66699 13 -5 20s-2 15.167 -2 24.5c0 18 3.66699 34.5 11 49.5s18.333 22.5 33 22.5c4 0 7 -0.333008 9 -1c9.33301 -3.33301 16.666 -9.83301 21.999 -19.5s8 -21.834 8 -36.501
c0 -6.66699 -1.16699 -19.5 -3.5 -38.5s-5.83301 -42.167 -10.5 -69.5c-4 -24 -8.66699 -50.333 -14 -79s-11.333 -58.167 -18 -88.5s-14.167 -61.166 -22.5 -92.499s-17.5 -61.333 -27.5 -90c-7.33301 -20.667 -14.666 -38.334 -21.999 -53.001
s-15.666 -26.5 -24.999 -35.5s-19.833 -15.5 -31.5 -19.5s-25.167 -6 -40.5 -6c-19.333 0 -35.833 5.5 -49.5 16.5s-25 25.333 -34 43s-16.333 37.334 -22 59.001s-9.83398 43.334 -12.501 65.001s-4.5 42.167 -5.5 61.5s-1.5 35.333 -1.5 48
c0 13.333 0.666992 35.833 2 67.5s2.66602 73.5 3.99902 125.5c0 4 -1.16699 8.5 -3.5 13.5s-7.16602 7.5 -14.499 7.5c-8.66699 -1.33301 -15 -5.33301 -19 -12s-7 -12.667 -9 -18c-1.33301 -5.33301 -3.16602 -8.16602 -5.49902 -8.49902s-3.5 2.83398 -3.5 9.50098
c0 9.33301 0.666992 17 2 23s3 11.667 5 17c4.66699 11.333 11 20.666 19 27.999s16.667 11.666 26 12.999c21.333 0 35.5 -9.33301 42.5 -28s8.83301 -44.334 5.5 -77.001l-5 -46c-2 -18 -3.5 -37.333 -4.5 -58s-1.33301 -42 -1 -64s2.16602 -43.333 5.49902 -64
c7.33301 -15.333 13 -26.5 17 -33.5s10.333 -12.833 19 -17.5c0.666992 -1.33301 2.33398 -3.66602 5.00098 -6.99902s5.16699 -6.83301 7.5 -10.5s4.16602 -7.16699 5.49902 -10.5s1.66602 -5.66602 0.999023 -6.99902c6 -8 12 -15 18 -21s11 -10.667 15 -14
c2.66699 -0.666992 6.66699 -1 12 -1c14 0 26.667 4.83301 38 14.5s21.166 23 29.499 40s15.666 37.167 21.999 60.5s11.833 48.333 16.5 75c5.33301 28.667 10.166 59.5 14.499 92.5s5.83301 62.833 4.5 89.5z" />
    <glyph glyph-name="V" unicode="V" horiz-adv-x="334" 
d="M-27 352c0 8.66699 3.67188 17.1709 11.0049 25.5039s16.333 15.666 27 21.999s21.667 11.333 33 15s20.666 5.5 27.999 5.5c17.333 0 32.166 -4 44.499 -12s22.5 -18.167 30.5 -30.5s14 -26.166 18 -41.499s6 -30.333 6 -45c0 -22 -2.83301 -43.167 -8.5 -63.5
s-10.834 -41.166 -15.501 -62.499c2.66699 -6 6.33398 -12.833 11.001 -20.5s10.667 -11.5 18 -11.5c6 0 12 2 18 6s11.333 8.66699 16 14s9 11.166 13 17.499s7 12.166 9 17.499l233 318l9.5 10l20 20.5l22.5 22.5c7.33301 7.33301 13.333 13 18 17
c10.667 10 22.667 19.167 36 27.5s27.5 15.666 42.5 21.999s30.167 11.333 45.5 15s30.333 5.5 45 5.5c5.33301 0 9.66602 -0.5 12.999 -1.5s5 -4.5 5 -10.5s-2.5 -10.833 -7.5 -14.5s-10.667 -6.66699 -17 -9s-12.833 -4 -19.5 -5s-12 -2.16699 -16 -3.5
c-46 -15.333 -88.333 -41 -127 -77s-74.334 -76.667 -107.001 -122s-62.667 -92.166 -90 -140.499l-75 -132.5c0 -0.666992 -0.5 -1.33398 -1.5 -2.00098s-1.5 -1.33398 -1.5 -2.00098c-6 -9.33301 -13.667 -22.333 -23 -39s-19.666 -33 -30.999 -49s-23.5 -30 -36.5 -42
s-25.833 -18 -38.5 -18c-18 0 -32.667 5.5 -44 16.5s-20.333 25.333 -27 43s-11.834 37.5 -15.501 59.5s-6.33398 43.667 -8.00098 65s-3 41.166 -4 59.499s-2.83301 32.833 -5.5 43.5c-2 8 -6 15.667 -12 23l-18 21.5c-6 7 -11.5 13.833 -16.5 20.5s-7.5 14 -7.5 22z" />
    <glyph glyph-name="W" unicode="W" horiz-adv-x="399" 
d="M2 90c0 2.66699 0.167969 7.00195 0.500977 13.002s0.666016 12.5 0.999023 19.5s0.666016 13.5 0.999023 19.5s0.833008 10 1.5 12c8.66699 66.667 19.667 132.667 33 198s32.666 129 57.999 191c0.666992 2 2.33398 6.16699 5.00098 12.5s4.66699 10.5 6 12.5
c1.33301 3.33301 4.5 8 9.5 14s9.83301 8.33301 14.5 7c1.33301 0 3.33301 -1.33301 6 -4s4.33398 -4.66699 5.00098 -6l1 -3c0 -5.33301 -1 -10.166 -3 -14.499s-3.66699 -9.16602 -5 -14.499c-0.666992 -2 -1.66699 -7.16699 -3 -15.5s-2.66602 -17.333 -3.99902 -27
s-2.66602 -18.667 -3.99902 -27s-2.33301 -13.5 -3 -15.5c0 -1.33301 -0.333008 -3.16602 -1 -5.49902s-1.33398 -4.16602 -2.00098 -5.49902c-1.33301 -5.33301 -3.16602 -14.5 -5.49902 -27.5l-7.5 -41.5l-7.5 -41.5c-2.33301 -13 -3.83301 -22.167 -4.5 -27.5
c-3.33301 -21.333 -7.16602 -43.833 -11.499 -67.5s-6.5 -46.5 -6.5 -68.5c0 -6 0.333008 -13 1 -21s2.33398 -15.5 5.00098 -22.5s6.5 -13 11.5 -18s11.5 -7.5 19.5 -7.5c9.33301 0 17.5 4.66699 24.5 14s13 20.5 18 33.5s8.83301 26.333 11.5 40
s4.33398 24.5 5.00098 32.5c0 2.66699 0.166992 7.16699 0.5 13.5s0.666016 13.166 0.999023 20.499s0.666016 14.166 0.999023 20.499s0.5 10.5 0.5 12.5c1.33301 6 3.5 12.667 6.5 20s6.83301 14 11.5 20s9.83398 11 15.501 15s12.167 6 19.5 6
c9.33301 0 16.333 -4 21 -12s7.33398 -15.667 8.00098 -23l7 -93c0 -4 1.5 -8 4.5 -12s6.5 -6 10.5 -6s10.167 9.16699 18.5 27.5l32 68.5c13 27.333 28 56.833 45 88.5s36.167 61.167 57.5 88.5s44.666 50.166 69.999 68.499s53 27.5 83 27.5c16 0 30.833 -4 44.5 -12
s26.167 -18 37.5 -30s21.666 -24.833 30.999 -38.5s18 -25.834 26 -36.501c0 -0.666992 0.5 -1.83398 1.5 -3.50098s1.5 -2.83398 1.5 -3.50098v-2c0 -4.66699 -1.16699 -7.83398 -3.5 -9.50098s-5.16602 -2.5 -8.49902 -2.5h-5l-71 67c-6.66699 6.66699 -16.5 12 -29.5 16
s-23.833 6 -32.5 6c-24.667 0 -47.334 -7.33301 -68.001 -22s-39.5 -32.5 -56.5 -53.5s-32.333 -43.5 -46 -67.5l-36.5 -63l-9.5 -26.5l-14 -39.5c-5 -14 -9.5 -27.167 -13.5 -39.5s-7 -20.833 -9 -25.5l-7 -32l-18 -128
c1.33301 -2.66699 1.16602 -5.33398 -0.500977 -8.00098s-4 -5 -7 -7s-6.16699 -3.5 -9.5 -4.5s-6 -1.5 -8 -1.5c-6.66699 0 -12.334 1.5 -17.001 4.5s-8.83398 6.83301 -12.501 11.5s-7 9.83398 -10 15.501s-6.16699 10.834 -9.5 15.501h-10c-12 0 -21.333 -3.5 -28 -10.5
s-12 -15.5 -16 -25.5s-7.5 -21.167 -10.5 -33.5s-6.66699 -23.5 -11 -33.5s-10.5 -18.5 -18.5 -25.5s-18.667 -10.5 -32 -10.5c-16.667 0 -31 5.83301 -43 17.5s-22 26 -30 43s-14 34.833 -18 53.5s-6 35 -6 49v7z" />
    <glyph glyph-name="X" unicode="X" horiz-adv-x="362" 
d="M261 195l12.999 -53.498c4.66699 -19 8.66699 -38 12 -57s6.16602 -37.5 8.49902 -55.5s3.5 -34.667 3.5 -50c0 -9.33301 -1.5 -16.5 -4.5 -21.5s-6.5 -7.5 -10.5 -7.5c-8 0 -14.5 8 -19.5 24s-10.167 33.833 -15.5 53.5s-11.666 37.5 -18.999 53.5s-17.333 24 -30 24
c-8.66699 0 -20.334 -6.16699 -35.001 -18.5s-31 -28.5 -49 -48.5s-36.667 -42.333 -56 -67s-38 -49.667 -56 -75l-50 -72l-38 -57l-39.5 -60l-35.5 -50c-11.333 -15.333 -23.166 -29.833 -35.499 -43.5l-39.5 -42.5c-10.667 -9.33301 -20.334 -14 -29.001 -14
c-3.33301 0 -6.16602 0.666992 -8.49902 2s-3.5 3.66602 -3.5 6.99902c0 4 3 9 9 15c30.667 28 58 60.833 82 98.5l76 117.5l56.5 89l58.5 93l57 88l52 75c13.333 18 22.833 34.333 28.5 49s8.5 28.667 8.5 42c0 8.66699 -1.16699 16.834 -3.5 24.501
s-5.16602 14.834 -8.49902 21.501c-17.333 32.667 -33.666 65.5 -48.999 98.5s-23 65.833 -23 98.5c0 20.667 6 36.667 18 48s25.333 17 40 17c12.667 0 24.167 -4.33301 34.5 -13s20 -19.334 29 -32.001s17.5 -26.5 25.5 -41.5s16.167 -28.833 24.5 -41.5
s17 -23.334 26 -32.001s18.833 -13 29.5 -13c5.33301 0 10.666 1 15.999 3s10.333 5.33301 15 10l105.5 96.5c35 31 74.833 55.833 119.5 74.5c4 1.33301 6.66699 2 8 2c6.66699 0 10 -3.33301 10 -10c0 -8.66699 -7.33301 -16.667 -22 -24
c-19.333 -10 -41.5 -25.667 -66.5 -47s-50 -44.666 -75 -69.999s-48.5 -50.833 -70.5 -76.5s-39.667 -47.834 -53 -66.501c-7.33301 -9.33301 -12.833 -17.833 -16.5 -25.5s-5.5 -16.834 -5.5 -27.501c0 -2 0.166992 -4 0.5 -6s0.5 -4 0.5 -6z" />
    <glyph glyph-name="Y" unicode="Y" horiz-adv-x="312" 
d="M140 -148c3.33301 21.333 8.33105 40.6582 14.998 57.9912c4.66699 28 8.83398 54.333 12.501 79s7.5 48.667 11.5 72c0.666992 3.33301 1.16699 6.33301 1.5 9s0.5 5 0.5 7c0 14.667 -2.5 27.334 -7.5 38.001s-10.5 21.334 -16.5 32.001s-11.5 22.334 -16.5 35.001
s-7.5 28 -7.5 46c0 16 2 32.5 6 49.5s8.5 33.833 13.5 50.5s9.5 33.5 13.5 50.5s6 33.5 6 49.5c0 24.667 -3.16699 42.334 -9.5 53.001s-14.166 16 -23.499 16c-12 0 -26 -8.33301 -42 -25s-31.167 -37.334 -45.5 -62.001s-26.333 -51.167 -36 -79.5
s-14.5 -54.166 -14.5 -77.499c0 -9.33301 1.33301 -16.833 4 -22.5s5.83398 -11 9.50098 -16s6.83398 -10.167 9.50098 -15.5s4 -11.666 4 -18.999c0 -12 -5 -22.667 -15 -32s-20.667 -14 -32 -14c-24.667 0 -37 18.667 -37 56c0 28 4 56.833 12 86.5s18.5 58.667 31.5 87
s27.5 55 43.5 80s32 46.833 48 65.5s31 33.5 45 44.5s25.667 16.5 35 16.5c25.333 0 42 -7 50 -21s12 -39.667 12 -77v-8v-8c3.33301 -4.66699 5.66602 -12.167 6.99902 -22.5s3.33301 -21.166 6 -32.499s6.66699 -22 12 -32s13.666 -17.333 24.999 -22l41.5 79.5
c15.667 29.667 34.167 60.334 55.5 92.001s46 63.334 74 95.001s60.333 61.167 97 88.5c4.66699 4 9.66699 6 15 6c6.66699 0 10 -3.33301 10 -10c0 -5.33301 -3.33301 -11 -10 -17c-21.333 -19.333 -43.666 -43.166 -66.999 -71.499s-45.833 -59 -67.5 -92
s-41.667 -67.333 -60 -103s-32.833 -70.167 -43.5 -103.5c-12 -37.333 -24.333 -68.333 -37 -93s-22.334 -48.334 -29.001 -71.001l-42 -191c-2 -16 -4.16699 -29.167 -6.5 -39.5s-4.5 -19.5 -6.5 -27.5s-3.33301 -15.5 -4 -22.5s-0.666992 -15.167 0 -24.5
c-0.666992 -2 -1.5 -5 -2.5 -9s-2.16699 -8.33301 -3.5 -13s-2.83301 -9 -4.5 -13s-3.5 -6.66699 -5.5 -8l-39 -182c-2 -10 -5.16699 -20 -9.5 -30s-10 -19.167 -17 -27.5s-15 -15.166 -24 -20.499s-19.167 -8 -30.5 -8c-10 0 -19.5 3.66699 -28.5 11
s-13.5 16.666 -13.5 27.999c0 5.33301 1.83301 10 5.5 14s8.5 8.33301 14.5 13s12.667 10.334 20 17.001s15 15.667 23 27l15 63z" />
    <glyph glyph-name="Z" unicode="Z" horiz-adv-x="539" 
d="M238 14c-14 0 -28.0039 -1.33203 -42.0039 -3.99902s-28 -5.5 -42 -8.5s-28 -5.83301 -42 -8.5s-28 -4 -42 -4s-27.5 3.5 -40.5 10.5s-19.5 18.167 -19.5 33.5v10c0 2.66699 0.333008 5 1 7c0.666992 1.33301 3.33398 5.33301 8.00098 12s7.66699 10.667 9 12l23 41.5
c6.66699 11.667 17.667 23.5 33 35.5c0.666992 0.666992 3.5 2.66699 8.5 6l17 11.5c6.33301 4.33301 12.833 8.5 19.5 12.5s12 7.33301 16 10c0 0.666992 1.16699 1.66699 3.5 3s3.83301 2 4.5 2c2 0.666992 5.5 2.66699 10.5 6s10.167 7 15.5 11l16 11.5l11 7.5
c0 0.666992 0.333008 1.33398 1 2.00098c1.33301 1.33301 2 2.33301 2 3c12 7.33301 25.5 15 40.5 23l45.5 24.5c15.333 8.33301 30 17 44 26s26.333 18.167 37 27.5c6.66699 6 11 12.5 13 19.5s3 14.833 3 23.5c0 2.66699 -0.166992 6.33398 -0.5 11.001s-2.5 7 -6.5 7
h-110c-6.66699 0 -13.5 1.5 -20.5 4.5s-13.5 7 -19.5 12s-11 10.833 -15 17.5s-6 13.334 -6 20.001c0 2.66699 0.333008 6.5 1 11.5s1.66699 9.83301 3 14.5s3.5 8.66699 6.5 12s6.83301 5 11.5 5h2l5 -5c2 -2 3 -3.33301 3 -4s-0.5 -2.5 -1.5 -5.5s-1.5 -5.16699 -1.5 -6.5
c-0.666992 0 -1 -1.5 -1 -4.5v-6.5c0 -7.33301 3 -13 9 -17s12.333 -6.33301 19 -7c3.33301 -0.666992 9.5 -1 18.5 -1h18.5c16.667 0 31.334 1.5 44.001 4.5s24.834 7 36.501 12s23.334 11 35.001 18l38.5 22.5c1.33301 0.666992 4.83301 2 10.5 4
s8.83398 3.33301 9.50098 4c12 5.33301 20.333 11.333 25 18s9.5 13 14.5 19s11.833 11 20.5 15s22.667 6 42 6c2 0 6.66699 -0.333008 14 -1s12 -1 14 -1c6.66699 -2 12.834 -6.66699 18.501 -14s10.5 -15.833 14.5 -25.5s7 -19.5 9 -29.5s3 -18.333 3 -25
c0 -29.333 -7.33301 -52.833 -22 -70.5s-32.834 -32 -54.501 -43s-45 -20.167 -70 -27.5s-47.833 -15.333 -68.5 -24c-54 -23.333 -107 -49.833 -159 -79.5s-101.667 -62.5 -149 -98.5c-4.66699 -3.33301 -10.667 -9.16602 -18 -17.499s-11 -15.5 -11 -21.5
c0 -4 1.5 -7 4.5 -9s6.66699 -3.5 11 -4.5s8.5 -1.5 12.5 -1.5h9c17.333 0 35.166 1.5 53.499 4.5s36.5 4.5 54.5 4.5c20 0 38.333 -2.83301 55 -8.5s32.5 -13 47.5 -22s29.667 -18.667 44 -29s29.5 -20.166 45.5 -29.499c36.667 -22 75.167 -40.333 115.5 -55
s82.5 -22 126.5 -22c23.333 0 48.5 1 75.5 3s53.5 6.33301 79.5 13s50.667 15.667 74 27s43.333 26.666 60 45.999c2 2 3.5 5.16699 4.5 9.5s1.83301 8.66602 2.5 12.999s1 8.16602 1 11.499v7c0 2 0.166992 5.16699 0.5 9.5s0.5 9.16602 0.5 14.499
s-0.166992 10.333 -0.5 15s-0.5 8 -0.5 10l4 4h2c4.66699 0 8.33398 -2.33301 11.001 -7s4.5 -10.167 5.5 -16.5s1.66699 -12.5 2 -18.5s0.5 -10.333 0.5 -13c0 -8 -0.166992 -15.833 -0.5 -23.5s-1.5 -15.5 -3.5 -23.5c-4.66699 -16 -14.834 -30.333 -30.501 -43
s-33.334 -23.834 -53.001 -33.501s-39.667 -17.5 -60 -23.5s-37.5 -10.333 -51.5 -13c-4.66699 -1.33301 -12.167 -2.83301 -22.5 -4.5l-32.5 -5c-11.333 -1.66699 -21.833 -3.33398 -31.5 -5.00098s-16.167 -2.5 -19.5 -2.5c-0.666992 0 -5.5 -0.166992 -14.5 -0.5
s-15.833 -0.5 -20.5 -0.5c-46.667 0 -91.667 7.33301 -135 22s-85 33.667 -125 57c-13.333 8 -26.5 16.333 -39.5 25s-26.167 16.5 -39.5 23.5s-27.166 12.833 -41.499 17.5s-29.833 7 -46.5 7z" />
    <glyph glyph-name="bracketleft" unicode="[" horiz-adv-x="354" 
d="M216 -62c-12 0 -23.498 -1.66504 -34.498 -4.99805s-21.667 -6.83301 -32 -10.5s-20.833 -7.16699 -31.5 -10.5s-22 -5 -34 -5c-15.333 0 -30 5.33301 -44 16s-21 25 -21 43c0 3.33301 0.666992 7.66602 2 12.999s3 10.833 5 16.5s4.16699 11 6.5 16
s4.5 9.16699 6.5 12.5c12.667 41.333 23.5 80.5 32.5 117.5s16.167 73.833 21.5 110.5s8.83301 74.167 10.5 112.5s1.83398 79.5 0.500977 123.5c2 18 6 31.833 12 41.5s18 14.5 36 14.5c10.667 0 21.334 -0.833008 32.001 -2.5s21.334 -2.5 32.001 -2.5
s20.167 1.5 28.5 4.5s16.166 6.5 23.499 10.5s14.166 7.5 20.499 10.5s13.166 4.5 20.499 4.5c5.33301 0 9.16602 -1.66699 11.499 -5s3.5 -7.33301 3.5 -12c0 -0.666992 -0.166992 -1.33398 -0.5 -2.00098s-0.5 -1.66699 -0.5 -3v-3c-8 -14.667 -21.333 -25.667 -40 -33
s-37.667 -13.666 -57 -18.999s-36.333 -11.666 -51 -18.999s-22 -18.333 -22 -33c0 -0.666992 0.166992 -2.66699 0.5 -6s0.833008 -6.83301 1.5 -10.5s1.16699 -7.33398 1.5 -11.001s0.5 -5.83398 0.5 -6.50098v-40c0 -42.667 -3.16699 -85.667 -9.5 -129
s-14.166 -86 -23.499 -128c-3.33301 -15.333 -7.5 -30.833 -12.5 -46.5s-7.5 -31.5 -7.5 -47.5c0 -6.66699 2.33301 -12 7 -16s9.66699 -6 15 -6c17.333 0 34.666 3 51.999 9s34.666 9 51.999 9c8.66699 0 20 -3.5 34 -10.5s27.5 -15.5 40.5 -25.5
s24.167 -20.833 33.5 -32.5s14 -22.167 14 -31.5c0 -4 -1.66699 -8.66699 -5 -14s-7.33301 -7.33301 -12 -6s-9.5 3.83301 -14.5 7.5s-9.5 6.5 -13.5 8.5c-16.667 9.33301 -31.5 16.833 -44.5 22.5s-28.5 8.5 -46.5 8.5z" />
    <glyph glyph-name="backslash" unicode="\" horiz-adv-x="304" 
d="M0 467c-4.66699 6.66699 -9.99902 15.5 -15.999 26.5s-9.33301 20.833 -10 29.5c-1.33301 15.333 2.5 30.5 11.5 45.5s20.5 22.833 34.5 23.5c3.33301 0.666992 5.83301 0 7.5 -2s4.16699 -5.33301 7.5 -10c12.667 -20 27.834 -48.5 45.501 -85.5s35.5 -76.333 53.5 -118
s34.667 -82 50 -121s27 -70.5 35 -94.5l67 -203c4.66699 -16.667 9.16699 -35.334 13.5 -56.001s7.16602 -40 8.49902 -58c0 -4 -2.33301 -8.16699 -7 -12.5s-7.66699 -3.83301 -9 1.5c-6.66699 22.667 -15.334 50.5 -26.001 83.5l-32 94.5
c-14 40.667 -30.667 82.167 -50 124.5s-39.5 83.333 -60.5 123s-42.167 77.334 -63.5 113.001s-41.333 67.5 -60 95.5z" />
    <glyph glyph-name="bracketright" unicode="]" horiz-adv-x="327" 
d="M-16 -112c0 4 1.16602 8.00293 3.49902 12.0029s4.5 6.66699 6.5 8c10 8 22.667 17.333 38 28s28.666 19 39.999 25c7.33301 4 14.833 6.66699 22.5 8s15.167 3.16602 22.5 5.49902s14.166 5.5 20.499 9.5s11.833 10.333 16.5 19c2 36.667 3.5 73 4.5 109
s5.16699 72 12.5 108c2.66699 16 7 32.667 13 50l18 52c6 17.333 11.167 34.333 15.5 51s6.5 32.667 6.5 48c0 10.667 -1.83301 21.167 -5.5 31.5s-10.167 17.833 -19.5 22.5h-70c-1.33301 0 -3.83301 0.166992 -7.5 0.5l-11.5 1c-4 0.333008 -7.83301 0.833008 -11.5 1.5
s-6.5 1.33398 -8.5 2.00098c-3.33301 0 -7.33301 0.666992 -12 2s-9.33398 3.33301 -14.001 6s-8.66699 5.66699 -12 9s-5 7.66602 -5 12.999c0 8 2.5 13.833 7.5 17.5s10.667 6 17 7s12.833 1.33301 19.5 1s12 -0.166016 16 0.500977c4 0 10 0.5 18 1.5
s16.167 1.83301 24.5 2.5s15.833 1.5 22.5 2.5s11 1.5 13 1.5c12 2 23.833 5 35.5 9l34.5 11.5c11.333 3.66699 22.833 7 34.5 10s23.5 4.5 35.5 4.5c15.333 0 27.666 -7.33301 36.999 -22s14 -30.334 14 -47.001c0 -18 -3.83301 -34.667 -11.5 -50
s-16.834 -30.333 -27.501 -45l-33 -43.5c-11.333 -14.333 -20.333 -28.833 -27 -43.5c-21.333 -44 -37.333 -87.667 -48 -131s-16 -90.666 -16 -141.999c0 -11.333 0.5 -23 1.5 -35s3.16699 -23.333 6.5 -34c2 -6 4.66699 -12.833 8 -20.5s5 -15.167 5 -22.5
c0 -6 -1.5 -10.833 -4.5 -14.5s-6.66699 -6.33398 -11 -8.00098s-8.83301 -2.66699 -13.5 -3s-8.66699 -0.5 -12 -0.5c-5.33301 0 -10.166 1.16699 -14.499 3.5l-13.5 7.5l-13.5 7.5c-4.33301 2.33301 -9.16602 3.5 -14.499 3.5c-11.333 0 -23.166 -1.83301 -35.499 -5.5
s-24.666 -8.16699 -36.999 -13.5s-24.166 -11.333 -35.499 -18s-21.666 -13.334 -30.999 -20.001h-5c-2 0 -4 0.166992 -6 0.5s-3 2.16602 -3 5.49902z" />
    <glyph glyph-name="asciicircum" unicode="^" horiz-adv-x="393" 
d="M11 362c0 18.667 6.32812 38.5039 18.9951 59.5039s27.834 41.167 45.501 60.5s36 37 55 53s34.833 28.667 47.5 38h7c7.33301 0 12.833 -2.33301 16.5 -7s6.66699 -10.334 9 -17.001s4.16602 -13.834 5.49902 -21.501s3 -14.167 5 -19.5
c19.333 -42 43.833 -75.167 73.5 -99.5s63.167 -43.833 100.5 -58.5l4 -12v-2c0 -6.66699 -3.16699 -10.834 -9.5 -12.501s-11.166 -2.5 -14.499 -2.5c-0.666992 0 -2.16699 0.166992 -4.5 0.5s-4.16602 0.5 -5.49902 0.5c-3.33301 0.666992 -8.66602 2.16699 -15.999 4.5
s-15.333 4.66602 -24 6.99902s-16.834 4.66602 -24.501 6.99902s-12.834 4.16602 -15.501 5.49902c-28 10.667 -51.667 24 -71 40s-35.666 38 -48.999 66c-1.33301 3.33301 -3 5 -5 5h-8c-8 0 -18.167 -2.66699 -30.5 -8s-24.166 -12.166 -35.499 -20.499
s-21.166 -18 -29.499 -29s-12.5 -22.167 -12.5 -33.5c0 -4 0.833008 -7.5 2.5 -10.5s3.66699 -5.66699 6 -8s4.33301 -5 6 -8s2.5 -6.83301 2.5 -11.5c0 -5.33301 -2 -9.16602 -6 -11.499s-7.66699 -3.5 -11 -3.5c-9.33301 0 -17.166 5.5 -23.499 16.5
s-9.5 21.833 -9.5 32.5z" />
    <glyph glyph-name="underscore" unicode="_" horiz-adv-x="500" 
d="M380 -59c13.333 0 29.165 -1.33691 47.498 -4.00391s36.166 -6.33398 53.499 -11.001c0.666992 -3.33301 -0.666016 -7.16602 -3.99902 -11.499s-6.33301 -6.5 -9 -6.5c-17.333 -0.666992 -38.666 -1.16699 -63.999 -1.5s-52 -0.666016 -80 -0.999023l-84 -1
c-28 -0.333008 -53.167 -0.5 -75.5 -0.5s-40.833 0.166992 -55.5 0.5s-22.667 0.5 -24 0.5c-2.66699 0 -6.33398 -0.166992 -11.001 -0.5s-8.66699 -0.5 -12 -0.5c-5.33301 0.666992 -11.166 1.5 -17.499 2.5s-10.5 1.5 -12.5 1.5
c-1.33301 1.33301 -2.66602 3.33301 -3.99902 6c-2.66699 5.33301 -2.66699 11.333 0 18s4.66699 10.834 6 12.501s3 2.83398 5 3.50098c6 -1.33301 14 -2.16602 24 -2.49902s16.333 -0.5 19 -0.5z" />
    <glyph glyph-name="grave" unicode="`" horiz-adv-x="255" 
d="M60 312c-3.33301 4 -5.66602 8.50098 -6.99902 13.501s-1.66602 10 -0.999023 15s2.5 9.5 5.5 13.5s7.5 6.33301 13.5 7c12 2 21.5 -0.666992 28.5 -8s12.833 -16 17.5 -26c0 -0.666992 1 -3.5 3 -8.5s4.66699 -11.167 8 -18.5c3.33301 -8 5.16602 -13.333 5.49902 -16
s1.16602 -6.66699 2.49902 -12c2 -7.33301 4.5 -13.333 7.5 -18s1.83301 -9.66699 -3.5 -15c-10 1.33301 -17.667 3.66602 -23 6.99902s-10.333 8.33301 -15 15l-19.5 26c-5 6.66699 -12.5 15 -22.5 25z" />
    <glyph glyph-name="a" unicode="a" horiz-adv-x="269" 
d="M133 6l-46.998 -21.999h-6c-16.667 0 -31.834 5.5 -45.501 16.5s-20.5 26.833 -20.5 47.5c0 10.667 3 23.5 9 38.5s13.5 29.167 22.5 42.5s19 24.666 30 33.999s21.5 14 31.5 14c6 0 9 -2.33301 9 -7l-1 -3c-7.33301 -7.33301 -15 -15.5 -23 -24.5s-14 -18.833 -18 -29.5
c3.33301 -7.33301 9 -11 17 -11c12.667 0 22.834 5.33301 30.501 16l21.5 31v10c0 5.33301 -0.5 10.333 -1.5 15s-1.5 9.33398 -1.5 14.001c0 4 3 8.5 9 13.5s10.667 7.5 14 7.5c4 0 8 -3.33301 12 -10s7.66699 -14.334 11 -23.001s6.16602 -17.334 8.49902 -26.001
s3.83301 -14.667 4.5 -18c1.33301 -11.333 2.33301 -24.666 3 -39.999s2.5 -30.166 5.5 -44.499s8.16699 -26.5 15.5 -36.5s18.666 -15 33.999 -15c5.33301 0 7.83301 0.5 7.5 1.5s2.16699 1.5 7.5 1.5s9.5 -2 12.5 -6s4.5 -8.66699 4.5 -14
c0 -8.66699 -1 -15.334 -3 -20.001s-4.5 -8 -7.5 -10s-6.66699 -3 -11 -3h-12.5c-5.33301 0.666992 -10.5 1 -15.5 1s-13.167 1.66699 -24.5 5c-6.66699 2 -13.334 6 -20.001 12l-20.5 18l-20 16.5c-6.33301 5 -12.166 7.5 -17.499 7.5h-4z" />
    <glyph glyph-name="b" unicode="b" horiz-adv-x="242" 
d="M85 35c0 8.66699 3.49609 14.001 10.4961 16.001s14.667 3.83301 23 5.5s16 4.83398 23 9.50098s10.5 14 10.5 28c0 2 -0.5 4.5 -1.5 7.5s-2.83301 5.16699 -5.5 6.5c-1.33301 0 -3.66602 0.166992 -6.99902 0.5s-5.66602 0.5 -6.99902 0.5
c-14.667 0 -24.667 -3.33301 -30 -10s-9.33301 -13.834 -12 -21.501s-5.83398 -14.834 -9.50098 -21.501s-11.167 -10 -22.5 -10c-7.33301 0 -13.666 2.66699 -18.999 8s-8 11.666 -8 18.999v6c10 28 18.5 55.333 25.5 82s10.5 54.667 10.5 84
c0 34.667 -4.83301 68.667 -14.5 102s-24.167 63.5 -43.5 90.5s-43.166 49.5 -71.499 67.5s-61.166 29.333 -98.499 34c-1.33301 0 -3.83301 0.166992 -7.5 0.5l-11.5 1l-12 1c-4 0.333008 -6.33301 0.5 -7 0.5c-3.33301 0.666992 -5.16602 1.16699 -5.49902 1.5
s-0.5 1.83301 -0.5 4.5c0 4.66699 1.5 7.83398 4.5 9.50098s6.83301 3.5 11.5 5.5h18c23.333 0 45.666 -3.5 66.999 -10.5s42 -15.5 62 -25.5c26 -12.667 48.5 -29 67.5 -49s34.833 -42.167 47.5 -66.5s22.167 -50.333 28.5 -78s9.5 -55.5 9.5 -83.5
c0 -9.33301 -0.5 -19 -1.5 -29s-1.5 -19.667 -1.5 -29c0 -4.66699 0.5 -7.5 1.5 -8.5s4.16699 -1.5 9.5 -1.5c9.33301 0 18.666 1.16699 27.999 3.5s18.666 3.5 27.999 3.5c18 0 30.667 -5.66699 38 -17s11 -25.333 11 -42c0 -12 -2.5 -24.167 -7.5 -36.5
s-11.167 -24.333 -18.5 -36s-15.666 -22.5 -24.999 -32.5s-18.333 -18.667 -27 -26l-12 -6h-3c-11.333 0 -21.666 4 -30.999 12s-14 18 -14 30z" />
    <glyph glyph-name="c" unicode="c" 
d="M15 64c0 14.667 8.16602 30.502 24.499 47.502s35.666 32.667 57.999 47s45 26.333 68 36s41.167 14.5 54.5 14.5h7c3.33301 0 6.5 -0.5 9.5 -1.5s5.66699 -2.33301 8 -4s3.5 -4.16699 3.5 -7.5c0 -7.33301 -2.66699 -12.833 -8 -16.5s-11.333 -5.5 -18 -5.5
c-4.66699 0 -8.66699 1.33301 -12 4s-7 4 -11 4c-7.33301 0 -17.833 -3.83301 -31.5 -11.5s-27.167 -16.667 -40.5 -27s-25.166 -20.666 -35.499 -30.999s-15.5 -18.166 -15.5 -23.499c-3.33301 -6.66699 -5 -12.334 -5 -17.001c0 -5.33301 1.5 -9.33301 4.5 -12
s6.83301 -4.5 11.5 -5.5s9.16699 -1.5 13.5 -1.5h11.5c14 0 25.667 3.83301 35 11.5s18.333 16.167 27 25.5s17.667 17.833 27 25.5s21 11.5 35 11.5c11.333 0 19.5 -4.33301 24.5 -13s7.5 -17.667 7.5 -27c0 -14.667 -2.16699 -26.334 -6.5 -35.001
s-10.333 -15.5 -18 -20.5s-16.667 -8.83301 -27 -11.5s-21.5 -5.33398 -33.5 -8.00098c-15.333 -4 -29.833 -8.33301 -43.5 -13s-29.167 -7 -46.5 -7c-21.333 0 -39.666 6.16699 -54.999 18.5s-23 30.166 -23 53.499z" />
    <glyph glyph-name="d" unicode="d" horiz-adv-x="270" 
d="M238 -286c0 6.66699 1.66895 11.8311 5.00195 15.498s7 8.16699 11 13.5c15.333 22 23 47.333 23 76c0 11.333 -1.33301 23.5 -4 36.5s-6 25.833 -10 38.5s-8.5 24.834 -13.5 36.501l-14.5 32.5l-44 93l-9.5 15c-5 8 -9.83301 12 -14.5 12c-4 0 -8 -4.33301 -12 -13
s-8.83301 -18.334 -14.5 -29.001s-12.834 -20.334 -21.501 -29.001s-20 -13 -34 -13c-9.33301 0 -17.5 2.16699 -24.5 6.5s-13 10 -18 17s-8.83301 14.833 -11.5 23.5s-4 17 -4 25c0 6 0.5 14 1.5 24s2.66699 20 5 30s5.83301 18.5 10.5 25.5s11 10.5 19 10.5
c7.33301 0 12 -3.16699 14 -9.5s5.66699 -9.5 11 -9.5c2.66699 0 5.33398 2.66699 8.00098 8s5 11.333 7 18s3.66699 13.334 5 20.001s2 11.334 2 14.001v9c-12.667 36 -23.334 72.5 -32.001 109.5s-13 74.5 -13 112.5c0 20.667 1.33301 40.167 4 58.5
s7.5 35.666 14.5 51.999s16.5 31.333 28.5 45s27.333 25.834 46 36.501h4c5.33301 0 9.66602 -1.66699 12.999 -5s5 -7.66602 5 -12.999c0 -9.33301 -3.16699 -16 -9.5 -20s-9.5 -8.66699 -9.5 -14c0 -12 1.33301 -24.5 4 -37.5s4.66699 -25.833 6 -38.5
c1.33301 -18 2 -36 2 -54v-54v-44c-1.33301 -17.333 -4.16602 -34.333 -8.49902 -51s-6.5 -33.667 -6.5 -51c0 -9.33301 0.5 -17 1.5 -23s3.5 -13 7.5 -21c14.667 -29.333 30.334 -59 47.001 -89s32.167 -60.667 46.5 -92s26.166 -63.333 35.499 -96s14 -66 14 -100
c0 -7.33301 -0.833008 -17.5 -2.5 -30.5s-4.5 -26 -8.5 -39s-9.5 -24.333 -16.5 -34s-15.833 -14.5 -26.5 -14.5c-4.66699 0 -8.83398 0.5 -12.501 1.5s-5.5 3.83301 -5.5 8.5zM96.002 452.997c0 -4 0.666992 -13.167 2 -27.5s3.5 -29.166 6.5 -44.499
s6.83301 -29.166 11.5 -41.499s10.667 -18.5 18 -18.5c3.33301 0 5 0.666992 5 2s0.333008 3.66602 1 6.99902l4 24v62l-7 99c0 0.666992 -0.5 2.83398 -1.5 6.50098s-2.16699 7.5 -3.5 11.5s-3 7.5 -5 10.5s-4 4.5 -6 4.5c-4 0 -7.66699 -4 -11 -12s-6 -17.333 -8 -28
s-3.5 -21.334 -4.5 -32.001s-1.5 -18.334 -1.5 -23.001zM63.002 112.997c0 -1.33301 0.333984 -2.33008 1.00098 -2.99707c2 -2 2.66699 -3 2 -3c0 -0.666992 0.5 -1.33398 1.5 -2.00098s1.5 -1.33398 1.5 -2.00098h2c2 0 3.83301 1.5 5.5 4.5s3 6.5 4 10.5
s1.83301 7.83301 2.5 11.5s1 6.16699 1 7.5c-6 0 -10.833 -2.83301 -14.5 -8.5s-5.83398 -10.834 -6.50098 -15.501z" />
    <glyph glyph-name="e" unicode="e" horiz-adv-x="217" 
d="M151 152c-0.666992 2 -3.00098 5.66992 -7.00098 11.0029s-10.667 8 -20 8h-2c-16 -1.33301 -28 -5.83301 -36 -13.5s-13 -17.834 -15 -30.501c10 0 19.667 0.166992 29 0.5s17.833 1.16602 25.5 2.49902s13.834 3.66602 18.501 6.99902s7 8 7 14v1zM135.999 215.003
c22.667 0 39.668 -4.16602 51.001 -12.499s17.666 -19.166 18.999 -32.499v-8c0 -12 -2 -21.667 -6 -29s-9.66699 -12.833 -17 -16.5s-16 -6.16699 -26 -7.5s-21 -2.33301 -33 -3l-9 -1c-8.66699 -0.666992 -17.5 -2.83398 -26.5 -6.50098s-13.5 -8.5 -13.5 -14.5
c0 -2.66699 1.33301 -5.83398 4 -9.50098s5.83398 -7.16699 9.50098 -10.5s7.5 -6.16602 11.5 -8.49902s7 -3.5 9 -3.5c6.66699 0 12.334 1 17.001 3l14 6c4.66699 3.33301 10.334 5 17.001 5c3.33301 0 6.5 -0.333008 9.5 -1s6.16699 -2.33398 9.5 -5.00098
c2 -1.33301 3.66699 -3.83301 5 -7.5s2 -7.16699 2 -10.5s-1.33301 -6.33301 -4 -9c-1.33301 -1.33301 -6.5 -4.66602 -15.5 -9.99902s-17.5 -12 -25.5 -20c-4 -4 -8.33301 -7.5 -13 -10.5s-12.667 -4.5 -24 -4.5c-6.66699 0 -12.834 0.5 -18.501 1.5
s-9.83398 2.16699 -12.501 3.5c-24.667 11.333 -40.334 26.666 -47.001 45.999c-3.33301 10 -5 21.667 -5 35v7c0 11.333 1.5 24.5 4.5 39.5s8.5 29.167 16.5 42.5s19 25 33 35s32 15.667 54 17h10z" />
    <glyph glyph-name="f" unicode="f" horiz-adv-x="168" 
d="M58 227c-3.33301 5.33301 -5.66992 12.1699 -7.00293 20.5029s-6 12.5 -14 12.5c-4 0 -8 -0.5 -12 -1.5s-8 -1.5 -12 -1.5c-4.66699 0 -7.66699 0.5 -9 1.5s-2 3.5 -2 7.5c0 6.66699 3.33301 11.334 10 14.001c3.33301 0.666992 7.66602 1.66699 12.999 3
s10.5 3.16602 15.5 5.49902s9.5 5.16602 13.5 8.49902s6.33301 7.66602 7 12.999l24 171c0.666992 7.33301 3.33398 17 8.00098 29s10.5 23.833 17.5 35.5s15 21.834 24 30.501s18.167 13 27.5 13c8 0 14.5 -4.5 19.5 -13.5s9.16699 -19.167 12.5 -30.5
s5.66602 -22.833 6.99902 -34.5s2 -19.834 2 -24.501c0 -9.33301 -1.66699 -19 -5 -29s-7.66602 -19 -12.999 -27l-35 -58c-0.666992 -0.666992 -2.16699 -1.5 -4.5 -2.5s-3.83301 -1.5 -4.5 -1.5c-2 0 -3 1.33301 -3 4v5c0 7.33301 2.83301 14.666 8.5 21.999
s9.83398 13.666 12.501 18.999c4.66699 9.33301 7.83398 19 9.50098 29s2.5 19.667 2.5 29c0 4 -0.166992 8.66699 -0.5 14s-1.33301 10.5 -3 15.5s-4.33398 9.33301 -8.00098 13s-8.5 5.5 -14.5 5.5c-9.33301 0 -16.5 -8.33301 -21.5 -25s-8.5 -35.667 -10.5 -57
s-3.16699 -41.666 -3.5 -60.999s-0.5 -32 -0.5 -38v-21c3.33301 -4 8 -8.33301 14 -13l18 -14.5c6 -5 11.333 -10 16 -15s7 -10.167 7 -15.5c0 -8.66699 -3.33301 -15.5 -10 -20.5s-14 -9.5 -22 -13.5s-15.333 -8.33301 -22 -13s-10 -11 -10 -19v-70
c0 -0.666992 0.166992 -2.16699 0.5 -4.5s0.833008 -3.83301 1.5 -4.5l25.5 -47c9 -16 13.5 -32.667 13.5 -50c0 -11.333 -2.16699 -20.666 -6.5 -27.999s-12.166 -11 -23.499 -11c-5.33301 0 -10.666 0.666992 -15.999 2s-9.66602 4.66602 -12.999 9.99902
c-6.66699 12 -12.334 24.333 -17.001 37s-7 26 -7 40v155v0z" />
    <glyph glyph-name="g" unicode="g" horiz-adv-x="284" 
d="M-4 -360c0 33.333 3.67188 66.3281 11.0049 98.9951s16.666 65 27.999 97s24.333 63.333 39 94l43 90c-2 8.66699 -7.33301 13 -16 13s-17.5 -2.16699 -26.5 -6.5s-18.5 -6.5 -28.5 -6.5c-9.33301 0 -17.5 3 -24.5 9s-10.5 13.667 -10.5 23
c0 10 3.83301 22.833 11.5 38.5s17.167 31 28.5 46s23.333 27.833 36 38.5s24 16 34 16c4 0 6.5 -1.16699 7.5 -3.5s1.5 -5.16602 1.5 -8.49902c0 -8 -3.16699 -14 -9.5 -18s-13.5 -8.16699 -21.5 -12.5s-15.167 -10.333 -21.5 -18s-9.5 -19.167 -9.5 -34.5
c0 -6.66699 1.16699 -13.167 3.5 -19.5s7.83301 -9.5 16.5 -9.5c6 0 12.667 1.66699 20 5s14.166 7.66602 20.499 12.999s11.833 11.333 16.5 18s7 13.334 7 20.001c0 8.66699 -0.666992 17.5 -2 26.5s-2 18.167 -2 27.5c0 4 1.83301 7.66699 5.5 11
s8.16699 6.16602 13.5 8.49902s10.833 4.16602 16.5 5.49902s10.167 2 13.5 2c6.66699 0 12.167 -1.66699 16.5 -5s7.66602 -7.66602 9.99902 -12.999s3.83301 -11.166 4.5 -17.499s1 -12.166 1 -17.499c0 -1.33301 -0.5 -5.5 -1.5 -12.5s-1.5 -10.833 -1.5 -11.5
c0 -5.33301 2.33301 -8.66602 7 -9.99902s8.66699 -2.33301 12 -3c2.66699 -0.666992 8.33398 -1.33398 17.001 -2.00098s14.667 -1 18 -1c1.33301 -0.666992 2 -2.33398 2 -5.00098v-6c0 -6.66699 -3.16699 -11.834 -9.5 -15.501s-13.666 -6.83398 -21.999 -9.50098
s-16.5 -5.5 -24.5 -8.5s-14 -6.83301 -18 -11.5c-3.33301 -16 -6.33301 -32.5 -9 -49.5s-4 -33.5 -4 -49.5v-11l11 -80.5c3.33301 -24.333 5 -51.833 5 -82.5v-29c0 -3.33301 -0.333008 -8.66602 -1 -15.999s-1.33398 -15.166 -2.00098 -23.499
s-1.33398 -16.166 -2.00098 -23.499s-1.33398 -12.333 -2.00098 -15c0 -2 -0.5 -6.5 -1.5 -13.5s-2.16699 -14.667 -3.5 -23l-4 -24l-3 -17.5c-2 -10 -5.33301 -21.833 -10 -35.5s-10.834 -26.667 -18.501 -39s-16.667 -22.666 -27 -30.999s-21.833 -12.5 -34.5 -12.5
c-16 0 -30.667 5.83301 -44 17.5s-24.5 25.834 -33.5 42.501s-16 34.334 -21 53.001s-7.5 34.667 -7.5 48zM27.0049 -329.005c0 -30.667 4.00293 -58.832 12.0029 -84.499s23.667 -49.167 47 -70.5h5c12.667 0 22.5 8.5 29.5 25.5s12.167 36.833 15.5 59.5
s5.16602 44.834 5.49902 66.501s0.5 37.167 0.5 46.5v29l-10 112c-1.33301 13.333 -3.33301 27.666 -6 42.999s-7.66699 29.333 -15 42h-3l-2 -2l-1 -1c-2.66699 -3.33301 -5.83398 -8.5 -9.50098 -15.5l-6.5 -12.5c0 -0.666992 -0.333008 -2.5 -1 -5.5l-2 -9
c-0.666992 -3 -1.33398 -5.83301 -2.00098 -8.5s-1 -4.33398 -1 -5.00098c-2 -6.66699 -5 -13 -9 -19s-7 -12.333 -9 -19c-9.33301 -28 -18 -56.333 -26 -85s-12 -57.667 -12 -87zM176.008 159.997c0 -2 0.667969 -4.99902 2.00098 -8.99902s3.66602 -6 6.99902 -6
c2.66699 0 4.16699 1.66699 4.5 5s0.5 5.66602 0.5 6.99902c0 3.33301 -0.833008 5.66602 -2.5 6.99902l-7.5 6c-2.66699 -3.33301 -4 -6.66602 -4 -9.99902z" />
    <glyph glyph-name="h" unicode="h" horiz-adv-x="237" 
d="M-60 -266c0 6.66699 1.82812 13.5 5.49512 20.5s9.5 10.5 17.5 10.5c5.33301 0 10.166 -2.16699 14.499 -6.5s9.83301 -6.5 16.5 -6.5c7.33301 0 15.166 3.5 23.499 10.5s14.5 12.833 18.5 17.5l51 71l27.5 59.5c9 19 17 38 24 57s12.5 38.667 16.5 59s6 42.5 6 66.5
c0 2 0.166992 5.5 0.5 10.5s0.166016 9.83301 -0.500977 14.5s-1.83398 8.83398 -3.50098 12.501s-4.5 5.5 -8.5 5.5c-6 0 -10.333 -2.33301 -13 -7c-7.33301 -10 -13.666 -20.667 -18.999 -32s-10.333 -23 -15 -35c-2 -5.33301 -3.5 -11.333 -4.5 -18
s-2.66699 -13.334 -5 -20.001s-5.66602 -12.167 -9.99902 -16.5s-10.5 -6.5 -18.5 -6.5s-15.333 2.66699 -22 8s-10 12.333 -10 21c0 11.333 1.16699 22.833 3.5 34.5s4.16602 23.167 5.49902 34.5l3.5 28c1.66699 13.333 3.33398 27.5 5.00098 42.5
s3.16699 29.167 4.5 42.5s2.33301 22.666 3 27.999v9l8 74c2.66699 24 6 48.667 10 74c0.666992 5.33301 1.66699 12 3 20l4 25c1.33301 8.66699 2.5 17.334 3.5 26.001s1.5 16.667 1.5 24c0 2.66699 -0.666992 5.83398 -2 9.50098s-3.66602 5.5 -6.99902 5.5h-3l-67 -18
c-10.667 2 -21.667 0.166992 -33 -5.5s-22 -9.16699 -32 -10.5c-2 0 -5.16699 -0.333008 -9.5 -1l-13 -2c-4.33301 -0.666992 -8.16602 -1.33398 -11.499 -2.00098s-5.33301 -1 -6 -1s-5 -0.166992 -13 -0.5s-14.333 -0.5 -19 -0.5c-2.66699 0 -8 0.166992 -16 0.5
s-13.333 0.5 -16 0.5l-12.5 2.5c-5 1 -9.83301 2.5 -14.5 4.5s-8.5 4.5 -11.5 7.5s-4.5 6.83301 -4.5 11.5c0 5.33301 2.16699 10.5 6.5 15.5s9.83301 7.5 16.5 7.5c6 0 10.333 -2.83301 13 -8.5s6 -10.167 10 -13.5h23c38 0 75.5 4.83301 112.5 14.5s72.5 21.5 106.5 35.5
c8 6 12.5 14.333 13.5 25l3 31.5c1 10.333 3.16699 19.333 6.5 27s11.666 11.5 24.999 11.5c6.66699 0 14.834 -1.5 24.501 -4.5s18.834 -7 27.501 -12s16.167 -10.833 22.5 -17.5s9.5 -13.667 9.5 -21c0 -8 -2.33301 -14.667 -7 -20s-10.5 -9.83301 -17.5 -13.5
s-14.167 -6.83398 -21.5 -9.50098s-13.333 -5 -18 -7c-4 -2 -7.66699 -5.66699 -11 -11s-6.16602 -11.333 -8.49902 -18s-4.16602 -13.167 -5.49902 -19.5s-2.33301 -11.5 -3 -15.5l-25 -206c0.666992 -11.333 0.333984 -22.166 -0.999023 -32.499s-2 -20.833 -2 -31.5
c0 -2 0.166992 -4.66699 0.5 -8s1.83301 -5 4.5 -5c6 0 10.5 5 13.5 15l10 33c3.66699 12 8.5 23 14.5 33s15 15 27 15c11.333 0 20.166 -6.16699 26.499 -18.5s11 -26.5 14 -42.5s4.83301 -31.5 5.5 -46.5s1 -25.167 1 -30.5c0 -18.667 -0.666992 -38 -2 -58
s-4.66602 -38.667 -9.99902 -56l-25 -73c-3.33301 -8.66699 -5.83301 -13.667 -7.5 -15s-3.16699 -5.33301 -4.5 -12c-17.333 -38 -36.666 -72.333 -57.999 -103s-47 -60 -77 -88l-25.5 -24c-9 -8.66699 -19.5 -13 -31.5 -13c-8.66699 0 -16.167 2.83301 -22.5 8.5
s-9.5 13.167 -9.5 22.5z" />
    <glyph glyph-name="i" unicode="i" horiz-adv-x="168" 
d="M26 58c0 7.33301 2 19.1709 6 35.5039s9 32.666 15 48.999s12.833 30.666 20.5 42.999s15.167 18.5 22.5 18.5c3.33301 0 5.16602 -0.833008 5.49902 -2.5s0.5 -4.16699 0.5 -7.5v-6l-15 -60l3 -10l3 -3.5c2 -2.33301 4.33301 -4.83301 7 -7.5l8 -8l7 -7l27 -24.5
c8 -7 12 -17.5 12 -31.5c0 -8 -1.5 -15.5 -4.5 -22.5s-9.16699 -11.5 -18.5 -13.5h-20c-10 0 -19.667 1 -29 3s-17.666 5.16699 -24.999 9.5s-13.333 10.166 -18 17.499s-7 16.666 -7 27.999zM67 298.005c0 15.333 5.83301 28.998 17.5 40.998s25.167 18 40.5 18
c12.667 0 20.667 -5.16699 24 -15.5s5 -20.166 5 -29.499c0 -17.333 -4.33301 -29.666 -13 -36.999s-21.667 -11 -39 -11c-9.33301 0 -17.5 3.33301 -24.5 10s-10.5 14.667 -10.5 24z" />
    <glyph glyph-name="j" unicode="j" horiz-adv-x="240" 
d="M97 -228c0 41.333 3.5 80.999 10.5 118.999l21.5 118v9c0 6.66699 -1 13.5 -3 20.5s-7.33301 10.5 -16 10.5h-4c-2.66699 -1.33301 -8.16699 -3.83301 -16.5 -7.5s-14.166 -6.16699 -17.499 -7.5h-14c-13.333 0 -24.666 2.83301 -33.999 8.5s-14 16.167 -14 31.5
c0 10.667 3.5 21.5 10.5 32.5s16.5 16.5 28.5 16.5c7.33301 0 13.833 -2 19.5 -6s12.167 -6 19.5 -6c6.66699 0 12.667 3.16699 18 9.5s11 13.5 17 21.5s12.667 15.167 20 21.5s16.333 9.5 27 9.5c16 0 29.167 -5.5 39.5 -16.5s16.5 -24.167 18.5 -39.5
c0 -2 -0.333008 -5.33301 -1 -10s-1.5 -9.5 -2.5 -14.5s-2 -9.66699 -3 -14s-1.83301 -7.5 -2.5 -9.5c-23.333 -44.667 -43.166 -92.667 -59.499 -144s-24.5 -102.666 -24.5 -153.999c0 -10.667 0.5 -24 1.5 -40s3.66699 -31.333 8 -46s11 -27.334 20 -38.001
s21.5 -16 37.5 -16c5.33301 0 9.66602 1.83301 12.999 5.5s7.66602 5.5 12.999 5.5c3.33301 0 6 -0.666992 8 -2v-12c0 -12.667 -4.16699 -20 -12.5 -22s-17.5 -3 -27.5 -3c-23.333 0 -41.5 5.33301 -54.5 16s-22.833 24.334 -29.5 41.001s-10.834 35 -12.501 55
s-2.5 39 -2.5 57zM126 278.999c0 8 1.83301 16.332 5.5 24.999s8.66699 16.667 15 24s13.5 13.5 21.5 18.5s16 7.5 24 7.5s13.333 -1.33301 16 -4s4.66699 -8 6 -16c7.33301 1.33301 15.333 -0.166992 24 -4.5s13.667 -11.166 15 -20.499c0.666992 -8 -2.5 -15.667 -9.5 -23
s-15.5 -14 -25.5 -20s-20.5 -10.667 -31.5 -14s-19.833 -5 -26.5 -5c-10 0 -18.167 2.66699 -24.5 8s-9.5 13.333 -9.5 24z" />
    <glyph glyph-name="k" unicode="k" horiz-adv-x="284" 
d="M55 377c2.66699 17.333 4.3291 35.4922 4.99609 54.4922s1 37.167 1 54.5v23c0 1.33301 -0.333008 5 -1 11s-1.33398 10.333 -2.00098 13c-0.666992 1.33301 -1.5 4.5 -2.5 9.5s-3.16699 7.5 -6.5 7.5s-6.16602 -1.5 -8.49902 -4.5s-5.16602 -4.5 -8.49902 -4.5
s-5.16602 0.666992 -5.49902 2s-0.5 3.33301 -0.5 6c0 4 1.16699 8.83301 3.5 14.5s5.5 11.167 9.5 16.5s8.5 9.83301 13.5 13.5s10.167 5.5 15.5 5.5c6.66699 0 12 -5.33301 16 -16s7 -22.667 9 -36s3.16699 -26.5 3.5 -39.5s0.833008 -21.833 1.5 -26.5
c2 -20 3.16699 -36.833 3.5 -50.5s0.5 -30.167 0.5 -49.5v-9c0 -4 -0.166992 -8.33301 -0.5 -13s-0.5 -9.16699 -0.5 -13.5v-8.5c-2 -7.33301 -3.83301 -15.666 -5.5 -24.999s-3.16699 -18.833 -4.5 -28.5s-2.33301 -19.167 -3 -28.5s-1 -17.333 -1 -24
c16.667 0 32.5 2.16699 47.5 6.5s30.5 6.5 46.5 6.5c14 0 24 -3.16699 30 -9.5s9 -15.833 9 -28.5c0 -18.667 -6.16699 -34.667 -18.5 -48s-24.833 -25.666 -37.5 -36.999c-1.33301 -2.66699 -3.5 -4.5 -6.5 -5.5s-4.5 -3.16699 -4.5 -6.5c0 -2 0.666992 -4 2 -6
c11.333 -7.33301 20.666 -13.166 27.999 -17.499s16.666 -9.16602 27.999 -14.499c6 -2.66699 14.333 -5.83398 25 -9.50098s21.167 -7.83398 31.5 -12.501s19.333 -10.167 27 -16.5s11.5 -13.5 11.5 -21.5c0 -6 -3 -9 -9 -9s-11.333 2.33301 -16 7
s-9.66699 8.33398 -15 11.001c-3.33301 0.666992 -9.16602 2.16699 -17.499 4.5l-26.5 7.5c-9.33301 2.66699 -18.166 5.33398 -26.499 8.00098s-13.833 4.66699 -16.5 6c-1.33301 0 -5.66602 1.83301 -12.999 5.5s-12.666 6.5 -15.999 8.5
c-1.33301 0.666992 -4.16602 2.66699 -8.49902 6s-7.16602 5 -8.49902 5c-1.33301 0.666992 -2.5 1.33398 -3.5 2.00098s-2.16699 1.33398 -3.5 2.00098c-2 0.666992 -3.66699 1.33398 -5 2.00098h-37c-3.33301 0 -5.16602 1.33301 -5.49902 4s-0.5 5 -0.5 7
c0 4.66699 4 10.334 12 17.001l26 21.5c9.33301 7.66699 18 15.667 26 24s12 16.5 12 24.5c0 4 -1.5 7.5 -4.5 10.5s-6.16699 4.5 -9.5 4.5c-6 0 -11.333 -1.16699 -16 -3.5s-9.33398 -5.16602 -14.001 -8.49902c-12 -8.66699 -21.667 -16.5 -29 -23.5
s-13.166 -14.5 -17.499 -22.5s-7.33301 -17 -9 -27s-2.5 -22.333 -2.5 -37c0 -6 0.166992 -10.833 0.5 -14.5s1.16602 -9.16699 2.49902 -16.5c1.33301 -4.66699 4.66602 -7 9.99902 -7c3.33301 0 6.5 1.16699 9.5 3.5s6.16699 3.5 9.5 3.5s5.16602 -1 5.49902 -3
s0.5 -4.33301 0.5 -7c0 -8.66699 -3.33301 -16.334 -10 -23.001s-14.667 -10 -24 -10c-10 0 -18.833 2.83301 -26.5 8.5s-11.5 14.167 -11.5 25.5v93z" />
    <glyph glyph-name="l" unicode="l" horiz-adv-x="200" 
d="M61 45c0 50 4.8291 97.832 14.4961 143.499s20.5 92.834 32.5 141.501c13.333 36 26 72.333 38 109s25 73.334 39 110.001c-1.33301 6 -0.666016 12 2.00098 18s6.33398 11.5 11.001 16.5s9.83398 9 15.501 12s11.5 4.5 17.5 4.5c9.33301 0 16.666 -3 21.999 -9
s9.16602 -13.333 11.499 -22s3.83301 -17.834 4.5 -27.501s1 -17.834 1 -24.501c0 -18 -2 -36.167 -6 -54.5s-10 -35.5 -18 -51.5l-81 -166c-12 -18.667 -21.167 -37.5 -27.5 -56.5s-9.5 -39.167 -9.5 -60.5c0 -11.333 2.33301 -21.5 7 -30.5s9.83398 -17.5 15.501 -25.5
s10.834 -15.833 15.501 -23.5s7 -16.5 7 -26.5c0 -13.333 -3.66699 -25 -11 -35s-18.333 -15 -33 -15c-9.33301 0 -18.166 2.16699 -26.499 6.5s-15.5 9.83301 -21.5 16.5s-10.833 14.334 -14.5 23.001s-5.5 17.667 -5.5 27zM218.996 531.999
c-10.667 -26.667 -19.5 -53.333 -26.5 -80l-20.5 -82c-2.66699 -9.33301 -5.66699 -18.666 -9 -27.999s-5 -19.333 -5 -30h7c0.666992 0 2.16699 2 4.5 6l8.5 14l10 16.5c3.33301 5.66699 6 10.5 8 14.5c10 19.333 19.333 41.166 28 65.499s13 47.5 13 69.5v9
c0 4 -0.5 8 -1.5 12s-2.33301 7.66699 -4 11s-4.16699 5 -7.5 5h-1c-0.666992 0 -2 -1 -4 -3z" />
    <glyph glyph-name="m" unicode="m" horiz-adv-x="458" 
d="M65 151c-6 -4 -10.8252 -9.16992 -14.4922 -15.5029l-10.5 -18.5c-3.33301 -6 -6.66602 -11.167 -9.99902 -15.5s-7.66602 -6.5 -12.999 -6.5s-8 2.33301 -8 7c0 6.66699 2.16699 15.834 6.5 27.501s10 23 17 34s14.667 20.5 23 28.5s16.5 12 24.5 12
c12 0 20.667 -4 26 -12s9.5 -16.667 12.5 -26l8.5 -26c2.66699 -8 7 -12 13 -12c8 0 15 2.5 21 7.5s12 10.5 18 16.5s12 11.5 18 16.5s13 7.5 21 7.5c12 0 20.167 -5.5 24.5 -16.5s7.5 -21.5 9.5 -31.5c2 -1.33301 5.66699 -2 11 -2c6 0 11.167 1.5 15.5 4.5
s8.66602 6.33301 12.999 10s8.66602 7 12.999 10s9.16602 4.5 14.499 4.5c8.66699 0 16 -3 22 -9s10.667 -12.667 14 -20c1.33301 -6.66699 2.33301 -14.167 3 -22.5s2 -16.166 4 -23.499s5 -13.5 9 -18.5s10.333 -7.5 19 -7.5c26 0 49.333 7.33301 70 22l1 1l2 2l3 3l13 7
c4 -3.33301 6 -7.33301 6 -12c0 -9.33301 -4.83301 -18 -14.5 -26s-21 -15 -34 -21s-26 -10.667 -39 -14s-22.833 -5 -29.5 -5c-13.333 0 -23.333 3.66699 -30 11s-11.834 15.5 -15.501 24.5s-6.66699 17.167 -9 24.5s-5.83301 11 -10.5 11
c-5.33301 0 -10.333 -4.16699 -15 -12.5s-9.33398 -17.666 -14.001 -27.999s-9.83398 -19.666 -15.501 -27.999s-12.5 -12.5 -20.5 -12.5c-9.33301 0 -16.5 2.5 -21.5 7.5s-9 10.333 -12 16s-5.66699 11 -8 16s-5.5 7.5 -9.5 7.5c-6 0 -10.833 -2.83301 -14.5 -8.5
s-7.33398 -11.667 -11.001 -18s-8.16699 -12.333 -13.5 -18s-12.333 -8.5 -21 -8.5c-6.66699 0 -12 1.66699 -16 5s-8 7.66602 -12 12.999c-8 10 -12.333 21.167 -13 33.5s-0.833984 24.833 -0.500977 37.5s-0.333984 25 -2.00098 37s-7.83398 22 -18.501 30z" />
    <glyph glyph-name="n" unicode="n" horiz-adv-x="246" 
d="M223 -39c-0.666992 -0.666992 -1.66992 -1.16211 -3.00293 -1.49512s-4.66602 -0.5 -9.99902 -0.5s-10.5 3.16699 -15.5 9.5s-9.66699 14 -14 23s-8.66602 18.667 -12.999 29s-7.83301 19.5 -10.5 27.5s-6.66699 15 -12 21s-12.666 9 -21.999 9
c-10.667 0 -19.334 -4 -26.001 -12s-13.334 -17.667 -20.001 -29l-16 -26c-5.33301 -8.66699 -10.666 -13 -15.999 -13s-9.16602 2.16699 -11.499 6.5s-3.5 9.83301 -3.5 16.5c0 4 0.333008 8.16699 1 12.5l2 12.5c1.33301 11.333 2.16602 22.166 2.49902 32.499
s0.5 20.666 0.5 30.999s0.333008 21.166 1 32.499s2.33398 23.333 5.00098 36c4 18 12.333 27 25 27c5.33301 0 8 -5 8 -15c0 -7.33301 2 -12.333 6 -15s8.66699 -4 14 -4c6 0 11.833 1.16699 17.5 3.5s10.167 5.16602 13.5 8.49902c6 5.33301 12.167 10.166 18.5 14.499
s12.5 6.5 18.5 6.5c12.667 0 21.667 -5.33301 27 -16s9 -23.5 11 -38.5s3.5 -30.5 4.5 -46.5s3.5 -29.333 7.5 -40l5.5 -17c2.33301 -7.33301 4.5 -15 6.5 -23s3.66699 -15.667 5 -23s2 -13 2 -17c0 -10 -3 -17.333 -9 -22z" />
    <glyph glyph-name="o" unicode="o" horiz-adv-x="250" 
d="M27 82c0 13.333 2.66992 27.6689 8.00293 43.002s12.5 29.666 21.5 42.999s19.667 24.666 32 33.999s25.833 15 40.5 17c5.33301 1.33301 9.33301 -1.16699 12 -7.5s4 -11.5 4 -15.5s-0.833008 -7.5 -2.5 -10.5s-3.16699 -6.5 -4.5 -10.5h4c4 0 8 0.5 12 1.5
s8.33301 1.5 13 1.5c18 0 31.667 -7.5 41 -22.5s14 -30.5 14 -46.5c0 -14 -4 -28 -12 -42s-18.167 -26.5 -30.5 -37.5s-25.833 -19.833 -40.5 -26.5s-28.667 -10 -42 -10c-12.667 0 -23.334 2.66699 -32.001 8s-15.834 12.166 -21.501 20.499s-9.83398 17.833 -12.501 28.5
s-4 21.334 -4 32.001zM78.0029 87.0029c0 -10.667 2.33301 -19.4971 7 -26.4971s12.667 -10.5 24 -10.5c5.33301 0 9 2 11 6s3 8.33301 3 13c0 5.33301 -1.16699 9.66602 -3.5 12.999l-7.5 11c-2.66699 4 -5.16699 8.5 -7.5 13.5s-3.5 11.833 -3.5 20.5
c0 3.33301 1.83301 8.66602 5.5 15.999s6.16699 12.666 7.5 15.999h-4c-5.33301 0 -10 -3 -14 -9s-7.33301 -13 -10 -21s-4.66699 -16 -6 -24s-2 -14 -2 -18z" />
    <glyph glyph-name="p" unicode="p" horiz-adv-x="275" 
d="M50 -251c0 21.333 0.499023 41.8311 1.49902 61.498s2.5 39.834 4.5 60.501l9 78v6c0 3.33301 -0.5 7 -1.5 11s-3.5 6 -7.5 6h-2l-140 -102c-46.667 -35.333 -88.334 -75.333 -125.001 -120c-1.33301 -2 -3.66602 -5.16699 -6.99902 -9.5
s-6.66602 -9.16602 -9.99902 -14.499l-9.5 -15c-3 -4.66699 -4.83301 -8 -5.5 -10c0 -1.33301 -0.5 -3.33301 -1.5 -6s-1.5 -4.33398 -1.5 -5.00098v-2c0 -11.333 5 -20.666 15 -27.999s21 -13.333 33 -18s23 -8.5 33 -11.5s15 -5.5 15 -7.5c0 -4.66699 -3 -7.66699 -9 -9
s-10.667 -2 -14 -2c-8.66699 0 -18.667 1.66699 -30 5s-22.166 8 -32.499 14s-19 13.167 -26 21.5s-10.5 17.5 -10.5 27.5c0 8 1.5 15 4.5 21s6.5 11.667 10.5 17l12.5 16c4.33301 5.33301 7.83301 11.666 10.5 18.999l83 83l214 176c4.66699 4 8 9.83301 10 17.5
s3.33301 16 4 25s0.833984 17.667 0.500977 26s-0.5 14.833 -0.5 19.5v10c-4 5.33301 -8.16699 9.5 -12.5 12.5s-8.33301 6 -12 9s-6.83398 6.5 -9.50098 10.5s-4 9.66699 -4 17s2 12.333 6 15s8.66699 4.66699 14 6s10.5 2.83301 15.5 4.5s8.5 4.83398 10.5 9.50098
c1.33301 4 2.33301 9 3 15s1.83398 12 3.50098 18s4 11.167 7 15.5s7.83301 6.5 14.5 6.5c1.33301 0 3.16602 -0.166992 5.49902 -0.5s3.5 -1.16602 3.5 -2.49902v-47c0 -2 1.16699 -3.33301 3.5 -4s4.5 -1 6.5 -1c6 0 12.167 0.833008 18.5 2.5s12.833 2.5 19.5 2.5
c5.33301 0 12 -0.333008 20 -1s16 -2 24 -4s15 -5 21 -9s10 -9.66699 12 -17v-18c0 -16 -5 -30.5 -15 -43.5s-21.667 -25.167 -35 -36.5l-42 -34c-14.667 -11.333 -26.334 -24 -35.001 -38c-1.33301 -2.66699 -3 -8.83398 -5 -18.501s-3.33301 -15.834 -4 -18.501
c-0.666992 -4 -1.83398 -11.5 -3.50098 -22.5s-3.16699 -22.833 -4.5 -35.5s-2.66602 -24.5 -3.99902 -35.5s-2 -18.5 -2 -22.5v-5c0 -3.33301 -0.5 -10.5 -1.5 -21.5s-2 -22.833 -3 -35.5s-1.83301 -24.5 -2.5 -35.5s-1 -17.833 -1 -20.5v-4c0 -14.667 0.5 -31.667 1.5 -51
s4.16699 -35.666 9.5 -48.999c3.33301 -6.66699 8 -12.667 14 -18s9 -11.666 9 -18.999c0 -3.33301 -1.5 -6.66602 -4.5 -9.99902s-6.5 -5 -10.5 -5c-4.66699 0 -9.16699 2.16699 -13.5 6.5s-7.5 7.83301 -9.5 10.5c-8.66699 11.333 -15.334 23.666 -20.001 36.999
s-8.16699 26.833 -10.5 40.5s-3.66602 27.667 -3.99902 42s-0.5 28.166 -0.5 41.499zM119.999 78.998c0 -3.33301 1.33301 -5.83301 4 -7.5s5.33398 -2.5 8.00098 -2.5c0 4.66699 -0.5 8.5 -1.5 11.5s-3.5 6.16699 -7.5 9.5
c-0.666992 -0.666992 -1.33398 -2.5 -2.00098 -5.5s-1 -4.83301 -1 -5.5z" />
    <glyph glyph-name="q" unicode="q" horiz-adv-x="245" 
d="M17 -316c0 16 3.1709 32.834 9.50391 50.501s12.5 33.167 18.5 46.5l38 72l19.5 33.5c7 11.667 13.667 23.5 20 35.5s11.5 24.167 15.5 36.5s6 25.166 6 38.499c0 4 -1.66699 9.33301 -5 16s-7.66602 10 -12.999 10c-10 0 -19.333 -2.33301 -28 -7s-17.667 -7 -27 -7
c-13.333 0 -24 3.83301 -32 11.5s-12 17.834 -12 30.501c0 14 2.33301 27.667 7 41s10.667 26 18 38s15.666 23.5 24.999 34.5s19 21.167 29 30.5c3.33301 2 8.66602 6.33301 15.999 13s13.666 10 18.999 10c3.33301 0 6.66602 -1.16699 9.99902 -3.5s5 -5.16602 5 -8.49902
c0 -7.33301 -4 -13 -12 -17s-15 -6 -21 -6c-14 -13.333 -25.667 -27 -35 -41s-14 -31 -14 -51v-18c2.66699 -3.33301 5.16699 -5.16602 7.5 -5.49902s5.16602 -0.5 8.49902 -0.5c7.33301 0 13.166 2 17.499 6s9.5 6 15.5 6c3.33301 0 6.33301 -0.666992 9 -2
s5.66699 -2 9 -2c4.66699 0 8.33398 1.66699 11.001 5s4 7 4 11v5c-8 1.33301 -15.833 3.66602 -23.5 6.99902s-11.5 9.66602 -11.5 18.999c0 6 0.666992 10.667 2 14l23.5 23c8.33301 8 18.166 12 29.499 12c10 0 17.333 -3.66699 22 -11s7 -15.666 7 -24.999
c0 -12.667 -2.5 -23.167 -7.5 -31.5s-7.5 -16.833 -7.5 -25.5v-3c0.666992 0 2.16699 -0.666992 4.5 -2s3.83301 -2.33301 4.5 -3c9.33301 -8 15.5 -15.833 18.5 -23.5s4.5 -17.834 4.5 -30.501c0 -26 -6.16699 -52.667 -18.5 -80s-26.5 -51.333 -42.5 -72
c-10.667 -13.333 -22.167 -27 -34.5 -41s-23.833 -28.5 -34.5 -43.5s-19.667 -30.833 -27 -47.5s-11 -34.334 -11 -53.001c0 -12.667 3.5 -23.5 10.5 -32.5s17.167 -13.5 30.5 -13.5s25 3 35 9s19.333 13.667 28 23h3c4 0 6 -2.33301 6 -7
c0 -8.66699 -3.16699 -16.5 -9.5 -23.5s-14.166 -13 -23.499 -18s-19 -8.83301 -29 -11.5s-18.333 -4 -25 -4c-10.667 0 -20 2.66699 -28 8s-14.5 12 -19.5 20s-8.83301 16.833 -11.5 26.5s-4 19.167 -4 28.5z" />
    <glyph glyph-name="r" unicode="r" horiz-adv-x="221" 
d="M63 35c0 2.66699 -0.168945 7.83203 -0.501953 15.499s-0.5 12.5 -0.5 14.5c0 17.333 2.33301 34.333 7 51s7 33.667 7 51c0 4.66699 -2.66699 7 -8 7c-6 0 -11.667 -2.16699 -17 -6.5s-10.5 -9 -15.5 -14l-13.5 -13.5c-4 -4 -7.33301 -6 -10 -6
s-4.33398 1.16699 -5.00098 3.5s-1 4.5 -1 6.5c0 5.33301 3 13 9 23s13.167 20 21.5 30s17 18.667 26 26s16.167 11 21.5 11c6 0 10.833 -2 14.5 -6s6.83398 -8.33301 9.50098 -13s5.33398 -9 8.00098 -13s6 -6 10 -6c6.66699 0 12.834 2.66699 18.501 8
s11.5 8.33301 17.5 9c6.66699 0 13.667 -1.83301 21 -5.5s11 -8.16699 11 -13.5v-46c0 -4 1.33301 -7.33301 4 -10s5.66699 -5.16699 9 -7.5s6.33301 -4.66602 9 -6.99902s4 -5.16602 4 -8.49902c0 -4.66699 -1.83301 -7.83398 -5.5 -9.50098s-7.5 -2.5 -11.5 -2.5
c-7.33301 0 -14.833 1.83301 -22.5 5.5s-15.5 5.5 -23.5 5.5c-2.66699 0 -6.83398 -0.5 -12.501 -1.5s-9.16699 -3.16699 -10.5 -6.5l-19 -42v-5c0 -5.33301 0.5 -10.833 1.5 -16.5s1.5 -11.5 1.5 -17.5c0 -8.66699 -1.16699 -15.667 -3.5 -21s-8.16602 -8 -17.499 -8
c-11.333 0 -19.5 4 -24.5 12s-8.16699 17 -9.5 27z" />
    <glyph glyph-name="s" unicode="s" horiz-adv-x="233" 
d="M96 -11c0 4.66699 2.82715 9.32812 8.49414 13.9951s11.834 9.33398 18.501 14.001s12.834 9.33398 18.501 14.001s8.5 9.66699 8.5 15c0 2.66699 -1.33301 5.16699 -4 7.5s-5 3.5 -7 3.5h-73c-15.333 0 -27.5 5.5 -36.5 16.5s-13.5 23.833 -13.5 38.5
c0 6.66699 2.16699 14 6.5 22s7.83301 14 10.5 18c1.33301 2 5.83301 7 13.5 15s16.167 16.167 25.5 24.5s18.333 16 27 23s14.334 11.167 17.001 12.5l53 20h8c13.333 0 24.666 -5.5 33.999 -16.5s14 -22.833 14 -35.5c0 -13.333 -2.16699 -23.833 -6.5 -31.5
s-13.5 -12.5 -27.5 -14.5c-0.666992 -0.666992 -3.66699 -1.16699 -9 -1.5s-8.66602 -0.833008 -9.99902 -1.5c-6 -3.33301 -11.333 -7.83301 -16 -13.5s-10.667 -8.5 -18 -8.5s-14.166 1 -20.499 3s-13.166 3 -20.499 3c-3.33301 0 -7.83301 -1.5 -13.5 -4.5
s-8.5 -6.5 -8.5 -10.5v-19c0 -0.666992 2 -2 6 -4s7.33301 -3.33301 10 -4c7.33301 -2 16 -3 26 -3s19.5 -0.5 28.5 -1.5s16.667 -3.5 23 -7.5s9.5 -11.667 9.5 -23c0 -7.33301 -1.16699 -13.166 -3.5 -17.499s-5.83301 -9.16602 -10.5 -14.499l-45 -42
c-1.33301 -1.33301 -2.5 -2.16602 -3.5 -2.49902s-2.5 -0.5 -4.5 -0.5c-3.33301 0 -6.66602 1.33301 -9.99902 4s-5 5.66699 -5 9z" />
    <glyph glyph-name="t" unicode="t" horiz-adv-x="233" 
d="M67 163c-3.33301 4.66699 -8.49219 7.66309 -15.4922 8.99609s-13.833 2.83301 -20.5 4.5s-12.5 3.83398 -17.5 6.50098s-7.5 7.66699 -7.5 15c0 4 1.16699 8.33301 3.5 13s5.16602 9.33398 8.49902 14.001s7.33301 8.5 12 11.5s9 4.5 13 4.5
c8.66699 0 14 -3.16699 16 -9.5s3.66699 -13.166 5 -20.499h3c4.66699 0 7.66699 1.16699 9 3.5s2.66602 5.83301 3.99902 10.5l29 129c3.33301 14 7.16602 27 11.499 39s12.166 22.667 23.499 32h4c3.33301 0 5.16602 -1.16699 5.49902 -3.5s0.5 -5.16602 0.5 -8.49902v-8
l-19 -103c-1.33301 -9.33301 -3.33301 -19 -6 -29s-4 -19.667 -4 -29c0 -4.66699 0.833008 -9.66699 2.5 -15s5.5 -8 11.5 -8c4.66699 0 12.334 1.33301 23.001 4s22.5 6.16699 35.5 10.5s26.667 9.16602 41 14.499s27.333 10.833 39 16.5s21.334 11.167 29.001 16.5
s11.5 10.333 11.5 15c0 5.33301 -0.5 10.5 -1.5 15.5s-1.5 10.167 -1.5 15.5c0 8 3.5 13.167 10.5 15.5s13.833 3.5 20.5 3.5c11.333 0 21.166 -3.33301 29.499 -10s12.5 -16.334 12.5 -29.001c0 -1.33301 -0.333008 -3.66602 -1 -6.99902s-1 -5.33301 -1 -6l-10 -10
l-6.5 -4l-15.5 -9.5l-18 -10.5c-6 -3.33301 -11 -6 -15 -8c-12 -6.66699 -24.5 -13 -37.5 -19s-26.167 -11.667 -39.5 -17c-8 -3.33301 -18.833 -6.66602 -32.5 -9.99902s-27.167 -7.5 -40.5 -12.5s-24.833 -11.167 -34.5 -18.5s-14.5 -16.333 -14.5 -27
c0 -17.333 4.66699 -30.166 14 -38.499s19.666 -15.166 30.999 -20.499s21.666 -11 30.999 -17s14 -15.333 14 -28c0 -14 -5 -24.833 -15 -32.5s-21.667 -11.5 -35 -11.5c-10 0 -19.667 2.16699 -29 6.5s-17.833 10 -25.5 17s-14.5 14.833 -20.5 23.5s-10.333 17.667 -13 27
c-0.666992 1.33301 -1.33398 5.16602 -2.00098 11.499s-1.33398 11.166 -2.00098 14.499c0 2 -0.166992 6 -0.5 12l-1 18.5l-1 18.5c-0.333008 6 -0.5 10 -0.5 12z" />
    <glyph glyph-name="u" unicode="u" horiz-adv-x="280" 
d="M33 113c0 6 0.499023 16.334 1.49902 31.001s3 29.5 6 44.5s7.33301 28.333 13 40s13.167 17.5 22.5 17.5c4.66699 0 7.66699 -4.33301 9 -13v-71v-16.5c0 -5 0.666992 -9.33301 2 -13s3.5 -6.5 6.5 -8.5s7.83301 -3 14.5 -3s11.834 2.5 15.501 7.5
s7.16699 10.833 10.5 17.5s7.16602 13.5 11.499 20.5s10.833 12.167 19.5 15.5c2.66699 0.666992 6.66699 2.16699 12 4.5s9.66602 3.5 12.999 3.5c9.33301 0 15.333 -4 18 -12s4.16699 -17.167 4.5 -27.5s0.333008 -20.833 0 -31.5s1.5 -18.334 5.5 -23.001
c4 -5.33301 9.16699 -9.33301 15.5 -12s12.666 -5.16699 18.999 -7.5s11.833 -5 16.5 -8s7 -6.83301 7 -11.5c0 -3.33301 -0.5 -6.83301 -1.5 -10.5s-3.5 -5.5 -7.5 -5.5h-80c-4 0 -8 -1.5 -12 -4.5s-7 -6.16699 -9 -9.5l-15 -24
c-3.33301 -4.66699 -9.16602 -10.167 -17.499 -16.5s-15.166 -9.5 -20.499 -9.5c-17.333 0 -31.166 4.83301 -41.499 14.5s-18.333 21.5 -24 35.5s-9.5 28.833 -11.5 44.5s-3 29.5 -3 41.5z" />
    <glyph glyph-name="v" unicode="v" horiz-adv-x="254" 
d="M10 136l-2.99902 -0.000976562c-4.66699 0 -7 2.66699 -7 8c0 4.66699 1.66699 9.83398 5 15.501s7.33301 11 12 16s9.66699 9.16699 15 12.5s10.333 5 15 5c6.66699 0 12.167 -1.83301 16.5 -5.5s8 -8.16699 11 -13.5l9 -16c3 -5.33301 6.83301 -9.33301 11.5 -12
c1.33301 0 3.33301 -0.166992 6 -0.5s4.66699 -0.5 6 -0.5c18 0 34.667 3.33301 50 10s29.833 15.334 43.5 26.001s26.5 22.167 38.5 34.5l35 36.5c0.666992 0 1.83398 0.166992 3.50098 0.5s2.83398 0.5 3.50098 0.5c4 0 7.5 -1.5 10.5 -4.5s4.5 -6.83301 4.5 -11.5
c0 -10.667 -4.33301 -20.834 -13 -30.501s-16 -18.5 -22 -26.5l-30 -41l-30 -41c-4 -6.66699 -8.5 -15.834 -13.5 -27.501s-10.5 -23.167 -16.5 -34.5s-13 -21.166 -21 -29.499s-17 -12.5 -27 -12.5c-22.667 0 -37.834 6.16699 -45.501 18.5s-12.834 26.833 -15.501 43.5
l-8 51.5c-2.66699 17.667 -10.334 31.5 -23.001 41.5h-3z" />
    <glyph glyph-name="w" unicode="w" horiz-adv-x="432" 
d="M3 92c-0.666992 6.66699 3.66504 15.6709 12.998 27.0039s20.333 22.333 33 33s25.834 20 39.501 28s24.5 12.333 32.5 13c8.66699 0.666992 16.334 -0.666016 23.001 -3.99902s13 -7.33301 19 -12s12.167 -8.66699 18.5 -12s13.833 -4.66602 22.5 -3.99902
c12.667 1.33301 23.5 5 32.5 11s19.5 9.66699 31.5 11c5.33301 0.666992 9.5 0.5 12.5 -0.5s6.16699 -4.5 9.5 -10.5c0.666992 -2 1.5 -6.16699 2.5 -12.5s2.16699 -13 3.5 -20l4 -20c1.33301 -6.33301 2.33301 -10.166 3 -11.499c2 -6.66699 7.66699 -10.667 17 -12
c10.667 7.33301 19.834 17.333 27.501 30s15 26 22 40s14.333 27.833 22 41.5s16.5 25.167 26.5 34.5c3.33301 3.33301 7 6.5 11 9.5s6.66699 4.83301 8 5.5c1.33301 1.33301 2.66602 2.16602 3.99902 2.49902s4 0.5 8 0.5c2.66699 0.666992 4.83398 0 6.50098 -2
s2.83398 -4.33301 3.50098 -7v-4c-17.333 -14.667 -31.833 -32.834 -43.5 -54.501s-22.5 -43.834 -32.5 -66.501l-29.5 -65.5c-9.66699 -21 -20.834 -37.833 -33.501 -50.5c-6.66699 -6.66699 -14 -13.5 -22 -20.5s-16.667 -11.167 -26 -12.5
c-11.333 -1.33301 -19.833 1.33398 -25.5 8.00098s-10.5 14 -14.5 22s-8.33301 15.167 -13 21.5s-11.334 9.16602 -20.001 8.49902h-1c-0.666992 0 -2.16699 -0.666992 -4.5 -2s-3.83301 -2 -4.5 -2c-10 -8 -20.667 -17 -32 -27s-24 -15.667 -38 -17h-7.5
c-3.66699 0 -7.5 0.333008 -11.5 1s-7.5 1.66699 -10.5 3s-4.5 3.33301 -4.5 6l-4 50c0 3.33301 -4 5.66602 -12 6.99902s-16.833 3.16602 -26.5 5.49902s-18.5 5.66602 -26.5 9.99902s-12.333 11.166 -13 20.499z" />
    <glyph glyph-name="x" unicode="x" horiz-adv-x="310" 
d="M-223 -251c0 7.33301 2.66699 14.6699 8 22.0029s10.666 13.666 15.999 18.999l52 53l109 91c3.33301 2.66699 7.33301 5.33398 12 8.00098s8.33398 5.66699 11.001 9l112 86c2.66699 2 5 4.5 7 7.5s2.66699 6.16699 2 9.5c-1.33301 6 -5.66602 12.5 -12.999 19.5
s-15.833 14 -25.5 21l-28.5 20c-9.33301 6.33301 -16.666 12.5 -21.999 18.5v5c0 6 4 11.167 12 15.5s14.667 6.5 20 6.5h7l55 -24h11h15c7.33301 0 14.833 0.5 22.5 1.5s14.334 2.66699 20.001 5s8.5 6.16602 8.5 11.499c0 1.33301 -0.833008 2.83301 -2.5 4.5
s-3.16699 2.83398 -4.5 3.50098c-10.667 0.666992 -19.334 1 -26.001 1s-14.334 2 -23.001 6c-4 0.666992 -6 2.33398 -6 5.00098c0 4.66699 2.83301 8 8.5 10s9.83398 3.66699 12.501 5l70 9h20c6.66699 0 13.334 -0.333008 20.001 -1s12.667 -2.16699 18 -4.5
s9.66602 -5.83301 12.999 -10.5s5 -11.334 5 -20.001s-2.33301 -16.167 -7 -22.5l-15 -19.5c-5.33301 -6.66699 -10 -13.5 -14 -20.5s-5.66699 -15.167 -5 -24.5c0.666992 -7.33301 3.16699 -13.5 7.5 -18.5s8.83301 -9.83301 13.5 -14.5s8.83398 -9.5 12.501 -14.5
s5.5 -10.833 5.5 -17.5c0 -4 -0.5 -8.33301 -1.5 -13s-3.5 -8.33398 -7.5 -11.001h-12c-10 0 -18.667 2.5 -26 7.5s-15.333 9.16699 -24 12.5c-10.667 4.66699 -21.5 9 -32.5 13s-22.167 6 -33.5 6c-12.667 0 -24.667 -2.5 -36 -7.5s-22.333 -11.333 -33 -19
s-20.834 -15.834 -30.501 -24.501s-19.167 -16.334 -28.5 -23.001l-95 -72.5c-31.333 -24.333 -61 -50.833 -89 -79.5c-0.666992 -1.33301 -3.33398 -5.5 -8.00098 -12.5s-9.83398 -14.333 -15.501 -22s-11.167 -14.667 -16.5 -21s-9 -9.5 -11 -9.5c-9.33301 0 -14 5 -14 15
z" />
    <glyph glyph-name="y" unicode="y" horiz-adv-x="292" 
d="M20 -447c0 2.66699 1.16309 7.16895 3.49609 13.502s5.33301 12.666 9 18.999s7.33398 12 11.001 17s7.16699 7.5 10.5 7.5h2c0.666992 -0.666992 1.83398 -1.66699 3.50098 -3s2.5 -2.33301 2.5 -3l1 -2c0 -8 -2.33301 -14.833 -7 -20.5s-7 -12.5 -7 -20.5
c0 -10.667 2.66699 -19.667 8 -27s12 -13.333 20 -18s16.833 -8 26.5 -10s18.834 -3 27.501 -3c16.667 0 30.167 5.83301 40.5 17.5s18.666 25.5 24.999 41.5s10.833 32.667 13.5 50s4.66699 32 6 44c1.33301 20.667 2.16602 41.167 2.49902 61.5s0.5 40.833 0.5 61.5
c0 31.333 -0.833008 63 -2.5 95s-5.16699 63.333 -10.5 94c-1.33301 5.33301 -3 11.5 -5 18.5s-4.83301 13.5 -8.5 19.5s-8.16699 11 -13.5 15s-11.666 6 -18.999 6c-1.33301 0 -6.16602 -0.666992 -14.499 -2s-13.166 -2 -14.499 -2c-12.667 0 -23 2.83301 -31 8.5
s-14.667 12.834 -20 21.501s-9.66602 18.167 -12.999 28.5l-9 28.5c-2.66699 8.66699 -5.33398 15.834 -8.00098 21.501s-6.33398 8.5 -11.001 8.5c-3.33301 0 -6.5 -0.5 -9.5 -1.5s-6.16699 -1.5 -9.5 -1.5s-5.66602 0.333008 -6.99902 1s-2 3 -2 7
c0 5.33301 1.5 11.666 4.5 18.999s6.83301 14.333 11.5 21s10 12.334 16 17.001s12 7 18 7c9.33301 0 17.333 -3.16699 24 -9.5s13 -13.166 19 -20.499s12.333 -14.166 19 -20.499s15 -9.5 25 -9.5c8 0 14.5 4 19.5 12s9.83301 16.667 14.5 26s10.167 18 16.5 26
s14.833 12 25.5 12c6 0 11 -1.16699 15 -3.5s9 -5.5 15 -9.5c5.33301 -3.33301 8.33301 -8.5 9 -15.5s1 -13.167 1 -18.5c0 -10 -1.16699 -20.333 -3.5 -31s-5 -21.334 -8 -32.001s-5.66699 -21.334 -8 -32.001s-3.5 -21.334 -3.5 -32.001c0 -38 1.16699 -76.333 3.5 -115
s3.5 -76.667 3.5 -114v-3c0 -6 -0.333008 -16 -1 -30l-2 -44c-0.666992 -15.333 -1.5 -30 -2.5 -44s-1.5 -23.667 -1.5 -29c-3.33301 -16.667 -6 -36.334 -8 -59.001s-6 -44.334 -12 -65.001s-15.333 -38.167 -28 -52.5s-31.334 -21.5 -56.001 -21.5
c-11.333 0 -23.666 1.5 -36.999 4.5s-26 7.83301 -38 14.5s-22 15 -30 25s-12 21.667 -12 35z" />
    <glyph glyph-name="z" unicode="z" horiz-adv-x="313" 
d="M-9 -325c0 12 2.99902 24.166 8.99902 36.499s14 24.833 24 37.5s21.333 25.334 34 38.001l39 38l71 63c10.667 10 19.334 21.167 26.001 33.5s10 24 10 35s-4.5 20.167 -13.5 27.5s-23.833 11 -44.5 11c-13.333 0 -27.333 1 -42 3s-27.334 5.33301 -38.001 10
c-10 4 -17.333 9.33301 -22 16s-7 16.334 -7 29.001v7c0 2.66699 1.16699 6.5 3.5 11.5s6.33301 11 12 18s13.834 15.833 24.501 26.5c5.33301 5.33301 8 9.33301 8 12c0 4.66699 -5.66699 7 -17 7c-5.33301 0 -11.833 1 -19.5 3s-15 4.66699 -22 8
s-12.833 7.16602 -17.5 11.499s-7 9.16602 -7 14.499c0 10 4 16.833 12 20.5s13 5.5 15 5.5c5.33301 0 13.666 -2 24.999 -6s21 -6 29 -6c16 0 28.667 0.666992 38 2s17.333 3.16602 24 5.49902s13.167 5 19.5 8s14.5 5.83301 24.5 8.5
c12.667 3.33301 23.834 5.33301 33.501 6s18 0.333984 25 -0.999023s12.833 -3 17.5 -5l12 -5c10.667 -4.66699 18.667 -10.834 24 -18.501s8.5 -15.667 9.5 -24s0.5 -16.333 -1.5 -24s-5 -13.834 -9 -18.501c-9.33301 -11.333 -21.166 -20.666 -35.499 -27.999
s-29.333 -13.666 -45 -18.999s-30.667 -9.83301 -45 -13.5s-25.833 -6.83398 -34.5 -9.50098s-13.334 -5.33398 -14.001 -8.00098s4.66602 -5.66699 15.999 -9c9.33301 -2.66699 19.666 -4 30.999 -4h33h18c16.667 0 31.834 -1.66699 45.501 -5s20.5 -12 20.5 -26
c0 -10.667 -3.33301 -21.667 -10 -33s-15.334 -23 -26.001 -35s-23 -24.167 -37 -36.5l-43 -37.5l-7 -6l-46.5 -42c-15.667 -14.667 -29.834 -29.5 -42.501 -44.5s-23 -29.833 -31 -44.5s-12 -28.667 -12 -42c0 -6 1.83301 -11.5 5.5 -16.5s8.33398 -9.33301 14.001 -13
s11.5 -6.5 17.5 -8.5s11.333 -3 16 -3c10 0 20.833 1.33301 32.5 4s23 5.66699 34 9s21.5 6.33301 31.5 9s18.667 4.33398 26 5.00098c13.333 6 22.833 8.33301 28.5 7s8.5 -4.16602 8.5 -8.49902s-2.83301 -9 -8.5 -14s-13.5 -7.83301 -23.5 -8.5
c-2.66699 -1.33301 -14.167 -4.16602 -34.5 -8.49902s-47.166 -8.83301 -80.499 -13.5c-13.333 -2 -26.666 -2.16699 -39.999 -0.5s-25.333 5 -36 10s-19.167 11.5 -25.5 19.5s-9.5 17.667 -9.5 29z" />
    <glyph glyph-name="braceleft" unicode="{" horiz-adv-x="328" 
d="M21 18c0 15.333 2.33203 30.002 6.99902 44.002s9.83398 27.667 15.501 41s10.834 27 15.501 41s7 28.667 7 44c0 9.33301 -0.5 18.333 -1.5 27s-1.5 17.667 -1.5 27c0 5.33301 1.5 10.666 4.5 15.999s6.66699 10.5 11 15.5s8.83301 9.5 13.5 13.5s8.33398 7 11.001 9
c8.66699 6.66699 17.667 11.667 27 15s18 7 26 11s14.5 9.33301 19.5 16s7.5 16.667 7.5 30c0 8.66699 -1.33301 17.167 -4 25.5s-5.66699 16.5 -9 24.5s-6.33301 16.167 -9 24.5s-4 17.166 -4 26.499c0 18 6.83301 35.333 20.5 52s30.5 31.334 50.5 44.001
s41.167 22.667 63.5 30s41.833 11 58.5 11c6.66699 0 11.667 -0.666992 15 -2s5.66602 -4.66602 6.99902 -9.99902v-3c0 -0.666992 -0.666992 -2.33398 -2 -5.00098c-0.666992 -1.33301 -1 -2.33301 -1 -3c-14 2 -30.167 0.5 -48.5 -4.5s-36 -12.333 -53 -22
s-31.333 -21.334 -43 -35.001s-17.5 -28.167 -17.5 -43.5c0 -10 1.33301 -20 4 -30s5.5 -19.833 8.5 -29.5s5.83301 -19.334 8.5 -29.001s4 -19.834 4 -30.501v-24c-0.666992 -2 -1.66699 -5.16699 -3 -9.5l-4.5 -14c-1.66699 -5 -3.5 -9.83301 -5.5 -14.5
s-3.33301 -7.66699 -4 -9c3.33301 -13.333 7 -25.666 11 -36.999s6 -23.666 6 -36.999c0 -14 -2 -26.833 -6 -38.5s-9.33301 -22.667 -16 -33s-14.167 -20.5 -22.5 -30.5l-25.5 -31c-7.33301 -9.33301 -14.833 -18 -22.5 -26s-11.5 -18.333 -11.5 -31
s6.66699 -22.167 20 -28.5s28.666 -10.833 45.999 -13.5s34.166 -4.16699 50.499 -4.5s27.166 -0.5 32.499 -0.5c10.667 0 21.334 0.666992 32.001 2s21.667 2 33 2c8.66699 0 16.667 -1.83301 24 -5.5s11 -10.167 11 -19.5c0 -12 -4.66699 -21.833 -14 -29.5
s-19.666 -12.167 -30.999 -13.5c-27.333 -2 -51.333 -3.16699 -72 -3.5s-44 -0.5 -70 -0.5c-18.667 0 -38 1.16699 -58 3.5s-38.167 7.33301 -54.5 15s-29.833 18.667 -40.5 33s-16 33.5 -16 57.5z" />
    <glyph glyph-name="bar" unicode="|" horiz-adv-x="162" 
d="M105 65c-2 -13.333 -4.50488 -28 -7.50488 -44s-7.16699 -30.667 -12.5 -44c-0.666992 -4.66699 -3.66699 -6.33398 -9 -5.00098l-1 1l-7 21c4 24 6.66699 51 8 81s1.83301 61.5 1.5 94.5s-1.5 66.5 -3.5 100.5s-4.66699 67.167 -8 99.5s-7.16602 62.833 -11.499 91.5
s-8.5 54.334 -12.5 77.001c-1.33301 6 -2.66602 14 -3.99902 24s-0.666016 17.667 2.00098 23c2 5.33301 5.83301 9.5 11.5 12.5s12 5 19 6s13.833 1.33301 20.5 1s12.334 -1.5 17.001 -3.5c2.66699 0 4.33398 -3.33301 5.00098 -10c2 -12 3.66699 -27.5 5 -46.5
s2.5 -39.667 3.5 -62s1.5 -45.5 1.5 -69.5v-69.5c0 -22.333 -0.5 -43.333 -1.5 -63l-2.5 -48.5l-14 -167v0z" />
    <glyph glyph-name="braceright" unicode="}" horiz-adv-x="310" 
d="M-90 -43c0 2 0.333008 5.50391 1 10.5039s3 7.5 7 7.5h24c3.33301 0 6 -3.5 8 -10.5s4.33301 -11.5 7 -13.5c12.667 -9.33301 26.5 -13.666 41.5 -12.999s29.167 1 42.5 1c9.33301 0 22.833 0.166992 40.5 0.5s35 2.66602 52 6.99902s31.833 11.666 44.5 21.999
s19 25.833 19 46.5c0 12 -2 23.333 -6 34s-9 21 -15 31s-12.167 19.5 -18.5 28.5s-11.833 18.167 -16.5 27.5c-9.33301 18.667 -15 37.5 -17 56.5s-4.66699 39.167 -8 60.5c-1.33301 11.333 -3.33301 22 -6 32s-4 21 -4 33c0 8.66699 0.5 18 1.5 28s3.83301 18.333 8.5 25
l50 71c3.33301 8 6.83301 15.5 10.5 22.5s5.5 15.167 5.5 24.5c0 18.667 -5 32.834 -15 42.501s-21.167 17 -33.5 22l-33.5 13.5c-10 4 -15 10 -15 18c0 6 2.16699 10.5 6.5 13.5s9.5 5.16699 15.5 6.5s11.833 2 17.5 2h12.5c28.667 0 52 -10.5 70 -31.5s27 -50.5 27 -88.5
c0 -14 -2 -26.667 -6 -38s-8.16699 -22 -12.5 -32l-12.5 -28c-4 -8.66699 -6 -17.334 -6 -26.001c0 -8 1.16699 -16 3.5 -24s4.83301 -15.833 7.5 -23.5s5.16699 -15.5 7.5 -23.5s3.5 -16.333 3.5 -25c0 -10 -1.33301 -19.167 -4 -27.5s-5.5 -16.5 -8.5 -24.5
s-5.83301 -16.333 -8.5 -25s-4 -18.334 -4 -29.001c0 -11.333 2 -22 6 -32s8.5 -19.833 13.5 -29.5s9.66699 -19.5 14 -29.5s6.5 -20.667 6.5 -32c0 -31.333 -5 -55.5 -15 -72.5s-22.833 -29.5 -38.5 -37.5s-33.334 -12.667 -53.001 -14s-39.5 -2 -59.5 -2h-36
c-1.33301 0 -4.16602 0.166992 -8.49902 0.5s-9 0.666016 -14 0.999023s-9.66699 0.666016 -14 0.999023s-7.5 0.5 -9.5 0.5l-47 8c-6.66699 1.33301 -13.167 5 -19.5 11s-9.5 13.667 -9.5 23z" />
    <glyph glyph-name="asciitilde" unicode="~" horiz-adv-x="427" 
d="M129 199c-11.333 0 -24.6641 -5.66992 -39.9971 -17.0029s-29.666 -22.666 -42.999 -33.999c-1.33301 -2 -3.83301 -3 -7.5 -3s-5.16699 1.66699 -4.5 5c0.666992 8.66699 5.66699 17.834 15 27.501s20 18.667 32 27s24.167 15.333 36.5 21s22.5 8.5 30.5 8.5
c8.66699 0 15.5 -0.666992 20.5 -2s9.5 -3.16602 13.5 -5.49902s7.66699 -5.5 11 -9.5s7.66602 -8.33301 12.999 -13c6 -6 14.167 -10 24.5 -12s22.833 2.66699 37.5 14l12.5 9l17.5 12.5l17.5 12.5c5.66699 4 9.5 7 11.5 9c14.667 12 27 16.333 37 13
s12.667 -15.666 8 -36.999c-6.66699 -8 -16.5 -17.333 -29.5 -28s-27 -20.834 -42 -30.501s-30 -18 -45 -25s-27.833 -10.5 -38.5 -10.5c-18.667 0 -31.834 3.5 -39.501 10.5s-13.334 14.833 -17.001 23.5s-7.33398 16.5 -11.001 23.5s-10.5 10.5 -20.5 10.5z" />
    <glyph glyph-name="exclamdown" unicode="&#xa1;" horiz-adv-x="233" 
d="M130 110c1.33301 -28.667 3.5 -56.8291 6.5 -84.4961s4.5 -56.167 4.5 -85.5c0 -21.333 -1.66699 -42.333 -5 -63s-6.83301 -41 -10.5 -61l-10.5 -59.5c-3.33301 -19.667 -5 -39.5 -5 -59.5c0 -8.66699 1.5 -16.334 4.5 -23.001s4.5 -14 4.5 -22
c0 -13.333 -3.83301 -23 -11.5 -29s-17.5 -9 -29.5 -9c-10.667 0 -20 2.33301 -28 7s-14.5 10.667 -19.5 18s-8.83301 15.666 -11.5 24.999s-4 18.666 -4 27.999c0 20.667 1.83301 39.334 5.5 56.001s8.33398 32.667 14.001 48l17.5 46.5c6 15.667 11.333 32.5 16 50.5
l27 107l4 8c0 3.33301 0.166992 9.16602 0.5 17.499l1 26c0.333008 9 0.833008 17.667 1.5 26s1 14.166 1 17.499c0 4 1.16699 9 3.5 15s6.16602 9 11.499 9c4.66699 0 8.66699 -3 12 -9zM183 203.005c0 -8 -2.00098 -14.999 -6.00098 -20.999s-9.16699 -11.333 -15.5 -16
s-13.166 -8.16699 -20.499 -10.5s-14.333 -3.5 -21 -3.5c-8.66699 0 -15.667 1.5 -21 4.5s-8 9.16699 -8 18.5c0 12.667 6 24.167 18 34.5s24 15.5 36 15.5c2.66699 0 6.16699 -0.5 10.5 -1.5s8.5 -2.33301 12.5 -4s7.5 -3.83398 10.5 -6.50098s4.5 -6 4.5 -10z" />
    <glyph glyph-name="cent" unicode="&#xa2;" 
d="M126 199c0 2.66699 -0.166016 5.16699 -0.499023 7.5s-0.5 4.83301 -0.5 7.5c-1.33301 20 -2.33301 38 -3 54s-1.33398 34 -2.00098 54c2.66699 10.667 7.66699 15.667 15 15s11.666 -6.33398 12.999 -17.001v-48c0 -16 0.333008 -31.667 1 -47c0 -8 1.33301 -16 4 -24
c2 -6.66699 5.83301 -10 11.5 -10s12 1.33301 19 4s13.833 5.66699 20.5 9s12 5 16 5h7c3.33301 0 6.5 -0.5 9.5 -1.5s5.66699 -2.33301 8 -4s3.5 -4.16699 3.5 -7.5c0 -7.33301 -2.66699 -12.833 -8 -16.5s-11.333 -5.5 -18 -5.5c-4.66699 0 -8.66699 1.33301 -12 4
s-7 4 -11 4c-5.33301 0 -13.333 -2.66699 -24 -8c-3.33301 -2 -7.33301 -5.16699 -12 -9.5s-7.33398 -10.166 -8.00098 -17.499c-1.33301 -16 -1.33301 -32 0 -48v-18c0 -5.33301 1.16699 -8.16602 3.5 -8.49902s4.83301 0.666992 7.5 3s5.33398 5.5 8.00098 9.5
s4.66699 8 6 12c3.33301 10.667 10.333 18.334 21 23.001s22.334 7 35.001 7c11.333 0 19.5 -4.33301 24.5 -13s7.5 -17.667 7.5 -27c0 -18.667 -4.5 -32.5 -13.5 -41.5s-19.333 -15.833 -31 -20.5s-23.167 -8.83398 -34.5 -12.501s-19.333 -9.5 -24 -17.5
c-4 -7.33301 -5.66699 -14.333 -5 -21c1.33301 -21.333 1.33301 -46.666 0 -75.999c0 -5.33301 -0.666992 -9.83301 -2 -13.5s-2.83301 -5.83398 -4.5 -6.50098s-3.16699 0.5 -4.5 3.5s-2.33301 8.83301 -3 17.5l-5 75c-4.66699 11.333 -8.83398 17.666 -12.501 18.999
s-7.5 1.66602 -11.5 0.999023s-8 -1.16699 -12 -1.5s-8 -0.5 -12 -0.5c-21.333 0 -39.666 6.16699 -54.999 18.5s-23 30.166 -23 53.499c0 14 7.83301 29.333 23.5 46s34.167 32.334 55.5 47.001c5.33301 3.33301 12 7.83301 20 13.5s12 11.834 12 18.501v10zM76.001 89
c-3.33301 -6.66699 -5.00098 -12.334 -5.00098 -17.001c0 -5.33301 1.5 -9.33301 4.5 -12s6.83301 -4.5 11.5 -5.5s9.16699 -1.5 13.5 -1.5h11.5c4 0 7.83301 1.33301 11.5 4s6.83398 10.667 9.50098 24l-3 51c-5.33301 6 -10 7.16699 -14 3.5l-11 -10.5
c-8.66699 -7.33301 -15.667 -14.166 -21 -20.499s-8 -11.5 -8 -15.5z" />
    <glyph glyph-name="sterling" unicode="&#xa3;" horiz-adv-x="484" 
d="M215 252c1.33301 -10.667 5.16309 -16.501 11.4961 -17.501s11.833 -1.83301 16.5 -2.5c16.667 -2 32.834 -5.83301 48.501 -11.5s31.834 -12.167 48.501 -19.5c4.66699 -4 8.5 -8.5 11.5 -13.5s4.5 -10.833 4.5 -17.5c0 -9.33301 -3.33301 -16.5 -10 -21.5
s-14.334 -7.5 -23.001 -7.5c-5.33301 0 -10.5 1.83301 -15.5 5.5l-16.5 12l-18.5 13.5c-6.33301 4.66699 -13.166 8 -20.499 10c-3.33301 0.666992 -7 1.33398 -11 2.00098s-8 0.666992 -12 0s-7.33301 -1.83398 -10 -3.50098s-4 -4.83398 -4 -9.50098v-98
c0 -4 2.16699 -7.16699 6.5 -9.5s9.16602 -4.16602 14.499 -5.49902s10.5 -2.33301 15.5 -3s8.16699 -1.33398 9.5 -2.00098c18 -5.33301 34.167 -11 48.5 -17l41.5 -17c13.333 -5.33301 26.833 -9.83301 40.5 -13.5s28.834 -5.5 45.501 -5.5
c13.333 0 26.666 1.83301 39.999 5.5s28.666 8.16699 45.999 13.5c0.666992 0 2.5 0.666992 5.5 2s6.33301 2.5 10 3.5s7.16699 2.16699 10.5 3.5s5.66602 2 6.99902 2c4.66699 0 7 -1.66699 7 -5c0 -8.66699 -5 -16.667 -15 -24s-22.333 -13.833 -37 -19.5
s-30.334 -10 -47.001 -13s-31.667 -4.5 -45 -4.5c-9.33301 0 -16.666 0.5 -21.999 1.5s-10.166 2.16699 -14.499 3.5l-14.5 4.5l-21 6.5c-13.333 4 -27 9 -41 15s-28.333 9 -43 9c-4 0 -8 -0.333008 -12 -1s-7 -3 -9 -7c-2 -2 -4.66699 -5.5 -8 -10.5l-11 -16.5
c-4 -6 -7.66699 -11.833 -11 -17.5s-5.66602 -9.5 -6.99902 -11.5c-7.33301 -12.667 -17.166 -21.5 -29.499 -26.5s-26.5 -7.5 -42.5 -7.5c-27.333 0 -48.5 7.5 -63.5 22.5s-20.833 37.167 -17.5 66.5c0.666992 8 3.33398 15.167 8.00098 21.5s10.334 11.666 17.001 15.999
s13.667 8.16602 21 11.499s14.333 6.33301 21 9c12 4 21.167 10.333 27.5 19s10.833 18.334 13.5 29.001s4.16699 22 4.5 34s0.5 23.667 0.5 35c0 5.33301 -2.5 9 -7.5 11s-9.5 3 -13.5 3c-6.66699 0 -12.834 -0.666992 -18.501 -2s-11.5 -2 -17.5 -2
c-3.33301 0 -6.33301 0.5 -9 1.5s-4 3.5 -4 7.5c0 5.33301 3.83301 10 11.5 14s16.5 7.66699 26.5 11s19.333 7.16602 28 11.499s14 9.83301 16 16.5c0.666992 6 0.666992 14.5 0 25.5s-1.66699 22.333 -3 34s-2.66602 22.334 -3.99902 32.001s-2 15.834 -2 18.501
c-2 14.667 -3 30 -3 46c0 17.333 6.16699 32.5 18.5 45.5s29.166 19.5 50.499 19.5c9.33301 0 18.833 -1 28.5 -3s18.5 -5 26.5 -9s14.5 -9.16699 19.5 -15.5s7.5 -14.166 7.5 -23.499c0 -13.333 -8 -20 -24 -20c-6 0 -11.5 1.66699 -16.5 5s-10.833 5 -17.5 5
c-5.33301 0 -10.833 -1.16699 -16.5 -3.5s-10.167 -5.16602 -13.5 -8.49902c-7.33301 -6.66699 -11.666 -14.5 -12.999 -23.5s-2 -17.5 -2 -25.5z" />
    <glyph glyph-name="currency" unicode="&#xa4;" horiz-adv-x="211" 
d="M176 204c4.66699 -4.66699 8.99707 -9.49805 12.9971 -14.498s8.33301 -9.5 13 -13.5h1c6.66699 -2 11.167 -5.33301 13.5 -10s3 -9.33398 2 -14.001s-3.5 -8.66699 -7.5 -12s-9.33301 -4.33301 -16 -3c-4 2 -7.66699 4.83301 -11 8.5s-6.5 7.33398 -9.5 11.001l-9 10.5
c-3 3.33301 -6.5 5.33301 -10.5 6c-6 1.33301 -11.833 0.666016 -17.5 -2.00098s-11.334 -5.83398 -17.001 -9.50098s-11.5 -7.16699 -17.5 -10.5s-12.333 -5 -19 -5c-13.333 0 -23.333 -4.5 -30 -13.5s-13 -19.167 -19 -30.5c-10.667 -6 -19.5 -5.5 -26.5 1.5
s-7.5 15.833 -1.5 26.5c11.333 6 18.666 11.667 21.999 17s4.83301 10.833 4.5 16.5s-2 12.167 -5 19.5s-4.83301 16.333 -5.5 27c-1.33301 14.667 0.833984 32.167 6.50098 52.5s13.834 38.166 24.501 53.499h-2c-2.66699 4 -8 8.83301 -16 14.5s-13.333 8.5 -16 8.5
c-6.66699 2.66699 -11 6.5 -13 11.5s-2 9.66699 0 14s5.33301 7.83301 10 10.5s10.334 3 17.001 1c6 -2 10.833 -5.5 14.5 -10.5s6.83398 -9.66699 9.50098 -14s5.83398 -7.5 9.50098 -9.5s8.5 -1 14.5 3c4 2.66699 9.66699 4.83398 17 6.50098
s13.666 1.83398 18.999 0.500977s10 -3.5 14 -6.5s7.83301 -5.5 11.5 -7.5s7.33398 -2.83301 11.001 -2.5s7.5 2.5 11.5 6.5c5.33301 6.66699 11 12.834 17 18.501l18 17.5c6 2.66699 11.167 3.33398 15.5 2.00098s7.66602 -3.83301 9.99902 -7.5
s3.33301 -7.83398 3 -12.501s-2.16602 -9.33398 -5.49902 -14.001c-3.33301 -1.33301 -6.83301 -2.83301 -10.5 -4.5s-7.16699 -3.83398 -10.5 -6.50098c-5.33301 -4 -8.83301 -8 -10.5 -12s-2.5 -8.16699 -2.5 -12.5s0.666992 -8.83301 2 -13.5s2.33301 -9.66699 3 -15
c2 -28.667 -4.33301 -54.667 -19 -78zM135.997 233.002c-0.666992 6.66699 -1.50098 12.166 -2.50098 16.499s-3.5 9.5 -7.5 15.5l-19 25c-2 2 -5.16699 1.66699 -9.5 -1s-8.16602 -5.66699 -11.499 -9c-8 -11.333 -12 -26 -12 -44c0 -9.33301 1.5 -18.5 4.5 -27.5
s8.16699 -12.833 15.5 -11.5h3c5.33301 0 11.333 0.5 18 1.5s11.667 5.5 15 13.5c1.33301 2.66699 2.83301 6.33398 4.5 11.001s2.16699 8 1.5 10z" />
    <glyph glyph-name="yen" unicode="&#xa5;" horiz-adv-x="431" 
d="M186 1c-0.666992 8.66699 -0.162109 17.5059 1.50488 26.5059l5 27l5 27c1.66699 9 2.16699 18.167 1.5 27.5c-2.66699 5.33301 -6.33398 8 -11.001 8h-14c-21.333 0 -42.166 -1.83301 -62.499 -5.5s-40.833 -5.5 -61.5 -5.5c-2 0 -4.33301 0.333008 -7 1
s-5 1.66699 -7 3s-3.16699 2.83301 -3.5 4.5s1.16699 3.83398 4.5 6.50098c11.333 4.66699 24 8.66699 38 12s28 6.16602 42 8.49902s27.833 4.16602 41.5 5.49902s26.167 2.66602 37.5 3.99902c4.66699 1.33301 6.66699 5.83301 6 13.5s-1 13.5 -1 17.5
c-0.666992 8 -4.16699 13.667 -10.5 17s-13.166 5 -20.499 5h-3c-3.33301 0 -11 -0.5 -23 -1.5s-25 -2.33301 -39 -4s-27.167 -3.16699 -39.5 -4.5s-19.833 -2 -22.5 -2c-5.33301 -0.666992 -9.83301 -0.166992 -13.5 1.5s-6.33398 3.5 -8.00098 5.5
s-2.33398 4.16699 -2.00098 6.5s2.5 4.16602 6.5 5.49902c25.333 7.33301 50.833 12.166 76.5 14.499s51.5 5.16602 77.5 8.49902c3.33301 2 5.16602 3.83301 5.49902 5.5s0.5 4.16699 0.5 7.5c-3.33301 40 -16.666 77 -39.999 111c-4 6 -10.167 12.333 -18.5 19l-24.5 20
c-8 6.66699 -15 13.334 -21 20.001s-9 12.667 -9 18c-0.666992 5.33301 1.66602 10.166 6.99902 14.499s10.666 6.5 15.999 6.5c11.333 0 22.5 -3.66699 33.5 -11s21.333 -16.333 31 -27s19 -22.334 28 -35.001l24 -35l18 -27c5 -7.33301 8.83301 -11 11.5 -11
c4 0 9.16699 4 15.5 12s13.5 18 21.5 30l25.5 38.5c9 13.667 18 26.5 27 38.5s17.5 22 25.5 30s15.333 12 22 12c4.66699 0 7.66699 -1 9 -3s1.5 -4.33301 0.5 -7s-2.5 -5.33398 -4.5 -8.00098s-3.66699 -4.66699 -5 -6c-17.333 -21.333 -33.833 -45.166 -49.5 -71.499
l-41.5 -68.5c-4.66699 -6.66699 -8.33398 -14 -11.001 -22s-3.66699 -15 -3 -21c1.33301 -17.333 12.666 -26 33.999 -26h86c3.33301 0 7.5 -1.33301 12.5 -4s7.5 -6.66699 7.5 -12c1.33301 -8.66699 -0.333984 -17.334 -5.00098 -26.001s-12 -13 -22 -13
c-8 0 -15.333 2.33301 -22 7s-13.667 7 -21 7h-46c-2.66699 0 -6.16699 -1 -10.5 -3s-8.66602 -4.5 -12.999 -7.5s-8 -6.33301 -11 -10s-4.5 -6.83398 -4.5 -9.50098c0 -1.33301 0.166992 -3 0.5 -5s1.5 -3 3.5 -3h110c4.66699 0 9.83398 -1.5 15.501 -4.5
s8.5 -7.16699 8.5 -12.5c0.666992 -4 0.666992 -8.83301 0 -14.5s-2 -10.834 -4 -15.501s-4.66699 -8.66699 -8 -12s-7.66602 -5 -12.999 -5c-6 0 -11.167 1.5 -15.5 4.5s-8.83301 6.5 -13.5 10.5s-9.83398 7.5 -15.501 10.5s-13.5 4.5 -23.5 4.5
c-6 0 -10.333 -0.166992 -13 -0.5l-8 -1c-2.66699 -0.333008 -5.66699 -1 -9 -2s-8.66602 -2.5 -15.999 -4.5c-6 -1.33301 -10.333 -5.16602 -13 -11.499s-4.33398 -13.333 -5.00098 -21s-0.666992 -15.5 0 -23.5s1 -14 1 -18c0 -6 1.5 -11.667 4.5 -17s4.83301 -11 5.5 -17
c0.666992 -9.33301 -0.833008 -16.666 -4.5 -21.999s-9.16699 -10.666 -16.5 -15.999h-6c-7.33301 0 -15.333 3 -24 9s-13.334 13 -14.001 21z" />
    <glyph glyph-name="brokenbar" unicode="&#xa6;" horiz-adv-x="162" 
d="M105 265c-2 -13.333 -4.50293 -27.998 -7.50293 -43.998s-7.16699 -30.667 -12.5 -44c-0.666992 -4.66699 -3.66699 -6.33398 -9 -5.00098l-1 1l-7 21c6 36 9.16699 75.667 9.5 119s-1 87.166 -4 131.499s-7.33301 87.5 -13 129.5s-11.834 80 -18.501 114
c-1.33301 6 -2.66602 14 -3.99902 24s-0.666016 17.667 2.00098 23c2 5.33301 5.83301 9.5 11.5 12.5s12 5 19 6s13.833 1.33301 20.5 1s12.334 -1.5 17.001 -3.5c2.66699 0 4.33398 -3.33301 5.00098 -10c3.33301 -18 5.83301 -40.667 7.5 -68s2.66699 -55.5 3 -84.5
s0 -57.5 -1 -85.5s-2.16699 -51.667 -3.5 -71zM104.997 -358.998c-2 -13.333 -4.5 -27.998 -7.5 -43.998s-7.16699 -30.667 -12.5 -44c-0.666992 -4.66699 -3.66699 -6.33398 -9 -5.00098l-1 1l-7 21c12 72.667 18.333 145.5 19 218.5s-5.66602 143.5 -18.999 211.5
c-0.666992 2.66699 -0.833984 9.16699 -0.500977 19.5s0.833008 21.166 1.5 32.499s1.66699 22 3 32s2.66602 16.333 3.99902 19c4 11.333 8 19 12 23s10.667 4.33301 20 1c2.66699 0 4.33398 -3.33301 5.00098 -10c3.33301 -18 5.83301 -40.667 7.5 -68
s2.66699 -55.5 3 -84.5s0 -57.5 -1 -85.5s-2.16699 -51.667 -3.5 -71z" />
    <glyph glyph-name="section" unicode="&#xa7;" horiz-adv-x="379" 
d="M40 -97c0 10.667 4.1709 18.335 12.5039 23.002s18 8 29 10s21.833 3.33301 32.5 4s18 2.33398 22 5.00098c3.33301 2 8.66602 5 15.999 9l23 12.5l22 12c6.66699 3.66699 11 6.16699 13 7.5c6.66699 4 14.167 9.5 22.5 16.5s16 14.667 23 23s12.833 17.333 17.5 27
s7 19.167 7 28.5s-4 16.833 -12 22.5s-15.667 9.16699 -23 10.5l-112 24c-7.33301 2 -16.333 4.66699 -27 8s-20.834 7.66602 -30.501 12.999s-18 11.833 -25 19.5s-10.5 16.834 -10.5 27.501c0 14.667 5.33301 27.5 16 38.5s23.834 21 39.501 30s32.667 16.667 51 23
l51 17.5c15.667 5.33301 28.834 10 39.501 14s16 8 16 12c0 5.33301 -7.5 11.333 -22.5 18s-31.333 14.667 -49 24s-34 20.333 -49 33s-22.5 28 -22.5 46c0 20 9 38.333 27 55s39 31 63 43s48.5 21.167 73.5 27.5s44.5 9.5 58.5 9.5c1.33301 0 4.83301 -0.166992 10.5 -0.5
s9.5 -0.5 11.5 -0.5c7.33301 -2 12.5 -5.83301 15.5 -11.5s4.5 -12.167 4.5 -19.5c0 -10 -3 -18.333 -9 -25s-13.667 -10 -23 -10c-2 0 -4.5 0.166992 -7.5 0.5s-4.5 2.16602 -4.5 5.49902s0.666992 6.5 2 9.5s2 6.16699 2 9.5c0 4 -1.5 6.5 -4.5 7.5s-5.83301 1.5 -8.5 1.5
c-10.667 0 -21.167 -1.66699 -31.5 -5s-19.833 -7.33301 -28.5 -12c-4 -2 -9 -4.66699 -15 -8l-17.5 -9.5l-15 -8c-4.33301 -2.33301 -6.83301 -3.83301 -7.5 -4.5c-2 -1.33301 -4.83301 -3.66602 -8.5 -6.99902s-7 -6.66602 -10 -9.99902s-5.83301 -6.66602 -8.5 -9.99902
s-4 -5.33301 -4 -6l-3 -16c-0.666992 -0.666992 2.16602 -4 8.49902 -10l14.5 -14c10.667 -10.667 24.5 -18.834 41.5 -24.501s33.167 -12 48.5 -19s28.666 -15.833 39.999 -26.5s17 -26.334 17 -47.001c0 -12 -3.5 -26 -10.5 -42s-15.833 -31.333 -26.5 -46
s-22.5 -27 -35.5 -37s-25.5 -15 -37.5 -15c-9.33301 0 -18.5 2 -27.5 6s-13.5 12.333 -13.5 25v12c0 0.666992 0.666992 2.5 2 5.5s2 5.16699 2 6.5c0 6 -2.66699 9.5 -8 10.5s-10 1.5 -14 1.5c-3.33301 0 -9 -1.16699 -17 -3.5s-16.5 -5.5 -25.5 -9.5
s-16.833 -8.33301 -23.5 -13s-10 -9 -10 -13c0 -10.667 5.5 -18.834 16.5 -24.501s24.667 -10.334 41 -14.001s34.166 -7.16699 53.499 -10.5s37.166 -8 53.499 -14s30 -14.167 41 -24.5s16.5 -24.166 16.5 -41.499c0 -23.333 -5.83301 -43.833 -17.5 -61.5
s-26.334 -33.334 -44.001 -47.001s-36.334 -25.834 -56.001 -36.501l-53.5 -29c-13.333 -7.33301 -26.666 -13.333 -39.999 -18s-27.666 -7 -42.999 -7h-17c-5.33301 4 -8 9.33301 -8 16z" />
    <glyph glyph-name="dieresis" unicode="&#xa8;" 
d="M83 317c12 0 20.5 -3.83301 25.5 -11.5s7.5 -14.5 7.5 -20.5c0 -10 -3.5 -18.5 -10.5 -25.5s-17.167 -10.5 -30.5 -10.5c-9.33301 0 -16.833 1.33301 -22.5 4s-8.5 9.66699 -8.5 21c0 9.33301 3 18.833 9 28.5s16 14.5 30 14.5zM187 317c13.333 0 22.333 -4 27 -12
s7 -14.667 7 -20c0 -10 -3.5 -18.5 -10.5 -25.5s-17.167 -10.5 -30.5 -10.5c-9.33301 0 -16.833 1.33301 -22.5 4s-8.5 9.66699 -8.5 21c0 9.33301 2.83301 18.833 8.5 28.5s15.5 14.5 29.5 14.5z" />
    <glyph glyph-name="copyright" unicode="&#xa9;" horiz-adv-x="636" 
d="M13 130c0 33.333 6.33105 64.9971 18.998 94.9971s26.334 57.333 41.001 82c27.333 34 53.833 64.833 79.5 92.5s51.834 53 78.501 76s54.834 43.833 84.501 62.5s62.5 36 98.5 52c12.667 5.33301 27.5 11 44.5 17s32.167 9 45.5 9l2 -1l1 -1
c7.33301 -1.33301 12.666 -2.83301 15.999 -4.5s5.66602 -4.16699 6.99902 -7.5s2.66602 -7.16602 3.99902 -11.499s3.66602 -9.5 6.99902 -15.5c2 -4 3.66699 -6.66699 5 -8s2.5 -2.33301 3.5 -3s2.33301 -1.66699 4 -3s3.83398 -3.66602 6.50098 -6.99902
c19.333 -23.333 33.5 -48.166 42.5 -74.499s13.5 -56.833 13.5 -91.5v-45l-25.5 -62c-7.66699 -18 -17.834 -38 -30.501 -60c0 -0.666992 -0.666992 -1.66699 -2 -3l-2 -2c-22.667 -24.667 -45.167 -46.167 -67.5 -64.5s-45 -34.833 -68 -49.5s-46.667 -28.167 -71 -40.5
s-50.5 -24.833 -78.5 -37.5c-15.333 -7.33301 -31.5 -13.333 -48.5 -18s-34.167 -7 -51.5 -7c-13.333 0 -29.166 2.16699 -47.499 6.5s-35.666 11.666 -51.999 21.999s-30.166 23.833 -41.499 40.5s-17 37.334 -17 62.001zM128.998 204.997
c0 -34 7.1709 -61.002 21.5039 -81.002s33.5 -33 57.5 -39h38c32.667 0 61.5 4 86.5 12s52.167 20.667 81.5 38c18.667 11.333 38.167 25.333 58.5 42s38.833 35.667 55.5 57s30.5 45.166 41.5 71.499s16.5 55.166 16.5 86.499c0 20.667 -2.5 40.334 -7.5 59.001
s-12.333 35 -22 49s-21 25 -34 33s-27.5 12 -43.5 12c-23.333 0 -44.833 -6.16699 -64.5 -18.5s-38.5 -28.166 -56.5 -47.499c-2.66699 -2.66699 -5.83398 -6.5 -9.50098 -11.5l-11 -14.5c-3.66699 -4.66699 -6.83398 -9 -9.50098 -13s-4 -6.33301 -4 -7v-11h4
c2 0 3 0.666992 3 2c22 6.66699 42.167 15.167 60.5 25.5s39.5 18.166 63.5 23.499c0.666992 0 2.5 0.166992 5.5 0.5s5.16699 0.5 6.5 0.5h11c4 0 7.66699 -1.66699 11 -5v-15c0 -13.333 -3.16699 -23.666 -9.5 -30.999s-14.166 -11 -23.499 -11
c-7.33301 0 -14 2.66699 -20 8s-12.667 8 -20 8c-4 0 -10.833 -2.5 -20.5 -7.5s-20.667 -11.5 -33 -19.5s-25.166 -17 -38.499 -27s-25.5 -20.167 -36.5 -30.5s-20.167 -20.333 -27.5 -30s-11 -17.834 -11 -24.501c0 -6 2 -11.667 6 -17s8.5 -10 13.5 -14
s10.167 -7.16699 15.5 -9.5s9.66602 -3.5 12.999 -3.5c6.66699 0 13 1.33301 19 4s12 5.83398 18 9.50098s12 6.83398 18 9.50098s12.333 4 19 4c10.667 0 21.167 -3 31.5 -9s15.5 -18 15.5 -36c0 -15.333 -3 -27.5 -9 -36.5s-14.333 -15.833 -25 -20.5
c-24.667 -9.33301 -48.167 -16.666 -70.5 -21.999s-45.833 -8 -70.5 -8c-20.667 0 -38 7.66699 -52 23s-21 37.666 -21 66.999c0 19.333 5.16699 37 15.5 53s21.5 30.5 33.5 43.5l33.5 35c10.333 10.333 15.5 19.833 15.5 28.5v2
c-0.666992 1.33301 -1.33398 3.33301 -2.00098 6s-1.33398 4.33398 -2.00098 5.00098h-11c-15.333 0 -30.333 -6.66699 -45 -20s-27.834 -30 -39.501 -50s-21.167 -41.5 -28.5 -64.5s-11 -44.167 -11 -63.5z" />
    <glyph glyph-name="ordfeminine" unicode="&#xaa;" horiz-adv-x="204" 
d="M18 374c-4 24.667 1.16504 46.9961 15.498 66.9961s33.166 38.667 56.499 56l-2 10.5c-0.666992 3.66699 -0.833984 7 -0.500977 10s2 5.5 5 7.5s7.5 3 13.5 3c10.667 0 19 -5 25 -15s11 -21.667 15 -35l12 -40c4 -13.333 9.33301 -23.333 16 -30
c5.33301 -5.33301 11.333 -10.666 18 -15.999s14.667 -10.666 24 -15.999c2.66699 -4 3.16699 -7.5 1.5 -10.5s-4.16699 -5.33301 -7.5 -7s-7.16602 -2.83398 -11.499 -3.50098s-7.83301 -1 -10.5 -1c-15.333 0 -26.166 4.16699 -32.499 12.5l-20.5 26.5
c-1.33301 -1.33301 -4.16602 -3.66602 -8.49902 -6.99902l-13.5 -10c-4.66699 -3.33301 -9 -6.66602 -13 -9.99902s-7 -5.33301 -9 -6c-4 -3.33301 -10 -6.16602 -18 -8.49902s-15.333 -3.16602 -22 -2.49902c-8 0.666992 -15.167 3.66699 -21.5 9
s-10.166 10.666 -11.499 15.999zM50.998 405.996c0 -2 0.333008 -6 1 -12s4 -9 10 -9s12.333 2 19 6s12.667 8.66699 18 14s9.83301 10.833 13.5 16.5s5.5 10.167 5.5 13.5c0 8.66699 -2.16699 17 -6.5 25s-8.83301 15.667 -13.5 23c-2 0 -3.33301 -0.166992 -4 -0.5
s-2 -0.833008 -4 -1.5c-10 -11.333 -19 -23.333 -27 -36s-12 -25.667 -12 -39z" />
    <glyph glyph-name="guillemotleft" unicode="&#xab;" horiz-adv-x="382" 
d="M40 100c0 14 4.50195 24.0049 13.502 30.0049s16.5 10.667 22.5 14l130 75h2c0.666992 0 1 0.166992 1 0.5s0.333008 0.5 1 0.5c2 0 4.16699 -1 6.5 -3s3.5 -5.33301 3.5 -10v-2c-0.666992 -0.666992 -1.33398 -2.33398 -2.00098 -5.00098s-1 -4.33398 -1 -5.00098
c-2 -0.666992 -6.16699 -2.83398 -12.5 -6.50098s-10.5 -6.16699 -12.5 -7.5l-12.5 -8.5l-21 -14c-7.66699 -5 -14.667 -9.83301 -21 -14.5s-10.5 -7.66699 -12.5 -9c-3.33301 -2 -5.66602 -4.5 -6.99902 -7.5s-2.66602 -8.16699 -3.99902 -15.5
c0 -0.666992 0.5 -2.33398 1.5 -5.00098s2.33301 -5.5 4 -8.5l4.5 -8c1.33301 -2.33301 2.33301 -3.5 3 -3.5c7.33301 -5.33301 13.166 -9.83301 17.499 -13.5s8.33301 -7.33398 12 -11.001l12 -11.5c4.33301 -4 10.166 -8.33301 17.499 -13
c3.33301 -2.66699 5.66602 -5.5 6.99902 -8.5s2 -7.5 2 -13.5c0 -3.33301 -0.166992 -6 -0.5 -8s-1.16602 -4.66699 -2.49902 -8c-1.33301 -0 -3.33301 -0.166992 -6 -0.5s-4.33398 -0.5 -5.00098 -0.5c-9.33301 0 -17.5 3 -24.5 9s-14.833 11.333 -23.5 16l-52 23
c-7.33301 3.33301 -16 9 -26 17s-15 20 -15 36zM180.002 100.005c0 6.66699 1.32715 12.4961 3.99414 17.4961s6 9.16699 10 12.5s8 6 12 8s7.33301 4 10 6c4.66699 2.66699 11.334 6.83398 20.001 12.501l27 18.5l27 18.5c8.66699 5.66699 15.667 9.83398 21 12.501
c0.666992 0 1.33398 0.166992 2.00098 0.5s1.33398 0.5 2.00098 0.5c2 0 4.16699 -0.833008 6.5 -2.5s3.5 -5.16699 3.5 -10.5v-2c-0.666992 -0.666992 -1.33398 -2.16699 -2.00098 -4.5s-1 -3.83301 -1 -4.5c-2 -0.666992 -6.16699 -2.83398 -12.5 -6.50098
s-10.5 -6.16699 -12.5 -7.5l-6.5 -6.5c-3 -3 -6 -6.33301 -9 -10l-9 -10.5c-3 -3.33301 -5.5 -5.66602 -7.5 -6.99902c-3.33301 -2 -6.83301 -3.83301 -10.5 -5.5s-6.16699 -6.5 -7.5 -14.5c-0.666992 -1.33301 -0.666992 -3.16602 0 -5.49902s1.33398 -3.5 2.00098 -3.5
c14.667 -10 27 -22.333 37 -37s22 -27.334 36 -38.001c6 -4 9 -11.333 9 -22c0 -3.33301 -0.166992 -6 -0.5 -8s-1.16602 -4.66699 -2.49902 -8c-1.33301 0 -3.16602 -0.166992 -5.49902 -0.5s-4.16602 -0.5 -5.49902 -0.5c-8.66699 0 -18 3.5 -28 10.5
s-19.333 12.5 -28 16.5c-1.33301 0.666992 -3.83301 2.33398 -7.5 5.00098l-12 9c-4.33301 3.33301 -8.5 6.33301 -12.5 9s-6.66699 4.33398 -8 5.00098c-7.33301 3.33301 -16 9 -26 17s-15 20 -15 36z" />
    <glyph glyph-name="logicalnot" unicode="&#xac;" horiz-adv-x="415" 
d="M48 201c0 6 2.33398 10.668 7.00098 14.001s10.667 6 18 8s15.666 3.16699 24.999 3.5s18.666 0.5 27.999 0.5h16.5c7.66699 0 16.334 -0.166992 26.001 -0.5s19.834 -0.5 30.501 -0.5h31c3.33301 0 13.833 0.666992 31.5 2s36.167 2 55.5 2c18 0 30.667 -6 38 -18
s11 -27.667 11 -47c0 -22.667 -2.66699 -44 -8 -64c-4.66699 -19.333 -9.83398 -32 -15.501 -38s-11 -7.16699 -16 -3.5s-9 10.834 -12 21.501s-4.16699 22.667 -3.5 36c0.666992 8.66699 -0.333008 16.667 -3 24s-7.5 13.833 -14.5 19.5s-16.667 10.167 -29 13.5
s-27.833 5 -46.5 5c-14 0 -29.333 0.5 -46 1.5s-33 1.5 -49 1.5c-8 0 -16.333 0.166992 -25 0.5s-16.667 1.16602 -24 2.49902s-13.5 3.16602 -18.5 5.49902s-7.5 5.83301 -7.5 10.5z" />
    <glyph glyph-name="sfthyphen" unicode="&#xad;" horiz-adv-x="300" 
d="M45 134c0 8.66699 2.66602 15.832 7.99902 21.499s14 8.5 26 8.5c4 0 10.833 -0.833008 20.5 -2.5s16.167 -2.5 19.5 -2.5h51c5.33301 0 13 -0.166992 23 -0.5s20 -1.33301 30 -3s18.667 -4.16699 26 -7.5s11 -7.66602 11 -12.999s-1.16699 -9.33301 -3.5 -12
s-7.16602 -5 -14.499 -7c-25.333 -2 -47.5 -4.16699 -66.5 -6.5s-39.833 -4.5 -62.5 -6.5c-45.333 -4 -68 6.33301 -68 31z" />
    <glyph glyph-name="registered" unicode="&#xae;" horiz-adv-x="660" 
d="M23 118c0 18.667 2.16797 36.832 6.50098 54.499s10 34.667 17 51s14.833 32.166 23.5 47.499l26 46v6c15.333 15.333 29.166 31.666 41.499 48.999s25.833 33.666 40.5 48.999c36 39.333 73.333 73 112 101s80.334 54 125.001 78c8.66699 4.66699 18 8.5 28 11.5
s19.667 4.5 29 4.5c12 0 19.667 -1.33301 23 -4s5.16602 -6 5.49902 -10s0.5 -8 0.5 -12s3 -7.33301 9 -10c0.666992 -0.666992 2.83398 -1.5 6.50098 -2.5l11.5 -3c4 -1 7.66699 -2 11 -3s5.33301 -1.5 6 -1.5c12.667 -6 25 -14 37 -24s22.667 -21.5 32 -34.5
s16.666 -27.333 21.999 -43s8 -31.834 8 -48.501c0 -33.333 -8 -65.666 -24 -96.999s-35.667 -60.666 -59 -87.999s-48.5 -52.166 -75.5 -74.499s-51.833 -41.166 -74.5 -56.499l-67.5 -43.5c-25.667 -16.333 -50.5 -28.166 -74.5 -35.499
c-2 -5.33301 -7.66699 -9.5 -17 -12.5s-19.5 -5.5 -30.5 -7.5s-21.667 -3.33301 -32 -4s-17.833 -1 -22.5 -1c-16 0 -32.5 2 -49.5 6s-32.5 10.667 -46.5 20s-25.5 21.5 -34.5 36.5s-13.5 33.5 -13.5 55.5zM363.001 336.998c0 -8.66699 4.00098 -14.8301 12.001 -18.4971
s14.333 -7.16699 19 -10.5c12.667 -10 22.5 -22.5 29.5 -37.5s14.5 -29.167 22.5 -42.5h4l13 4.5c6.66699 2.33301 10.667 4.16602 12 5.49902l35.5 37.5c12.333 13 23.666 27 33.999 42s18.833 30.667 25.5 47s10 34.166 10 53.499c0 31.333 -8.5 56.333 -25.5 75
s-39.5 28 -67.5 28c-6.66699 0 -11.667 -1.5 -15 -4.5s-5.83301 -7.16699 -7.5 -12.5s-3.16699 -11.333 -4.5 -18s-3 -13.334 -5 -20.001c-4 -12 -11 -24 -21 -36l-30.5 -35l-28 -32c-8.33301 -10 -12.5 -18.667 -12.5 -26zM62.002 135.002
c0 -15.333 2.66992 -28.4961 8.00293 -39.4961s12.5 -20 21.5 -27s19.333 -12 31 -15s23.5 -4.5 35.5 -4.5h5.5c3 0 6.16699 0.166992 9.5 0.5s6.5 1 9.5 2s4.5 2.83301 4.5 5.5c0 6 -1.5 11.667 -4.5 17s-6.5 10.666 -10.5 15.999s-7.5 10.666 -10.5 15.999
s-4.5 11.333 -4.5 18v79l2 6c0.666992 1.33301 1 2.83301 1 4.5s0.333008 3.16699 1 4.5c5.33301 16 11.166 31.833 17.499 47.5s12.166 31.167 17.499 46.5c3.33301 2.66699 8.33301 10.334 15 23.001s13.5 26.667 20.5 42s13.167 30.166 18.5 44.499s8 24.5 8 30.5
c-7.33301 0 -13.833 -2 -19.5 -6s-11.167 -8.66699 -16.5 -14c-17.333 -18.667 -35.333 -39.334 -54 -62.001s-35.834 -46.5 -51.501 -71.5s-28.667 -51.333 -39 -79s-15.5 -55.834 -15.5 -84.501zM226.005 171.006c0 -6 0.499023 -12.999 1.49902 -20.999
s2.66699 -15.5 5 -22.5s5.5 -12.833 9.5 -17.5s9.33301 -7 16 -7c12.667 0 25.167 2.66699 37.5 8s24.333 12.166 36 20.499s22.667 17.166 33 26.499l29.5 26c0.666992 0 1 1.66699 1 5c0 6 -3.16699 11.833 -9.5 17.5s-13.666 10.834 -21.999 15.501s-17 8.5 -26 11.5
s-15.833 4.5 -20.5 4.5c-6 0 -14.167 -1.66699 -24.5 -5s-20.5 -8 -30.5 -14s-18.5 -13 -25.5 -21s-10.5 -17 -10.5 -27zM355.004 428.007c0 -3.33301 0.835938 -7 2.50293 -11s4.5 -6 8.5 -6h2c1.33301 1.33301 3.66602 4 6.99902 8l10.5 12c3.66699 4 7 8 10 12
s5.16699 6.66699 6.5 8c3.33301 4 7.16602 10.167 11.499 18.5s6.5 15.5 6.5 21.5c0 4.66699 -0.666992 7.5 -2 8.5s-3.66602 1.5 -6.99902 1.5c-5.33301 0 -11.333 -2.5 -18 -7.5s-12.834 -11.333 -18.501 -19s-10.334 -15.667 -14.001 -24s-5.5 -15.833 -5.5 -22.5z" />
    <glyph glyph-name="macron" unicode="&#xaf;" horiz-adv-x="255" 
d="M34 297c0 5.33301 4.00098 9 12.001 11s16 3 24 3h10.5c5 0 10.333 0.166992 16 0.5s10.834 0.5 15.501 0.5h10h13.5c5.66699 0 11 -0.166992 16 -0.5s9.5 -0.5 13.5 -0.5h6c4.66699 0 10.167 0.5 16.5 1.5s12.166 1.5 17.499 1.5s10 -1 14 -3s6 -6 6 -12
s-1.16699 -12 -3.5 -18s-6.83301 -10 -13.5 -12l-31 -3.5c-8.66699 -1 -16.834 -1.66699 -24.501 -2s-15.5 -0.5 -23.5 -0.5h-28c-4 0 -9.66699 0.5 -17 1.5s-14.833 2.83301 -22.5 5.5s-14.167 6.16699 -19.5 10.5s-8 9.83301 -8 16.5z" />
    <glyph glyph-name="degree" unicode="&#xb0;" horiz-adv-x="207" 
d="M113 386c-25.333 0 -45.6689 6.33203 -61.002 18.999s-24.666 27.667 -27.999 45c-1.33301 6.66699 -1 14.667 1 24s5.33301 18.333 10 27s10.834 16.334 18.501 23.001s16.834 11 27.501 13c9.33301 1.33301 20.666 1.5 33.999 0.5s23.666 -3.83301 30.999 -8.5
c13.333 -9.33301 23.333 -19.833 30 -31.5s10.667 -21.167 12 -28.5c1.33301 -9.33301 0.833008 -19 -1.5 -29s-6.66602 -19 -12.999 -27s-14.5 -14.5 -24.5 -19.5s-22 -7.5 -36 -7.5zM100.997 497.999c-5.33301 -1.33301 -9.33301 -3.83203 -12 -7.49902
s-4.5 -7.5 -5.5 -11.5s-1.66699 -8.16699 -2 -12.5s-0.5 -7.5 -0.5 -9.5c0 -6.66699 3.16699 -14 9.5 -22s14.5 -11.667 24.5 -11c10.667 1.33301 18.667 5.16602 24 11.499s8 11.833 8 16.5c0 18 -4.33301 30.833 -13 38.5s-19.667 10.167 -33 7.5z" />
    <glyph glyph-name="plusminus" unicode="&#xb1;" horiz-adv-x="379" 
d="M171 88c-1.33301 2 -2.66699 5.99707 -4 11.9971s-3 12.167 -5 18.5l-5.5 18c-1.66699 5.66699 -2.83398 9.5 -3.50098 11.5c-4.66699 10.667 -7.33398 19.834 -8.00098 27.501s-2 14.167 -4 19.5s-5.83301 9.5 -11.5 12.5s-15.5 5.16699 -29.5 6.5
c-7.33301 0.666992 -14 1.16699 -20 1.5s-10.333 0.833008 -13 1.5c-5.33301 0.666992 -11.5 3 -18.5 7s-10.5 9 -10.5 15c0 5.33301 3 12 9 20s13.333 12.667 22 14l38 5h5c1.33301 0 4.66602 0.666992 9.99902 2s9 2 11 2c8.66699 2.66699 14.5 10.334 17.5 23.001
s5.33301 26.167 7 40.5s4.33398 27.333 8.00098 39s10.5 17.5 20.5 17.5c4 0 7 -1.83301 9 -5.5s3 -7.83398 3 -12.501c0 -11.333 0.333008 -23 1 -35s1.66699 -23.667 3 -35c1.33301 -12 4.16602 -21.167 8.49902 -27.5s9.83301 -11 16.5 -14s14.5 -5.5 23.5 -7.5
s18.833 -4.33301 29.5 -7c4 -1.33301 10.5 -3.16602 19.5 -5.49902s18.167 -5.5 27.5 -9.5s17.5 -8.33301 24.5 -13s10.5 -10 10.5 -16c0 -5.33301 -0.5 -8.83301 -1.5 -10.5s-4.16699 -2.5 -9.5 -2.5c-15.333 0 -30.166 2.16699 -44.499 6.5s-29.166 6.5 -44.499 6.5
c-11.333 0 -22.333 -1.83301 -33 -5.5s-17.334 -13.167 -20.001 -28.5c-2 -14 -4 -27.167 -6 -39.5s-3 -25.166 -3 -38.499v-14c-1.33301 -4 -3.16602 -6.5 -5.49902 -7.5s-5.16602 -1.5 -8.49902 -1.5s-6.33301 0.5 -9 1.5s-4.66699 3.5 -6 7.5zM56.999 20.9971
c0 4.66699 3.33203 9.83203 9.99902 15.499s12 9.83398 16 12.501h11.5c5.66699 0 11.667 0.166992 18 0.5s12.333 0.5 18 0.5h11.5h16c6.66699 0 13.167 -0.166992 19.5 -0.5s11.833 -0.5 16.5 -0.5h7c6 0 15 -0.166992 27 -0.5s23.833 -1.33301 35.5 -3
s21.834 -4.16699 30.501 -7.5s13 -8 13 -14s-1.5 -10.333 -4.5 -13s-8.5 -5 -16.5 -7c-15.333 -1.33301 -29 -2.33301 -41 -3l-34.5 -2c-11 -0.666992 -22.167 -1 -33.5 -1h-37h-21.5c-9 0 -18.167 0.5 -27.5 1.5s-17.333 3.16699 -24 6.5s-10 8.33301 -10 15z" />
    <glyph glyph-name="twosuperior" unicode="&#xb2;" horiz-adv-x="337" 
d="M302 187c12.667 -10.667 15.166 -16.6709 7.49902 -18.0039s-23.5 1.33398 -47.5 8.00098c-10 3.33301 -19.667 5.5 -29 6.5s-19 1.5 -29 1.5c-11.333 0 -23.5 -0.833008 -36.5 -2.5s-25.833 -3.5 -38.5 -5.5l-39 -4.5c-14 -1.66699 -28 -2.5 -42 -2.5
c-12.667 0 -23.667 2 -33 6s-14 11.667 -14 23c0 13.333 5.83301 25.5 17.5 36.5s23.5 19.833 35.5 26.5c13.333 7.33301 27.833 14.333 43.5 21s30.5 13.667 44.5 21c6.66699 3.33301 10.667 5.83301 12 7.5s2 3.5 2 5.5s-2.16699 3.83301 -6.5 5.5s-9.83301 3 -16.5 4
s-14 1.33301 -22 1s-15.333 -0.833008 -22 -1.5l-27 -4c-10 -1.33301 -18.333 -1.5 -25 -0.5s-10.667 2.83301 -12 5.5s0.166992 6 4.5 10s12.166 8 23.499 12s24 7.33301 38 10s27 4 39 4c7.33301 0 15.833 -0.666992 25.5 -2s18.667 -3.66602 27 -6.99902
s15.333 -7.66602 21 -12.999s8.5 -12.333 8.5 -21c0 -13.333 -7.16699 -25.333 -21.5 -36s-31.166 -19.667 -50.499 -27c-14 -5.33301 -27.833 -11.5 -41.5 -18.5s-20.5 -14.167 -20.5 -21.5c0 -3.33301 3.83301 -5.16602 11.5 -5.49902s17.167 0.5 28.5 2.5
c12 2 24.5 3.66699 37.5 5s25.167 2 36.5 2c19.333 0 38.333 -2.16699 57 -6.5s36.334 -13.5 53.001 -27.5z" />
    <glyph glyph-name="threesuperior" unicode="&#xb3;" horiz-adv-x="216" 
d="M48 181c6.66699 2 14.834 5 24.501 9s18.834 8.66699 27.501 14s16 11.333 22 18s9 13.667 9 21c-1.33301 3.33301 -5.5 6.33301 -12.5 9l-15.5 6c-8 2.66699 -15.5 7 -22.5 13s-10.5 12.667 -10.5 20c0 8 4.33301 14.5 13 19.5s17 9.5 25 13.5
c6 2.66699 11.5 5.33398 16.5 8.00098s7.5 5.66699 7.5 9c0 5.33301 -2.83301 8.33301 -8.5 9s-11.834 1 -18.501 1c-10 0 -17 0.333008 -21 1s-3.33301 2.66699 2 6c3.33301 2 10.333 4.83301 21 8.5s19 5.5 25 5.5c9.33301 0 19 -2.5 29 -7.5s15 -12.5 15 -22.5
s-2.83301 -17.667 -8.5 -23s-11.5 -10.333 -17.5 -15c-6.66699 -4.66699 -10 -8.33398 -10 -11.001c0 -1.33301 1.66699 -2.83301 5 -4.5s7.33301 -3.16699 12 -4.5c9.33301 -2.66699 18.666 -6.66699 27.999 -12s14 -14.666 14 -27.999
c0 -11.333 -6.83301 -21.833 -20.5 -31.5s-29.667 -18.167 -48 -25.5s-36.666 -13.166 -54.999 -17.499s-31.833 -6.5 -40.5 -6.5c-2 0 -5.33301 0.333008 -10 1s-8.83398 1.66699 -12.501 3s-5.5 2.66602 -5.5 3.99902s4 2.66602 12 3.99902z" />
    <glyph glyph-name="acute" unicode="&#xb4;" horiz-adv-x="255" 
d="M152 312c-10 -9.33301 -17.499 -17.333 -22.499 -24s-11.167 -15.334 -18.5 -26.001l-8 -10.5c-2.66699 -3.66699 -5.66699 -7 -9 -10s-7 -5.16699 -11 -6.5s-8.33301 -1.33301 -13 0c-4 1.33301 -6 3.33301 -6 6s0.666992 5.83398 2 9.50098s3 7.33398 5 11.001
s3.66699 7.5 5 11.5l3 12c0.666992 2.66699 2.66699 7.66699 6 15c2.66699 7.33301 5.16699 13.666 7.5 18.999s3.5 8.33301 3.5 9c4 10 9.66699 18.5 17 25.5s16.666 9.83301 27.999 8.5c6 -0.666992 10.667 -3 14 -7s5.33301 -8.5 6 -13.5s0.166992 -10.167 -1.5 -15.5
s-4.16699 -10 -7.5 -14z" />
    <glyph glyph-name="mu" unicode="&#xb5;" horiz-adv-x="284" 
d="M1 -423c3.33301 33.333 7.83496 66.168 13.502 98.501l16.5 97.5c11.333 66.667 18.333 134.5 21 203.5s-0.333008 137.833 -9 206.5c1.33301 11.333 6.83301 18.5 16.5 21.5s18.834 4.5 27.501 4.5c20 0 34.333 -6.16699 43 -18.5s17.667 -28.166 27 -47.499
c1.33301 -0.666992 3.5 -1.66699 6.5 -3s5.16699 -1.33301 6.5 0l10 9c4 4 9.16699 5.66699 15.5 5s12.166 -1 17.499 -1c8.66699 0 14.167 -4.66699 16.5 -14s3.83301 -17 4.5 -23c0.666992 -7.33301 0.666992 -13.833 0 -19.5s-0.666992 -12.167 0 -19.5
c0 -2.66699 0.166992 -6.66699 0.5 -12s1.16602 -10.833 2.49902 -16.5s3.16602 -10.834 5.49902 -15.501s5.5 -7.33398 9.5 -8.00098l6 3c5.33301 3.33301 9.33301 6.16602 12 8.49902s8 3.5 16 3.5c5.33301 0 9.33301 -3.16699 12 -9.5s4.33398 -11.5 5.00098 -15.5
c1.33301 -9.33301 -1 -16.166 -7 -20.499s-13.667 -6.5 -23 -6.5c-7.33301 0 -14.333 1.33301 -21 4s-13 5.5 -19 8.5l-17.5 8.5c-5.66699 2.66699 -10.834 4 -15.501 4c-8.66699 0 -14.834 -3 -18.501 -9s-9.16699 -10.333 -16.5 -13l-42 -16
c-7.33301 -3.33301 -13.166 -13 -17.499 -29s-8 -34 -11 -54s-6.16699 -39.5 -9.5 -58.5s-7.66602 -32.833 -12.999 -41.5l-39 -221c-2.66699 -10.667 -9.66699 -16 -21 -16c-5.33301 0 -8.33301 1.5 -9 4.5s-1.33398 6.5 -2.00098 10.5v7z" />
    <glyph glyph-name="paragraph" unicode="&#xb6;" horiz-adv-x="556" 
d="M352 609c30 0 56.0068 -3.00684 78.0068 -9.00684l86 -15c3.33301 -2.66699 6.16602 -6.66699 8.49902 -12s3.5 -10.666 3.5 -15.999c0 -6 -1.33301 -10.333 -4 -13c-9.33301 -8.66699 -17.833 -14.834 -25.5 -18.501s-14.334 -6.5 -20.001 -8.5
s-10.334 -3.83301 -14.001 -5.5s-5.83398 -4.5 -6.50098 -8.5c-3.33301 -16 -5.33301 -32.667 -6 -50s-1 -36.333 -1 -57c0 -28 0.833008 -62.333 2.5 -103s2.5 -83.334 2.5 -128.001c0 -15.333 -0.166992 -36.5 -0.5 -63.5s-0.833008 -54.333 -1.5 -82
s-1.33398 -53 -2.00098 -76s-1 -38.167 -1 -45.5c-0.666992 -14 -5.33398 -26.5 -14.001 -37.5s-17.667 -16.5 -27 -16.5c-10.667 0 -16 7.33301 -16 22c0 4.66699 0.333008 15 1 31s1.5 34.667 2.5 56s2 44.333 3 69l3 70.5c1 22.333 1.83301 42.333 2.5 60s1 30.5 1 38.5
c0 39.333 0.5 72.333 1.5 99s1.5 51.667 1.5 75c0 20.667 -1.33301 37.334 -4 50.001s-6 22.334 -10 29.001s-8.5 11.167 -13.5 13.5s-9.83301 3.5 -14.5 3.5s-10.334 -1 -17.001 -3s-13.167 -8 -19.5 -18s-11.666 -25.667 -15.999 -47s-6.5 -51 -6.5 -89
c0 -21.333 1 -44.166 3 -68.499s4 -51.833 6 -82.5c0.666992 -8.66699 2.16699 -24 4.5 -46l7.5 -70l7.5 -70c2.33301 -22 3.5 -37.667 3.5 -47c0 -11.333 -1.83301 -21.5 -5.5 -30.5s-8 -16.5 -13 -22.5s-10 -10.667 -15 -14s-8.83301 -5 -11.5 -5
c-6.66699 0 -12.167 6.33301 -16.5 19s-7.66602 28.834 -9.99902 48.501s-4.16602 41.334 -5.49902 65.001s-2.33301 46.667 -3 69s-1.33398 42.666 -2.00098 60.999s-1.33398 31.833 -2.00098 40.5c-0.666992 4 -1.66699 9.5 -3 16.5s-3 14.167 -5 21.5
s-4.33301 14.333 -7 21s-5 11.667 -7 15c-12 18.667 -25.167 32.334 -39.5 41.001s-28.833 15.167 -43.5 19.5s-28.667 7.83301 -42 10.5s-25.333 7.83398 -36 15.501s-19.167 18.834 -25.5 33.501s-9.5 36 -9.5 64c0 10.667 5 25.834 15 45.501s29 40.5 57 62.5l41.5 32
c14.333 10.667 30.666 20.5 48.999 29.5s39.5 16.333 63.5 22s53 8.5 87 8.5z" />
    <glyph glyph-name="periodcentered" unicode="&#xb7;" horiz-adv-x="178" 
d="M44 92c-2 6.66699 -2.66504 14.332 -1.99805 22.999s3 17 7 25s10 14.5 18 19.5s18.667 6.83301 32 5.5c9.33301 -1.33301 17.166 -5.16602 23.499 -11.499s10.166 -12.5 11.499 -18.5c4.66699 -16 2.33398 -30.167 -6.99902 -42.5s-24 -18.833 -44 -19.5
c-10 -0.666992 -18.333 0 -25 2s-11.334 7.66699 -14.001 17z" />
    <glyph glyph-name="cedilla" unicode="&#xb8;" horiz-adv-x="591" 
d="M281 11c2 8.66699 4.33301 13.833 7 15.5s5.66699 2.5 9 2.5c11.333 -0.666992 17.833 -2.5 19.5 -5.5s1.16699 -8.5 -1.5 -16.5l-8 -26c-4 -13.333 -3.5 -23.333 1.5 -30s13.5 -11.667 25.5 -15c13.333 -3.33301 26 -10 38 -20s18 -24 18 -42
c0 -10 -2.5 -18.667 -7.5 -26s-11.333 -13.333 -19 -18s-16.167 -8 -25.5 -10s-18.333 -3 -27 -3c-12 0 -24 3.33301 -36 10s-19.667 13.667 -23 21c-2.66699 4.66699 -1.83398 6.66699 2.49902 6s7.83301 -1.33398 10.5 -2.00098
c12 -4.66699 20.833 -7.33398 26.5 -8.00098s11.167 -1 16.5 -1c8 0 14.667 2 20 6s8.33301 9.33301 9 16c0 4.66699 -2.16699 8.83398 -6.5 12.501s-13.166 7.16699 -26.499 10.5c-17.333 4.66699 -28.833 11.334 -34.5 20.001s-8.5 19.667 -8.5 33
c0 10.667 2.66699 21.667 8 33z" />
    <glyph glyph-name="onesuperior" unicode="&#xb9;" horiz-adv-x="174" 
d="M131 390c6 0 12.0059 -2.00391 18.0059 -6.00391s9.33301 -8.66699 10 -14c1.33301 -12 0.166016 -21.333 -3.50098 -28s-7.83398 -15.334 -12.501 -26.001c-6 -13.333 -11.333 -24.5 -16 -33.5s-8.83398 -17.667 -12.501 -26s-7 -17.333 -10 -27
s-5.83301 -22.167 -8.5 -37.5c-0.666992 -2.66699 -1.33398 -5.5 -2.00098 -8.5s-2.66699 -6.83301 -6 -11.5c-3.33301 -3.33301 -7.33301 -5 -12 -5c-5.33301 0 -9.5 2.83301 -12.5 8.5s-4.5 12.834 -4.5 21.501c0 6.66699 0.333008 14.5 1 23.5s1.66699 17.5 3 25.5
c2.66699 12.667 4 21.834 4 27.501s-0.5 9.33398 -1.5 11.001s-2.16699 2 -3.5 1s-2 -1.83301 -2 -2.5c-3.33301 -3.33301 -6.33301 -6.66602 -9 -9.99902s-6.66699 -5 -12 -5c-3.33301 0 -5.83301 1.5 -7.5 4.5s-1.83398 6.16699 -0.500977 9.5
c2.66699 10.667 8.66699 22.334 18 35.001s19.166 24.5 29.499 35.5s20.5 20 30.5 27s17.333 10.5 22 10.5z" />
    <glyph glyph-name="ordmasculine" unicode="&#xba;" horiz-adv-x="169" 
d="M119 326c16.667 -1.33301 27.168 -6.66797 31.501 -16.001s6.5 -20.666 6.5 -33.999c0 -12.667 -2.5 -25 -7.5 -37s-11.5 -22.667 -19.5 -32s-17.5 -16.833 -28.5 -22.5s-22.5 -8.5 -34.5 -8.5c-32.667 0 -49 18.667 -49 56c0 10 1.83301 21.333 5.5 34
s8.5 24.667 14.5 36s13.167 20.833 21.5 28.5s17.166 11.5 26.499 11.5c2.66699 0 7 -2.16699 13 -6.5s12.667 -7.5 20 -9.5zM102.001 258.998c-3.33301 6.66699 -7.83203 13.6641 -13.499 20.9971s-8.5 15 -8.5 23c0 6.66699 2.33301 12.334 7 17.001
c-0.666992 0.666992 -2 1 -4 1c-8.66699 0 -15.834 -6 -21.501 -18s-8.5 -24.667 -8.5 -38c0 -10 1.33301 -19.5 4 -28.5s7.66699 -13.5 15 -13.5c2 0 4.83301 0.166992 8.5 0.5s7.5 1.33301 11.5 3s7.33301 3.83398 10 6.50098s4 6.33398 4 11.001
c0 7.33301 -1.33301 12.333 -4 15z" />
    <glyph glyph-name="guillemotright" unicode="&#xbb;" horiz-adv-x="358" 
d="M320 100c0 -8 -1.50391 -15.0039 -4.50391 -21.0039s-6.66699 -11 -11 -15s-8.83301 -7.33301 -13.5 -10l-12 -7l-53 -23c-8 -4.66699 -15.667 -10 -23 -16s-15.333 -9 -24 -9c-1.33301 0 -3.16602 0.166992 -5.49902 0.5s-4.16602 0.5 -5.49902 0.5
c-1.33301 3.33301 -2.16602 6 -2.49902 8s-0.5 4.66699 -0.5 8c0 10.667 3 18 9 22c6.66699 4.66699 12.167 9 16.5 13l12.5 11.5l12.5 11c4.33301 3.66699 10.166 8.16699 17.499 13.5l2.5 3.5c1.66699 2.33301 3.16699 5 4.5 8s2.66602 5.83301 3.99902 8.5
s2 4.33398 2 5.00098c-1.33301 7.33301 -2.66602 12.5 -3.99902 15.5s-3.66602 5.5 -6.99902 7.5l-67 46c-2 1.33301 -6.16699 3.83301 -12.5 7.5s-10.5 5.83398 -12.5 6.50098c0 0.666992 -0.333008 2.33398 -1 5.00098s-1.33398 4.33398 -2.00098 5.00098v2
c0 4.66699 1.16699 8 3.5 10s4.5 3 6.5 3c0.666992 0 1.33398 -0.166992 2.00098 -0.5s1.33398 -0.5 2.00098 -0.5l130 -75c2.66699 -2 6 -4 10 -6s8 -4.66699 12 -8s7.33301 -7.5 10 -12.5s4 -10.833 4 -17.5zM179.996 99.9961c0 -8 -1.50488 -14.9951 -4.50488 -20.9951
s-6.66699 -11 -11 -15s-8.83301 -7.33301 -13.5 -10l-12 -7c-1.33301 -0.666992 -4 -2.33398 -8 -5.00098l-13 -9l-12.5 -9c-3.66699 -2.66699 -6.16699 -4.33398 -7.5 -5.00098c-8 -4 -17 -9.5 -27 -16.5s-19.667 -10.5 -29 -10.5c-0.666992 0 -2.16699 0.166992 -4.5 0.5
s-4.16602 0.5 -5.49902 0.5c-2 3.33301 -3.16699 6 -3.5 8s-0.5 4.66699 -0.5 8c0 6 0.666992 10.5 2 13.5s3.66602 5.83301 6.99902 8.5c14.667 10.667 26.834 23.334 36.501 38.001s21.834 27 36.501 37c1.33301 0 2.33301 1.16699 3 3.5s0.666992 4.16602 0 5.49902
c-1.33301 8 -4 12.833 -8 14.5s-7.66699 3.5 -11 5.5c-2 1.33301 -4.33301 3.66602 -7 6.99902l-8.5 10.5c-3 3.66699 -6 7 -9 10l-6.5 6.5c-2 1.33301 -6.16699 3.83301 -12.5 7.5s-10.5 5.83398 -12.5 6.50098c-0.666992 0.666992 -1.16699 2.16699 -1.5 4.5
s-0.833008 3.83301 -1.5 4.5v2c0 5.33301 1.16699 8.83301 3.5 10.5s4.5 2.5 6.5 2.5c0.666992 0 1.33398 -0.166992 2.00098 -0.5s1.33398 -0.5 2.00098 -0.5c4.66699 -2.66699 11.5 -6.83398 20.5 -12.501s18.167 -11.834 27.5 -18.501l27 -18.5
c8.66699 -5.66699 15.334 -9.83398 20.001 -12.501c2.66699 -2 6 -4 10 -6s8 -4.66699 12 -8s7.33301 -7.5 10 -12.5s4 -10.833 4 -17.5z" />
    <glyph glyph-name="afii10023" unicode="&#x401;" horiz-adv-x="728" 
d="M40 234c0 20.667 3.6709 39.6621 11.0039 56.9951s12.333 36 15 56l28 78c8.66699 25.333 19.5 48.166 32.5 68.499s29.167 37.333 48.5 51s44.666 22.167 75.999 25.5h145l71 -9c0.666992 0 3 -0.333008 7 -1s8.5 -1.5 13.5 -2.5s9.83301 -1.83301 14.5 -2.5
s8 -1.33398 10 -2.00098l15 -2.5c6 -1 12 -2.5 18 -4.5s11 -4.66699 15 -8s6 -7.66602 6 -12.999s-1 -9.66602 -3 -12.999s-5.66699 -5 -11 -5s-11.5 1 -18.5 3s-14 4.16699 -21 6.5l-20.5 7c-6.66699 2.33301 -12.334 3.83301 -17.001 4.5
c-3.33301 0.666992 -8.5 1.5 -15.5 2.5s-14 1.83301 -21 2.5s-13.333 1.33398 -19 2.00098s-9.5 1 -11.5 1h-7c-4.66699 0 -10.167 0.166992 -16.5 0.5s-12.666 0.5 -18.999 0.5h-15.5c-24 0 -46 -0.666992 -66 -2s-41.667 -5 -65 -11
c-4.66699 -9.33301 -11.334 -17.5 -20.001 -24.5s-15.667 -15.167 -21 -24.5s-10 -20.333 -14 -33s-7.5 -25.834 -10.5 -39.501s-5.33301 -27.167 -7 -40.5s-2.5 -25.333 -2.5 -36c0 -6 0.166992 -11.5 0.5 -16.5s3.16602 -10.167 8.49902 -15.5
c2.66699 -1.33301 8.16699 -2.5 16.5 -3.5s13.833 -1.5 16.5 -1.5h8c8 1.33301 21.833 3 41.5 5l63.5 6.5c22.667 2.33301 44 4.33301 64 6s34 2.5 42 2.5c1.33301 0.666992 5.83301 1.16699 13.5 1.5s16.5 0.5 26.5 0.5h30.5h24.5h18.5h28.5c10 0 19.5 -0.166992 28.5 -0.5
s15.5 -0.833008 19.5 -1.5c2.66699 0 8 -0.666992 16 -2l25 -4c8.66699 -1.33301 16.834 -2.5 24.501 -3.5s13.167 -1.83301 16.5 -2.5c9.33301 -1.33301 18.833 -3.66602 28.5 -6.99902s15.167 -10.333 16.5 -21c0.666992 -2.66699 -0.833008 -6 -4.5 -10
s-6.16699 -6.33301 -7.5 -7h-14c-10 0 -19.333 1 -28 3s-18 3.66699 -28 5c-10.667 0.666992 -19.667 1.33398 -27 2.00098s-14.333 1.16699 -21 1.5s-13.5 0.5 -20.5 0.5h-24.5c-8.66699 0 -22.667 -0.666992 -42 -2s-40.833 -3.5 -64.5 -6.5s-48 -7.16699 -73 -12.5
s-47.833 -11.666 -68.5 -18.999s-37.667 -16.166 -51 -26.499s-20 -22.166 -20 -35.499c0 -6 1.16699 -12.333 3.5 -19s5.5 -13 9.5 -19s8.83301 -11 14.5 -15s11.5 -6 17.5 -6h47c44 0 87.833 2.16699 131.5 6.5s87.5 6.5 131.5 6.5h25.5
c7.66699 0 15.167 -0.166992 22.5 -0.5s15 -0.833008 23 -1.5s17.333 -1.33398 28 -2.00098c7.33301 -2.66699 12.5 -5.83398 15.5 -9.50098s4.5 -9.16699 4.5 -16.5s-3.33301 -13.666 -10 -18.999s-13 -9.66602 -19 -12.999c-40 0.666992 -80.5 0.5 -121.5 -0.5
s-81.5 -4.83301 -121.5 -11.5c-42.667 -7.33301 -85.334 -16.166 -128.001 -26.499s-86 -15.5 -130 -15.5c-31.333 0 -55.833 7.5 -73.5 22.5s-30.834 34 -39.501 57s-14 48.167 -16 75.5s-3 53.666 -3 78.999zM396.004 690.995c13.333 0 22.333 -4 27 -12s7 -14.667 7 -20
c0 -10 -3.5 -18.5 -10.5 -25.5s-17.167 -10.5 -30.5 -10.5c-9.33301 0 -16.833 1.33301 -22.5 4s-8.5 9.66699 -8.5 21c0 9.33301 2.83301 18.833 8.5 28.5s15.5 14.5 29.5 14.5zM292.004 690.995c12 0 20.5 -3.83301 25.5 -11.5s7.5 -14.5 7.5 -20.5
c0 -10 -3.5 -18.5 -10.5 -25.5s-17.167 -10.5 -30.5 -10.5c-9.33301 0 -16.833 1.33301 -22.5 4s-8.5 9.66699 -8.5 21c0 9.33301 3 18.833 9 28.5s16 14.5 30 14.5z" />
    <glyph glyph-name="afii10051" unicode="&#x402;" horiz-adv-x="565" 
d="M209 672c71.333 0 106.999 -42.3281 106.999 -126.995l12 -12c0.666992 0 2.5 -0.166992 5.5 -0.5s5.5 -0.5 7.5 -0.5c10.667 0 23.5 0.333008 38.5 1s29.833 1.16699 44.5 1.5s28 0.833008 40 1.5s20.333 1 25 1c20.667 0 41.834 -0.5 63.501 -1.5s41.5 -2.5 59.5 -4.5
s32.667 -4.16699 44 -6.5s17 -4.83301 17 -7.5c0 -10.667 -6.16699 -17.5 -18.5 -20.5s-26.166 -4.5 -41.499 -4.5l-87 1c-31.333 0.666992 -59.166 -1 -83.499 -5s-50.833 -8 -79.5 -12c-8.66699 -2.66699 -16.334 -4.83398 -23.001 -6.50098
s-12.5 -4.83398 -17.5 -9.50098s-8.83301 -11.667 -11.5 -21s-4 -22.666 -4 -39.999l2 -79c0.666992 -24 7.66699 -43.667 21 -59s35 -23 65 -23h10c20.667 0 39.167 -4.5 55.5 -13.5s30 -20.667 41 -35s19.5 -30.833 25.5 -49.5s9 -37.667 9 -57
c0 -29.333 -4.83301 -62.833 -14.5 -100.5s-24.167 -75.5 -43.5 -113.5s-43.5 -74 -72.5 -108s-62.5 -61.667 -100.5 -83c-2.66699 -1.33301 -4.83398 -2.16602 -6.50098 -2.49902s-3.16699 -0.5 -4.5 -0.5c-4.66699 0 -7 1.33301 -7 4c0 3.33301 1.66699 6.66602 5 9.99902
c26.667 14 48.834 34.167 66.501 60.5s32.5 53.166 44.5 80.499c4.66699 11.333 10.167 23.666 16.5 36.999s12.166 27.166 17.499 41.499s9.83301 28.666 13.5 42.999s5.5 28.5 5.5 42.5c0 10.667 -0.666992 24.667 -2 42s-4 34 -8 50s-9.16699 29.833 -15.5 41.5
s-14.5 17.5 -24.5 17.5c-12.667 0 -24.667 -4.83301 -36 -14.5l-30 -25.5c-7.33301 -18 -14 -35.833 -20 -53.5s-11.833 -33.5 -17.5 -47.5s-11.5 -25.167 -17.5 -33.5s-13 -12.5 -21 -12.5c-9.33301 0 -16.333 6.83301 -21 20.5s-7 30.167 -7 49.5c0 28 0.333008 52 1 72
s1.5 38.333 2.5 55s2.16699 33 3.5 49l4.5 54c1.66699 20 3.5 43.167 5.5 69.5l7 96.5c0.666992 4 1 7.5 1 10.5v7.5c0 8.66699 -2.66699 13 -8 13c-4.66699 0 -12 -2 -22 -6c-12 -6.66699 -27.167 -10 -45.5 -10s-38.5 1 -60.5 3s-45.333 4.33301 -70 7
s-49 3.33398 -73 2.00098c-20.667 7.33301 -37.667 19.5 -51 36.5s-20 36.5 -20 58.5c0 14 3.66699 26.167 11 36.5s16.5 19.166 27.5 26.499s22.833 13.333 35.5 18s24.667 8.66699 36 12l52 15c14 4 27.5 7.33301 40.5 10s26.667 4.66699 41 6s32.5 2 54.5 2z
M54.999 581.005c0 -16.667 2.83301 -29.168 8.5 -37.501s13.167 -14.166 22.5 -17.499s20 -5 32 -5h37c4.66699 0 13.167 0.333008 25.5 1s25 2 38 4s24.5 5.16699 34.5 9.5s15 10.166 15 17.499v18c-2 13.333 -5.5 24.333 -10.5 33s-10.667 15.834 -17 21.501
s-12.833 9.83398 -19.5 12.501s-12.667 4.66699 -18 6h-41c-6 0 -15 -1.5 -27 -4.5s-24 -7.33301 -36 -13s-22.333 -12.334 -31 -20.001s-13 -16.167 -13 -25.5z" />
    </font>
</defs>
</svg>
